<?xml version="1.0" standalone="no"?>
<!DOCTYPE svg PUBLIC "-//W3C//DTD SVG 20010904//EN"
 "http://www.w3.org/TR/2001/REC-SVG-20010904/DTD/svg10.dtd">
<svg version="1.0" xmlns="http://www.w3.org/2000/svg"
 width="622.000000pt" height="315.000000pt" viewBox="0 0 622.000000 315.000000"
 preserveAspectRatio="xMidYMid meet">

<g transform="translate(0.000000,315.000000) scale(0.100000,-0.100000)"
fill="#FAF3E0" stroke="none">
<path d="M866 3084 c-407 -446 -670 -988 -758 -1559 -25 -168 -31 -519 -9
-594 20 -70 28 -34 29 132 4 693 297 1403 801 1942 26 28 66 71 90 98 l44 47
-69 -1 -69 0 -59 -65z"/>
<path d="M1049 3053 c-357 -363 -621 -856 -719 -1344 -34 -171 -44 -278 -43
-474 1 -283 39 -508 130 -756 41 -113 147 -329 207 -421 l37 -58 69 0 c39 0
70 3 70 8 0 4 -14 34 -30 67 -33 64 -18 50 30 -28 l30 -47 84 0 c77 0 85 2 79
18 -6 15 -4 15 15 -2 12 -11 24 -17 27 -14 3 2 -30 42 -72 88 -47 50 -90 108
-110 149 -18 36 -30 54 -27 39 4 -16 2 -28 -4 -28 -11 0 -27 34 -62 125 -38
101 -41 104 -34 41 6 -65 -11 -72 -21 -8 -14 84 -29 142 -36 142 -7 0 -20 52
-38 155 -6 36 -9 42 -10 20 -2 -29 -2 -29 -16 -11 -10 13 -15 45 -16 90 0 49
-3 65 -9 51 -6 -15 -9 -7 -9 29 -1 47 -2 49 -17 30 -14 -18 -15 -15 -9 31 3
28 8 68 11 90 l4 40 -20 -40 c-23 -48 -28 -20 -6 41 7 22 12 60 10 84 -2 25
-5 108 -6 185 -3 123 2 168 35 367 21 127 46 248 58 275 11 26 26 61 34 78 40
91 96 238 91 242 -3 3 7 21 21 40 14 18 27 32 29 30 2 -2 -11 -39 -30 -83 -51
-121 -52 -135 -6 -69 23 33 39 51 35 40 -24 -65 -46 -147 -51 -190 -4 -27 -11
-56 -17 -62 -6 -9 -6 -13 2 -13 19 0 4 -77 -29 -145 -26 -54 -30 -75 -30 -143
0 -87 -19 -128 -21 -45 -1 26 -4 59 -9 73 -4 15 -9 -33 -11 -123 -2 -81 -1
-147 2 -147 3 0 9 -43 13 -95 5 -77 3 -101 -10 -126 -8 -17 -13 -33 -11 -36 3
-2 10 5 17 16 30 58 49 -56 20 -124 -22 -52 -18 -59 9 -15 l18 31 13 -45 c11
-39 10 -52 -4 -88 l-17 -43 20 25 c11 14 21 23 24 20 10 -13 47 -124 47 -142
0 -11 7 -26 15 -34 9 -10 15 -35 15 -67 0 -31 4 -47 9 -39 5 9 13 -2 26 -35
25 -68 82 -180 116 -230 16 -23 39 -67 51 -98 11 -30 24 -55 29 -55 4 0 22
-20 38 -44 17 -24 53 -70 81 -102 50 -59 67 -93 30 -59 -36 32 -166 197 -245
310 -92 132 -93 133 -64 70 38 -81 105 -191 156 -258 60 -79 190 -207 210
-207 13 0 13 3 -1 25 -25 39 -19 42 15 7 l31 -32 113 0 c112 0 113 0 109 23
l-5 22 17 -22 c14 -20 25 -23 89 -23 46 0 75 4 77 11 3 9 9 9 25 1 26 -14 186
-14 177 -1 -3 5 -10 24 -15 42 l-8 32 40 -42 40 -43 75 0 75 0 -27 45 c-14 25
-25 48 -23 50 2 2 17 1 33 -2 20 -4 36 -19 55 -49 14 -24 32 -44 40 -44 11 0
11 3 0 17 -13 16 -13 16 11 0 13 -9 40 -17 58 -17 30 0 33 2 22 15 -7 8 -18
15 -25 15 -7 0 -18 7 -25 15 -8 9 -9 15 -2 15 6 0 13 -4 16 -9 3 -4 16 -6 29
-4 17 3 28 -2 41 -21 14 -22 24 -26 68 -26 48 0 50 1 32 15 -17 13 -15 14 31
8 28 -3 55 -9 60 -14 6 -4 32 -2 58 4 38 8 53 8 69 -2 23 -14 31 -11 19 7 -4
7 -77 23 -172 38 -153 24 -169 28 -239 68 -117 67 -131 73 -90 35 l35 -31 -40
7 c-21 4 -55 19 -75 34 -56 44 -100 73 -100 67 0 -3 17 -24 37 -47 34 -37 35
-40 12 -35 -13 3 -42 8 -64 11 -22 4 -50 13 -62 20 -16 11 -23 12 -26 2 -3 -8
-19 0 -47 22 l-43 34 6 -41 c8 -63 -14 -53 -53 24 -11 22 -19 33 -20 25 0 -8
-16 3 -36 25 -41 45 -36 32 19 -49 21 -32 37 -60 35 -63 -10 -9 -90 99 -103
139 -10 33 -13 37 -14 17 -2 -25 -2 -24 -31 10 -16 19 -30 43 -30 53 0 9 -4
16 -10 15 -5 -2 -25 18 -43 44 -19 26 -36 45 -39 43 -5 -5 -134 134 -185 200
-17 22 -41 72 -53 110 -31 98 -147 391 -175 446 -18 34 -28 79 -40 178 -16
141 -12 223 9 183 9 -17 15 5 34 130 15 96 32 173 49 212 14 33 49 129 78 211
29 83 61 168 71 190 25 55 143 254 170 287 12 15 37 58 54 95 18 38 39 77 48
88 15 18 15 19 0 5 -9 -8 -38 -43 -66 -78 -27 -34 -70 -78 -95 -97 l-46 -35
20 59 c18 52 28 65 92 116 43 35 121 81 192 115 173 83 182 84 113 14 -31 -33
-64 -73 -75 -89 -31 -51 -105 -145 -114 -145 -5 0 -9 -4 -9 -10 0 -5 -20 -40
-44 -77 -24 -37 -60 -100 -79 -139 -20 -40 -58 -101 -85 -137 -51 -66 -106
-171 -100 -188 2 -6 23 19 46 54 47 71 107 137 124 137 11 0 7 -7 -60 -91 -24
-30 -57 -79 -74 -109 l-30 -55 27 25 27 25 -7 -33 c-4 -19 -22 -60 -41 -91
-19 -32 -37 -73 -39 -92 -2 -19 -9 -56 -15 -84 -6 -27 -13 -77 -16 -110 l-5
-60 35 84 c36 85 54 115 43 73 -4 -19 -3 -21 8 -12 11 9 15 3 17 -37 4 -47 4
-47 12 -15 5 17 13 32 18 32 6 0 7 -10 3 -22 -3 -13 -9 -33 -12 -44 -8 -33 33
-166 78 -255 25 -51 42 -100 45 -132 3 -29 8 -63 11 -77 5 -23 6 -24 13 -5 8
19 9 19 9 -3 2 -50 23 -111 37 -105 31 11 47 149 19 159 -8 4 -15 18 -15 33
-1 25 -1 25 -15 7 -14 -19 -15 -18 -15 10 0 50 10 46 52 -16 52 -78 150 -164
132 -115 -4 8 -1 15 5 15 6 0 11 -4 11 -9 0 -4 33 -36 73 -71 39 -35 82 -79
94 -99 12 -20 23 -29 23 -21 0 13 1 13 10 0 6 -10 10 -11 10 -2 0 25 42 1 52
-30 2 -6 10 -8 17 -4 9 6 9 11 0 22 -9 11 -8 14 5 14 9 0 25 -14 34 -31 9 -17
23 -38 30 -47 11 -15 11 -13 6 11 -8 37 0 34 31 -10 21 -32 25 -34 25 -15 0
30 10 28 42 -10 26 -31 27 -32 22 -8 -5 21 -4 22 6 7 6 -9 15 -17 19 -17 5 0
30 -10 57 -22 56 -25 54 -24 155 -34 81 -7 134 0 124 16 -10 16 11 12 24 -4 7
-8 30 -24 51 -35 30 -15 38 -17 33 -6 -6 18 8 20 25 3 10 -10 15 -10 22 2 7
12 16 6 45 -28 41 -47 59 -54 45 -17 -12 32 -2 32 30 -1 25 -27 25 -27 30 -5
5 22 6 22 49 -9 24 -18 49 -33 55 -34 6 -1 22 -9 36 -19 30 -21 41 -22 33 -1
-4 12 1 11 28 -5 41 -25 50 -26 42 -6 -4 12 3 11 32 -6 l37 -22 -16 32 -17 32
38 -17 c64 -27 69 -27 41 -3 -14 13 -29 34 -33 47 -4 13 -21 32 -38 43 -38 23
-48 24 -41 4 4 -8 3 -15 -1 -15 -3 0 -54 22 -113 49 -113 52 -227 85 -327 94
l-60 6 105 -36 c95 -33 127 -50 115 -62 -3 -2 -12 2 -20 9 -9 8 -38 14 -64 14
-37 1 -55 7 -81 29 -21 18 -35 24 -40 17 -4 -7 -13 -4 -24 9 -10 11 -25 20
-34 20 -29 0 -68 8 -82 16 -10 6 -12 2 -7 -15 5 -20 0 -17 -33 15 -22 21 -42
36 -46 33 -7 -8 23 -67 49 -95 18 -20 18 -23 4 -23 -9 0 -23 15 -31 33 -17 43
-75 109 -90 104 -6 -3 -19 2 -28 11 -16 14 -18 13 -18 -4 0 -13 -8 -7 -27 21
-15 22 -28 34 -31 27 -3 -10 -9 -9 -24 5 -11 10 -25 18 -31 18 -25 0 -168 88
-193 118 -15 18 -23 24 -20 14 3 -10 2 -17 -3 -15 -7 2 -245 224 -347 323 -23
23 -34 45 -43 95 -7 36 -16 74 -19 85 -5 18 -6 18 -13 -5 -5 -17 -8 -5 -9 40
-1 36 -5 74 -9 85 -7 16 -9 14 -16 -15 -13 -55 -17 -6 -7 78 5 40 6 75 3 78
-3 3 -13 -5 -23 -18 l-18 -23 0 22 c0 32 30 143 48 178 9 17 17 37 18 45 2 8
11 22 21 30 10 8 25 24 33 35 14 19 14 19 -3 6 -48 -38 -15 46 36 92 30 27 27
28 -20 11 -10 -4 0 5 22 21 22 15 60 43 85 63 25 20 51 40 58 45 19 15 15 -10
-5 -31 -19 -19 -30 -67 -13 -57 14 9 12 -5 -5 -35 -28 -49 -14 -44 39 15 43
48 56 57 61 43 5 -13 -34 -78 -72 -118 -2 -2 -8 2 -13 10 -16 25 -4 -78 20
-165 11 -44 23 -107 25 -140 6 -75 55 -177 125 -260 28 -33 66 -79 86 -102 46
-56 107 -97 177 -121 31 -10 66 -27 77 -37 11 -10 20 -14 20 -10 0 5 15 -5 33
-21 17 -17 41 -37 51 -45 19 -14 19 -13 1 16 -11 19 1 10 34 -25 46 -48 50
-51 36 -22 -9 19 -15 36 -12 38 2 3 35 -11 73 -29 77 -38 131 -57 160 -57 11
0 24 -4 29 -9 6 -6 32 -21 58 -35 41 -23 46 -23 38 -7 -9 16 -1 14 47 -11 l57
-30 -38 34 c-69 61 -33 57 48 -6 l40 -31 -17 27 c-10 15 -18 30 -18 34 0 4 8
0 18 -8 9 -9 36 -27 59 -42 32 -20 41 -22 36 -9 -4 9 -2 14 3 12 5 -3 23 -11
39 -19 17 -8 43 -25 58 -37 16 -13 33 -21 38 -18 11 8 59 -18 83 -44 43 -47
126 -12 111 46 -3 15 -8 46 -11 68 -3 32 -2 36 6 20 7 -14 8 4 3 60 -10 119
-9 131 20 240 15 55 30 132 34 173 5 64 10 78 45 125 80 105 150 250 179 367
10 41 12 43 25 25 17 -23 19 -6 4 44 -12 42 -6 50 20 26 26 -23 26 -9 0 33
-30 49 -24 81 9 49 8 -7 7 1 -4 21 -16 33 -16 34 4 27 20 -6 19 -2 -10 47 -17
29 -40 63 -52 76 -27 29 -14 28 40 -4 l44 -25 -26 53 c-15 29 -31 61 -36 70
-13 26 -11 41 6 34 8 -3 15 -3 15 -1 0 11 -68 66 -101 81 -35 15 -56 40 -45
52 14 14 201 -123 292 -215 71 -72 127 -175 214 -398 29 -72 39 -105 34 -105
-4 0 -1 -6 5 -14 7 -8 14 -33 16 -55 3 -31 0 -39 -10 -35 -8 3 -15 15 -17 27
-2 12 -2 -78 0 -200 5 -211 4 -223 -14 -223 -14 0 -15 -3 -6 -12 17 -17 15
-38 -5 -38 -13 0 -14 -3 -5 -12 12 -12 17 -48 6 -48 -3 0 -14 5 -26 11 -25 14
-35 4 -17 -18 12 -15 12 -16 -3 -10 -21 7 -23 -4 -5 -22 10 -10 8 -11 -8 -5
-19 8 -19 7 -2 -19 19 -29 23 -52 7 -42 -16 10 -12 -2 21 -55 22 -37 28 -54
21 -66 -9 -15 -10 -15 -17 5 -7 22 -52 58 -61 48 -3 -3 2 -17 12 -31 21 -33
11 -46 -16 -21 -35 32 -33 8 5 -60 27 -49 35 -73 31 -93 -6 -26 -6 -26 10 -7
9 11 25 40 36 65 10 24 22 47 26 50 8 6 28 74 47 160 8 35 17 54 25 52 8 -2
11 5 8 23 -5 22 -3 23 10 13 13 -11 15 -10 10 10 -6 20 -4 21 9 10 15 -12 16
-9 10 20 -4 18 -3 31 2 28 11 -7 24 41 16 55 -4 5 -3 18 0 30 5 15 10 17 20 9
11 -9 11 -3 4 31 -7 31 -7 44 2 50 7 4 9 17 5 34 -5 19 -4 25 5 19 9 -5 10 -2
5 12 -4 10 -10 41 -12 68 -5 39 -3 47 8 40 8 -5 7 2 -4 19 -10 15 -26 39 -35
54 l-18 26 30 -19 c33 -21 31 -16 -18 53 -35 50 -31 61 12 38 42 -21 39 -9
-11 44 l-43 44 38 -23 38 -22 -7 28 c-17 76 -54 117 -160 180 -10 7 -16 15
-12 19 4 4 43 -15 88 -44 44 -28 80 -46 80 -41 0 24 -89 98 -138 115 -29 11
-52 22 -52 26 0 4 -3 15 -6 24 -5 12 15 5 74 -24 45 -23 84 -41 87 -41 3 0 -8
20 -25 45 -34 50 -84 86 -143 105 -20 6 -42 20 -47 31 -6 10 -8 19 -4 19 6 0
75 -40 134 -79 27 -18 27 -18 -23 56 -31 47 -67 76 -123 99 -20 8 -34 17 -31
20 3 3 24 -4 47 -16 23 -12 44 -19 46 -17 5 4 -69 73 -102 95 -19 13 -19 13 1
6 51 -16 75 -22 75 -19 0 2 -26 22 -57 44 -64 43 -145 122 -105 102 23 -12 23
-12 7 13 -24 36 -80 76 -141 101 l-54 22 97 16 c62 10 105 12 120 6 37 -14 27
-20 -29 -18 -29 1 -69 1 -88 0 -35 -2 -35 -3 -10 -14 14 -6 27 -14 30 -18 3
-3 46 -12 95 -20 l90 -13 -44 -9 c-54 -11 -38 -27 26 -27 44 0 93 -14 93 -27
0 -5 -15 -13 -34 -19 -28 -9 -38 -7 -60 9 -44 32 -30 11 48 -70 126 -132 265
-320 269 -364 1 -13 7 -33 13 -44 19 -34 27 -78 13 -69 -12 7 -10 -9 7 -50 5
-14 4 -17 -4 -12 -18 11 -14 -5 13 -53 30 -52 31 -55 4 -41 -34 19 -33 3 2
-42 22 -27 28 -40 16 -35 -9 4 -25 10 -34 14 -22 9 37 -67 74 -97 31 -25 37
-21 23 14 -7 20 -7 25 2 20 8 -5 9 0 4 17 -11 34 -12 83 -3 90 4 3 3 19 -4 35
-17 42 -28 104 -18 104 4 0 26 -21 49 -47 22 -27 37 -39 33 -28 -6 18 -5 18
10 6 9 -7 17 -19 17 -26 0 -7 10 -25 22 -40 l21 -27 -31 16 c-18 9 -32 15 -32
13 0 -2 13 -29 30 -61 19 -39 24 -56 15 -52 -19 7 -19 4 6 -38 20 -34 20 -36
3 -36 -13 0 0 -19 46 -65 35 -35 65 -63 67 -61 2 1 -8 33 -22 70 -24 63 -24
66 -5 56 18 -10 19 -8 10 14 -5 14 -19 43 -30 66 -20 39 -16 52 8 28 9 -9 12
-9 12 3 0 17 -54 98 -79 119 -22 19 -66 90 -54 90 4 0 17 -7 27 -15 58 -44 18
23 -68 113 l-41 43 50 -21 c39 -16 54 -29 67 -58 l18 -37 -6 40 c-3 22 -24 78
-47 125 -23 47 -42 90 -42 95 0 6 -24 32 -54 60 -50 47 -52 50 -30 55 22 5 21
8 -17 25 -23 11 -47 28 -54 39 -11 17 -9 18 14 14 22 -4 24 -3 14 9 -6 8 -24
21 -40 29 -16 8 -26 18 -24 23 3 4 -7 14 -22 22 -15 7 -54 38 -87 69 -75 70
-126 107 -145 107 -8 1 -40 12 -70 27 -51 24 -53 26 -25 27 17 0 48 0 70 -1
47 -2 39 13 -15 28 l-35 10 31 1 c21 1 75 -25 180 -87 82 -48 162 -96 177
-107 16 -11 110 -141 209 -290 100 -148 188 -275 197 -282 9 -6 34 -22 55 -34
37 -21 39 -21 32 -3 -4 10 -9 25 -10 32 -1 6 -17 28 -36 47 -36 38 -36 41 5
25 26 -10 26 -10 -7 32 -42 54 -55 65 -98 79 -19 7 -40 19 -47 28 -23 30 -13
31 28 1 23 -16 57 -32 75 -36 19 -3 42 -16 50 -28 15 -20 16 -20 10 -1 -14 41
-92 168 -139 226 -26 33 -45 64 -42 69 3 4 -12 18 -32 31 -21 12 -51 34 -67
48 l-29 26 12 -25 c8 -17 -1 -11 -29 19 -26 29 -37 47 -30 51 14 9 -87 78
-175 119 -36 17 -65 33 -65 35 0 8 65 -11 98 -28 19 -10 36 -15 39 -13 6 7
-48 47 -121 91 -57 34 -64 36 -145 34 -47 0 -70 -3 -51 -5 19 -2 46 -6 60 -10
47 -12 -57 -21 -183 -15 -125 5 -145 18 -37 25 36 2 -56 3 -205 1 -148 -1
-277 -2 -285 -3 -8 0 -44 2 -80 5 -60 5 -67 4 -89 -20 -25 -26 -51 -34 -51
-16 0 5 12 16 28 24 25 14 15 15 -132 16 -157 0 -159 0 -182 -25 -29 -31 -61
-35 -42 -5 7 11 19 21 28 24 8 2 -10 4 -40 5 -50 1 -57 -2 -79 -29 -13 -16
-26 -28 -30 -25 -4 2 -15 -11 -24 -30 -9 -19 -23 -35 -32 -35 -34 0 -9 34 65
92 31 25 33 28 13 28 -12 0 -27 -9 -33 -20 -14 -26 -30 -26 -30 0 0 18 -6 20
-90 19 -76 -1 -90 -4 -90 -18 -1 -14 -2 -14 -13 1 -11 14 -35 17 -165 17 -123
1 -150 -2 -146 -13 6 -16 -20 -28 -42 -19 -15 6 -15 8 2 20 15 11 3 13 -87 13
-62 0 -109 -4 -116 -11 -8 -8 -13 -8 -17 0 -5 8 -97 11 -289 11 l-282 0 -96
-97z m451 77 c0 -5 -4 -10 -9 -10 -6 0 -13 5 -16 10 -3 6 1 10 9 10 9 0 16 -4
16 -10z m1618 -6 c33 -23 27 -36 -14 -29 -48 7 -57 14 -43 31 15 18 29 18 57
-2z m-648 -14 c7 -12 7 -20 1 -20 -5 0 -18 -13 -28 -30 -9 -16 -24 -30 -31
-30 -12 0 -12 3 -2 15 7 8 9 15 4 15 -5 0 0 7 11 16 19 14 18 15 -14 12 -19
-2 -36 2 -38 8 -5 16 27 27 42 14 9 -8 14 -6 19 5 8 21 23 19 36 -5z m898 11
c23 -14 -33 -44 -58 -31 -11 6 -20 15 -20 20 0 18 55 26 78 11z m128 -6 c-10
-8 -24 -11 -29 -8 -6 4 -2 10 9 14 31 12 40 9 20 -6z m-2207 -7 c-2 -2 -17
-14 -34 -28 l-30 -25 24 28 c14 15 29 27 34 27 6 0 8 -1 6 -2z m291 -19 c44
-23 55 -35 42 -43 -5 -3 -18 4 -30 14 -12 11 -25 20 -29 20 -4 0 -17 7 -27 15
-29 22 -3 18 44 -6z m1481 1 l24 -19 -35 9 c-19 6 -36 10 -38 10 -2 0 0 5 3
10 9 15 20 12 46 -10z m-858 -4 c3 -8 3 -17 0 -20 -9 -9 -34 15 -27 25 8 13
21 11 27 -5z m1247 9 c0 -2 -18 -14 -40 -25 -45 -23 -55 -14 -12 12 26 17 52
23 52 13z m-575 -15 c-3 -5 -11 -10 -16 -10 -6 0 -7 5 -4 10 3 6 11 10 16 10
6 0 7 -4 4 -10z m-1479 -10 c24 -10 26 -12 12 -26 -11 -12 -20 -13 -42 -4 -23
9 -26 13 -16 25 15 18 12 18 46 5z m454 0 c0 -5 -7 -10 -15 -10 -8 0 -15 5
-15 10 0 6 7 10 15 10 8 0 15 -4 15 -10z m1091 -8 c-7 -2 -18 1 -23 6 -8 8 -4
9 13 5 13 -4 18 -8 10 -11z m679 8 c-8 -5 -19 -10 -25 -10 -5 0 -3 5 5 10 8 5
20 10 25 10 6 0 3 -5 -5 -10z m-925 -51 l-50 -52 64 46 c64 46 99 54 64 15
-18 -20 -18 -21 4 -9 12 6 25 16 28 21 10 16 28 12 21 -5 -4 -13 -2 -13 14 -5
10 5 21 6 24 2 2 -4 22 -9 43 -10 42 -3 183 -36 225 -53 17 -7 44 -38 72 -83
25 -40 64 -93 87 -120 34 -38 39 -50 28 -57 -9 -5 -10 -9 -2 -9 6 0 24 -5 39
-10 20 -8 24 -14 16 -22 -8 -8 -7 -15 6 -24 16 -12 16 -13 -3 -14 -18 0 -18
-1 4 -16 18 -13 22 -23 18 -44 -3 -15 -1 -32 4 -37 13 -13 -13 -119 -28 -116
-6 1 -8 -8 -6 -21 6 -31 -23 -100 -38 -90 -8 5 -9 3 -5 -5 9 -14 -12 -71 -25
-71 -5 0 -9 -9 -9 -19 0 -24 -16 -36 -23 -19 -3 7 -6 -4 -6 -24 -1 -21 -5 -38
-9 -38 -4 0 -14 -20 -21 -45 -8 -26 -17 -42 -24 -38 -6 4 -8 -2 -5 -15 4 -12
2 -20 -3 -16 -5 3 -9 -7 -9 -23 0 -22 -2 -25 -10 -13 -8 12 -10 9 -10 -13 0
-16 -4 -26 -10 -22 -6 4 -7 -6 -3 -26 4 -21 3 -30 -4 -26 -16 10 -22 -27 -16
-90 4 -38 3 -54 -4 -50 -16 10 -25 -72 -13 -113 5 -19 10 -66 10 -105 0 -52 7
-85 26 -130 45 -105 49 -137 17 -117 -12 8 -43 116 -43 151 0 12 -4 21 -10 21
-5 0 -10 8 -11 18 -1 11 -4 9 -9 -8 -4 -14 -6 -53 -3 -87 3 -35 4 -63 1 -63
-3 0 -31 9 -64 19 -32 11 -79 25 -104 31 -27 7 -60 26 -83 48 l-38 37 7 -29 7
-30 -32 35 -31 34 10 -29 c14 -39 7 -43 -19 -10 -12 16 -29 29 -38 30 -8 2
-28 15 -44 30 -33 32 -38 22 -9 -16 31 -39 23 -47 -12 -13 -34 32 -241 120
-384 162 -43 13 -82 32 -98 47 -14 15 -26 22 -26 15 0 -15 -16 -14 -33 4 -9 9
-17 11 -19 4 -3 -10 -78 110 -78 126 0 4 8 1 17 -6 9 -8 -7 19 -35 60 -29 41
-52 80 -52 88 0 7 -4 13 -10 13 -5 0 -26 30 -46 66 -32 57 -35 69 -25 90 8 19
8 23 0 18 -25 -15 16 200 62 321 25 66 54 99 123 135 l45 25 88 -19 c48 -11
102 -21 118 -22 17 -2 41 -6 54 -10 17 -5 22 -4 17 4 -5 8 2 12 18 12 14 0 26
-5 26 -11 0 -5 5 -7 10 -4 6 3 10 20 10 38 0 28 1 29 13 12 12 -16 15 -4 20
91 5 103 7 112 49 193 23 46 54 91 67 100 24 15 24 15 11 -9 -7 -14 -23 -41
-34 -60 -30 -49 -61 -121 -41 -95 75 101 164 206 180 214 46 23 46 8 0 -40z
m-880 31 c3 -5 -3 -15 -15 -22 -11 -7 -20 -20 -20 -29 0 -13 -13 -19 -52 -24
-29 -4 -70 -14 -92 -21 -52 -19 -53 -18 -25 12 15 16 31 24 45 21 15 -2 21 0
17 9 -2 7 5 15 16 19 12 3 21 11 21 16 0 5 11 7 25 3 16 -4 30 0 40 10 19 18
31 20 40 6z m157 -5 c0 -5 -5 -11 -11 -13 -6 -2 -11 4 -11 13 0 9 5 15 11 13
6 -2 11 -8 11 -13z m178 5 c8 -5 12 -11 9 -14 -7 -8 -49 5 -49 15 0 12 21 11
40 -1z m-930 -3 c0 -2 -12 -14 -27 -28 l-28 -24 24 28 c23 25 31 32 31 24z
m273 -14 c4 -3 2 -12 -4 -19 -13 -16 -54 0 -44 17 7 10 38 12 48 2z m2055 -4
c-2 -6 -7 -10 -11 -10 -4 1 -14 1 -23 1 -8 0 -12 5 -9 10 8 13 48 13 43 -1z
m-1993 -18 c6 -10 -33 -36 -41 -28 -3 2 -2 12 2 21 7 18 29 22 39 7z m1615 -6
c11 -13 10 -14 -4 -9 -9 3 -16 10 -16 15 0 13 6 11 20 -6z m-1090 -5 c0 -5 -7
-10 -15 -10 -8 0 -15 5 -15 10 0 6 7 10 15 10 8 0 15 -4 15 -10z m1413 -17
c-7 -2 -19 -2 -25 0 -7 3 -2 5 12 5 14 0 19 -2 13 -5z m367 -20 c19 -9 30 -17
24 -19 -12 -5 -104 32 -104 41 0 7 31 -1 80 -22z m-1793 11 c-3 -3 -12 -4 -19
-1 -8 3 -5 6 6 6 11 1 17 -2 13 -5z m243 -20 c0 -8 -5 -12 -10 -9 -6 4 -8 11
-5 16 9 14 15 11 15 -7z m1172 -62 l33 -35 -43 24 c-23 13 -57 39 -75 58 l-32
34 42 -23 c23 -13 57 -39 75 -58z m-1657 38 c-10 -11 -25 -20 -33 -20 -12 0
-12 4 3 20 10 11 25 20 33 20 12 0 12 -4 -3 -20z m1695 10 c8 -5 11 -10 5 -10
-5 0 -17 5 -25 10 -8 5 -10 10 -5 10 6 0 17 -5 25 -10z m-2305 -20 c3 -5 -1
-10 -10 -10 -9 0 -13 5 -10 10 3 6 8 10 10 10 2 0 7 -4 10 -10z m1221 -27
c-11 -11 -19 6 -11 24 8 17 8 17 12 0 3 -10 2 -21 -1 -24z m-1108 19 c10 -7 8
-42 -2 -42 -19 0 -95 34 -90 41 7 11 74 12 92 1z m912 4 c0 -11 -19 -15 -25
-6 -3 5 1 10 9 10 9 0 16 -2 16 -4z m1044 -21 c13 -14 27 -25 32 -25 6 0 18
-13 27 -30 17 -29 17 -30 0 -30 -10 0 -37 24 -60 55 -43 55 -42 77 1 30z
m-1820 -10 c-6 -16 -72 -60 -79 -53 -4 4 72 66 82 68 1 0 0 -7 -3 -15z m491 4
c4 -6 5 -12 2 -15 -7 -7 -37 7 -37 17 0 13 27 11 35 -2z m-875 -19 c-6 -11
-16 -20 -22 -20 -6 0 -3 9 7 20 10 11 20 20 22 20 2 0 -1 -9 -7 -20z m685 11
c-10 -18 -85 -73 -85 -63 0 15 62 72 77 72 8 0 12 -4 8 -9z m-606 -10 c9 -6 6
-8 -13 -8 -14 0 -23 3 -20 8 7 11 15 11 33 0z m676 -11 c-3 -5 -11 -10 -16
-10 -6 0 -7 5 -4 10 3 6 11 10 16 10 6 0 7 -4 4 -10z m298 -21 c-7 -7 -19 -9
-29 -5 -16 6 -16 8 2 21 22 16 45 2 27 -16z m293 9 c-3 -13 -9 -54 -13 -93 -4
-47 -9 -63 -14 -50 -13 35 4 165 22 165 7 0 9 -9 5 -22z m1539 12 c3 -5 2 -10
-4 -10 -5 0 -13 5 -16 10 -3 6 -2 10 4 10 5 0 13 -4 16 -10z m-2681 -6 c9 -3
14 -10 11 -14 -5 -7 -84 6 -94 16 -7 6 65 5 83 -2z m741 -4 c3 -5 2 -10 -4
-10 -5 0 -13 5 -16 10 -3 6 -2 10 4 10 5 0 13 -4 16 -10z m260 -20 c3 -5 1
-10 -4 -10 -6 0 -11 5 -11 10 0 6 2 10 4 10 3 0 8 -4 11 -10z m-505 -14 c0 -2
-8 -10 -17 -17 -16 -13 -17 -12 -4 4 13 16 21 21 21 13z m1885 -14 c-3 -3 -11
0 -18 7 -9 10 -8 11 6 5 10 -3 15 -9 12 -12z m275 3 c7 -8 9 -15 5 -15 -4 0 4
-11 19 -25 25 -23 35 -55 17 -55 -9 0 -131 98 -131 106 0 12 79 2 90 -11z
m-2820 -4 c0 -9 -24 -21 -42 -21 -6 0 -6 6 2 15 14 16 40 20 40 6z m124 -12
c-6 -10 -45 -12 -68 -3 -28 11 -9 20 33 16 23 -2 38 -8 35 -13z m83 -2 c-3 -8
-20 -25 -39 -38 l-33 -24 34 43 c32 41 50 50 38 19z m3011 -31 c21 -18 21 -21
6 -26 -12 -5 -28 5 -51 31 -18 20 -33 40 -33 44 0 9 46 -20 78 -49z m-3304 29
c-6 -15 -35 -35 -50 -35 -4 0 3 11 16 25 26 28 42 33 34 10z m827 5 c5 0 9 -7
9 -15 0 -8 -6 -12 -15 -10 -8 3 -22 7 -31 10 -8 3 -12 10 -9 16 4 6 14 8 22 5
8 -3 19 -6 24 -6z m195 -18 c-4 -3 -14 2 -24 12 -16 18 -16 18 6 6 13 -6 21
-14 18 -18z m164 14 c0 -3 -4 -8 -10 -11 -5 -3 -10 -1 -10 4 0 6 5 11 10 11 6
0 10 -2 10 -4z m118 -19 c4 -19 -6 -21 -27 -8 -16 10 -5 34 12 28 7 -2 13 -11
15 -20z m-617 -30 c-16 -16 -26 0 -10 19 9 11 15 12 17 4 2 -6 -1 -17 -7 -23z
m228 2 c-16 -10 -39 0 -39 17 0 11 5 11 25 2 17 -8 22 -14 14 -19z m-745 6
c-4 -8 -14 -15 -23 -15 -9 0 -26 -3 -39 -6 -17 -5 -21 -3 -16 9 5 15 25 22 66
26 12 1 15 -4 12 -14z m480 0 c-4 -8 -11 -15 -16 -15 -6 0 -5 6 2 15 7 8 14
15 16 15 2 0 1 -7 -2 -15z m2384 3 c16 -16 15 -28 -1 -28 -7 0 -18 9 -25 20
-10 16 -10 20 1 20 7 0 18 -5 25 -12z m-2233 -18 c40 -15 29 -21 -27 -14 -61
8 -63 9 -53 24 7 12 31 9 80 -10z m1570 -4 l30 -24 -28 5 c-15 3 -32 14 -38
24 -13 26 0 24 36 -5z m-2345 -5 c-12 -23 -29 -35 -37 -27 -7 7 26 46 39 46 5
0 4 -9 -2 -19z m1070 4 c-10 -12 -9 -15 4 -15 10 0 14 -4 11 -10 -9 -15 -18
-12 -38 15 -18 25 -18 25 9 25 22 0 25 -2 14 -15z m1620 5 c8 -5 11 -10 5 -10
-5 0 -17 5 -25 10 -8 5 -10 10 -5 10 6 0 17 -5 25 -10z m-2763 -37 c-6 -16
-17 -31 -23 -35 -6 -4 -9 -18 -7 -31 3 -17 -4 -33 -26 -55 -17 -17 -31 -33
-31 -36 0 -19 -65 -101 -106 -134 -54 -43 -112 -103 -138 -142 -26 -40 -17 -9
15 50 17 30 28 46 25 35 -3 -11 35 22 84 74 50 51 90 97 90 102 0 15 -40 -10
-92 -59 -94 -87 -46 -27 67 86 64 63 114 117 111 119 -2 3 -15 -1 -28 -7 -13
-7 -7 3 17 24 48 43 58 45 42 9z m671 10 c-2 -10 -11 -19 -21 -21 -16 -3 -17
-1 -7 17 13 25 33 28 28 4z m377 7 c3 -5 1 -10 -4 -10 -6 0 -11 5 -11 10 0 6
2 10 4 10 3 0 8 -4 11 -10z m330 -11 c4 -11 4 -23 1 -26 -8 -9 -36 17 -36 33
0 22 28 16 35 -7z m-665 0 c0 -5 4 -8 9 -4 12 7 102 -14 116 -26 12 -12 -1
-11 -66 2 -30 6 -64 11 -76 10 -16 0 -21 4 -17 14 7 17 34 20 34 4z m-562 -28
c-11 -19 -47 -35 -56 -26 -9 8 19 34 41 38 12 2 23 5 25 6 1 0 -3 -8 -10 -18z
m822 9 c0 -5 -7 -7 -15 -4 -8 4 -15 8 -15 10 0 2 7 4 15 4 8 0 15 -4 15 -10z
m450 -46 c0 -21 -4 -33 -10 -29 -5 3 -10 22 -10 41 0 21 4 33 10 29 6 -3 10
-22 10 -41z m1725 26 c10 -11 16 -22 14 -25 -7 -6 -49 24 -49 36 0 15 16 10
35 -11z m-2505 -10 c12 -8 9 -10 -12 -10 -16 0 -28 5 -28 10 0 13 20 13 40 0z
m262 -2 c-9 -9 -15 -9 -24 0 -9 9 -7 12 12 12 19 0 21 -3 12 -12z m2511 -9 c8
-11 30 -31 48 -45 l33 -24 -27 0 c-20 0 -33 11 -57 45 -17 25 -26 45 -21 45 5
0 16 -9 24 -21z m-3518 -9 c-10 -11 -23 -20 -29 -20 -6 0 0 9 14 20 32 25 38
25 15 0z m125 0 c-6 -11 -20 -24 -31 -30 -20 -11 -20 -11 -4 19 8 17 22 31 31
31 12 0 12 -4 4 -20z m1365 10 c3 -5 2 -10 -4 -10 -5 0 -13 5 -16 10 -3 6 -2
10 4 10 5 0 13 -4 16 -10z m-1184 -97 c-41 -83 -91 -153 -91 -129 0 14 44 92
71 127 33 42 38 58 12 38 -10 -7 -2 4 16 24 19 20 36 37 38 37 2 0 -19 -44
-46 -97z m2244 79 c-3 -3 -11 0 -18 7 -9 10 -8 11 6 5 10 -3 15 -9 12 -12z
m-1820 -28 c-68 -19 -81 -18 -65 1 8 10 29 15 64 14 l51 -1 -50 -14z m1855
-35 c0 -4 -9 -5 -20 -2 -11 3 -20 12 -20 19 0 12 4 12 20 2 11 -7 20 -16 20
-19z m760 -20 c35 -44 32 -48 -13 -17 -53 36 -75 71 -38 61 11 -3 33 -22 51
-44z m-2364 19 c-9 -13 -26 -42 -38 -65 -23 -44 -48 -57 -48 -24 0 10 9 30 21
45 11 14 17 26 13 26 -4 0 3 9 16 20 13 11 30 20 38 20 12 0 12 -3 -2 -22z
m-838 -42 c-46 -59 -58 -64 -38 -16 7 17 15 29 17 26 2 -2 15 7 28 20 40 40
37 27 -7 -30z m286 42 c-41 -68 -64 -100 -64 -89 0 13 57 101 66 101 3 0 2 -6
-2 -12z m-385 -50 c-17 -23 -29 -35 -25 -25 3 10 6 23 6 28 0 12 40 52 47 46
2 -3 -10 -25 -28 -49z m661 33 c-30 -10 -72 -26 -92 -35 l-38 -16 11 24 c9 19
23 26 68 34 90 15 111 12 51 -7z m2564 -37 c3 -8 2 -12 -4 -9 -6 3 -10 10 -10
16 0 14 7 11 14 -7z m-2598 -19 c-19 -14 -18 -15 13 -15 27 0 31 -3 22 -14 -6
-7 -30 -16 -52 -20 -23 -4 -55 -14 -73 -22 l-31 -16 28 29 c38 40 34 49 -10
22 l-38 -23 16 24 c11 17 32 28 70 36 74 15 77 15 55 -1z m-621 -86 c-49 -70
-57 -64 -18 15 32 66 38 74 41 51 2 -17 -6 -41 -23 -66z m2580 57 c22 -19 37
-37 33 -41 -7 -8 -88 53 -88 67 0 15 15 8 55 -26z m745 4 c34 -18 60 -45 60
-65 0 -3 -21 10 -46 30 -26 19 -51 35 -55 35 -5 0 -9 5 -9 10 0 14 5 13 50
-10z m-3251 -51 c-38 -65 -79 -122 -85 -116 -6 6 64 128 88 154 33 35 32 21
-3 -38z m771 7 c0 -3 -4 -8 -10 -11 -5 -3 -10 -1 -10 4 0 6 5 11 10 11 6 0 10
-2 10 -4z m1650 -16 c0 -11 -4 -20 -10 -20 -5 0 -10 9 -10 20 0 11 5 20 10 20
6 0 10 -9 10 -20z m-2401 -87 c-60 -119 -119 -207 -132 -194 -14 14 154 291
177 291 2 0 -19 -43 -45 -97z m516 88 c-18 -15 -105 -63 -105 -57 0 8 91 66
104 66 6 0 6 -3 1 -9z m2650 -11 c3 -5 1 -10 -4 -10 -6 0 -11 5 -11 10 0 6 2
10 4 10 3 0 8 -4 11 -10z m-701 -45 c16 -25 14 -65 -3 -65 -11 0 -31 46 -31
70 0 27 14 25 34 -5z m-64 -55 c0 -11 -5 -9 -20 6 -14 13 -18 27 -14 38 6 17
8 16 20 -5 7 -13 13 -31 14 -39z m-1678 28 c-7 -7 -12 -8 -12 -2 0 6 3 14 7
17 3 4 9 5 12 2 2 -3 -1 -11 -7 -17z m80 -45 c-4 -52 -23 -95 -36 -82 -8 7 29
139 39 139 1 0 0 -26 -3 -57z m-967 -4 c-9 -17 -19 -28 -22 -25 -6 6 23 56 32
56 3 0 -2 -14 -10 -31z m851 -31 l-14 -43 -11 29 c-10 25 -9 32 11 53 28 30
33 17 14 -39z m1674 32 c0 -5 -2 -10 -4 -10 -3 0 -8 5 -11 10 -3 6 -1 10 4 10
6 0 11 -4 11 -10z m590 -32 c0 -4 -4 -8 -10 -8 -5 0 -10 4 -10 9 0 5 -3 18 -6
28 -5 16 -4 16 10 -1 9 -11 16 -23 16 -28z m-3277 -23 c-21 -39 -63 -78 -63
-60 0 6 81 105 86 105 1 0 -9 -20 -23 -45z m347 25 c-6 -11 -13 -20 -16 -20
-2 0 0 9 6 20 6 11 13 20 16 20 2 0 0 -9 -6 -20z m367 -25 c-27 -40 -67 -73
-67 -55 0 13 81 102 87 96 3 -2 -6 -21 -20 -41z m2053 14 c0 -5 -4 -9 -10 -9
-5 0 -10 7 -10 16 0 8 5 12 10 9 6 -3 10 -10 10 -16z m-100 -15 c0 -8 -4 -14
-10 -14 -5 0 -10 9 -10 21 0 11 5 17 10 14 6 -3 10 -13 10 -21z m-1544 -69
c-3 -54 -13 -67 -22 -30 -6 24 8 75 20 75 3 0 4 -20 2 -45z m-696 20 c9 5 -27
-85 -38 -95 -3 -3 -2 17 2 43 6 53 17 79 24 59 2 -7 8 -10 12 -7z m-125 -80
c-40 -73 -60 -83 -24 -13 30 58 51 90 57 84 2 -3 -12 -35 -33 -71z m743 35
c-15 -24 -19 -21 -11 8 3 12 9 19 14 16 5 -3 3 -14 -3 -24z m-1144 -12 c-16
-18 -32 -37 -36 -42 -5 -6 -8 -5 -8 1 0 11 59 73 69 73 3 0 -8 -15 -25 -32z
m273 -30 c-3 -8 -6 -5 -6 6 -1 11 2 17 5 13 3 -3 4 -12 1 -19z m906 -92 c-3
-30 -10 -53 -14 -50 -13 8 -11 -3 7 -37 23 -46 11 -45 -20 1 -26 40 -34 70
-17 70 5 0 9 12 9 28 0 15 5 41 12 57 12 29 12 29 20 8 5 -12 6 -46 3 -77z
m1507 59 c0 -5 -5 -3 -10 5 -5 8 -10 20 -10 25 0 6 5 3 10 -5 5 -8 10 -19 10
-25z m-1435 -22 c16 -37 13 -75 -5 -57 -11 11 -25 94 -16 94 3 0 13 -17 21
-37z m-1255 14 c0 -2 -12 -14 -27 -28 l-28 -24 24 28 c23 25 31 32 31 24z
m731 -40 c-13 -13 -15 1 -4 30 7 17 8 17 11 -1 2 -10 -1 -23 -7 -29z m-316 -9
c-10 -46 -35 -84 -45 -68 -7 11 35 100 47 100 2 0 2 -15 -2 -32z m-195 4 c0
-5 -7 -17 -15 -28 -14 -18 -14 -17 -4 9 12 27 19 34 19 19z m3169 -35 c0 -21
-1 -21 -9 -2 -12 28 -12 37 0 30 6 -3 10 -16 9 -28z m-2154 -57 c-4 -17 -11
-28 -16 -24 -10 6 -12 45 -3 69 6 16 8 16 16 1 5 -9 6 -30 3 -46z m-581 -11
c-25 -28 -28 -17 -7 26 16 33 18 35 21 16 2 -13 -4 -31 -14 -42z m-24 47 c0
-2 -8 -10 -17 -17 -16 -13 -17 -12 -4 4 13 16 21 21 21 13z m-676 -38 c-4 -13
-15 -34 -25 -47 -18 -22 -19 -22 -19 -4 0 19 35 73 46 73 3 0 2 -10 -2 -22z
m1435 -92 l0 -31 -19 40 c-24 53 -24 62 0 40 12 -11 20 -30 19 -49z m-1121 -3
c-24 -45 -48 -67 -48 -43 0 16 61 103 67 96 3 -3 -6 -27 -19 -53z m462 53 c0
-3 -4 -8 -10 -11 -5 -3 -10 -1 -10 4 0 6 5 11 10 11 6 0 10 -2 10 -4z m1951
-66 c-9 -23 -10 -23 -10 11 -1 20 2 39 7 43 11 12 14 -27 3 -54z m-2537 -9
c-4 -23 -15 -52 -25 -64 l-18 -22 -1 41 c0 27 7 50 21 68 27 34 31 29 23 -23z
m1158 24 c3 -13 1 -22 -3 -19 -9 5 -13 44 -5 44 2 0 6 -11 8 -25z m-923 -35
c0 -10 -3 -8 -9 5 -12 27 -12 43 0 25 5 -8 9 -22 9 -30z m367 -46 c-4 -9 -9
-15 -11 -12 -3 3 -3 13 1 22 4 9 9 15 11 12 3 -3 3 -13 -1 -22z m1924 -2 c0
-15 -2 -15 -10 -2 -13 20 -13 33 0 25 6 -3 10 -14 10 -23z m-1309 -54 c18 -34
2 -31 -40 7 -52 47 -56 78 -6 39 20 -15 41 -36 46 -46z m-1174 5 c-3 -10 -5
-4 -5 12 0 17 2 24 5 18 2 -7 2 -21 0 -30z m2473 -21 c-1 -32 -3 -42 -9 -32
-11 19 -10 91 1 84 4 -3 8 -26 8 -52z m791 15 c-13 -13 -15 1 -4 30 7 17 8 17
11 -1 2 -10 -1 -23 -7 -29z m-3161 14 c0 -5 -9 -19 -21 -32 l-20 -24 17 33
c19 33 24 38 24 23z m89 -34 c1 -5 -3 -5 -9 -2 -5 3 -10 16 -9 28 0 21 1 21 9
2 5 -11 9 -24 9 -28z m28 1 c-3 -7 -5 -2 -5 12 0 14 2 19 5 13 2 -7 2 -19 0
-25z m1173 -60 c17 -33 30 -63 30 -67 0 -7 -55 74 -76 111 -13 25 -13 27 1 22
9 -4 29 -33 45 -66z m-782 21 c-3 -8 -7 -3 -11 10 -4 17 -3 21 5 13 5 -5 8
-16 6 -23z m-503 -112 c-18 -32 -30 -23 -33 25 -2 31 3 58 15 80 l18 33 5 -60
c3 -34 1 -68 -5 -78z m1115 123 c0 -5 -2 -10 -4 -10 -3 0 -8 5 -11 10 -3 6 -1
10 4 10 6 0 11 -4 11 -10z m-1283 -57 c-3 -10 -5 -4 -5 12 0 17 2 24 5 18 2
-7 2 -21 0 -30z m655 5 c-7 -7 -12 -8 -12 -2 0 6 3 14 7 17 3 4 9 5 12 2 2 -3
-1 -11 -7 -17z m-572 -17 c0 -6 -4 -13 -10 -16 -5 -3 -10 1 -10 9 0 9 5 16 10
16 6 0 10 -4 10 -9z m639 -46 c0 -5 -6 -1 -14 9 -8 11 -15 27 -15 35 1 17 29
-26 29 -44z m-762 -37 c-2 -13 -4 -3 -4 22 0 25 2 35 4 23 2 -13 2 -33 0 -45z
m271 -78 l0 -35 -14 34 c-13 28 -15 117 -3 141 3 8 17 -101 17 -140z m1407
112 c-3 -3 -11 0 -18 7 -9 10 -8 11 6 5 10 -3 15 -9 12 -12z m-809 -47 c20
-48 17 -57 -6 -15 -20 36 -24 50 -14 50 3 0 12 -16 20 -35z m1048 19 c21 -21
39 -54 29 -54 -4 0 -26 16 -48 35 -35 30 -37 34 -18 35 12 0 29 -7 37 -16z
m-1784 -47 c0 -18 -4 -38 -9 -46 -12 -18 -25 40 -16 69 9 29 25 15 25 -23z
m105 -94 c-9 -24 -23 -13 -30 25 -4 20 -12 43 -18 51 -9 12 -9 13 1 7 8 -5 12
0 12 17 0 13 3 27 7 31 9 9 35 -113 28 -131z m530 97 c0 -3 12 -19 28 -35 15
-16 27 -34 27 -40 -1 -5 -15 7 -32 28 -26 32 -33 36 -46 25 -13 -11 -15 -10
-9 5 4 10 7 28 7 40 1 22 1 22 13 2 6 -11 12 -22 12 -25z m-612 -136 c4 -43 2
-55 -19 -80 l-23 -29 -1 53 c0 33 7 65 17 83 9 15 18 27 19 26 1 -1 4 -25 7
-53z m-124 -48 c1 -42 -5 -29 -12 24 -4 30 -3 38 3 25 5 -11 9 -33 9 -49z
m952 47 c13 -16 12 -17 -3 -4 -10 7 -18 15 -18 17 0 8 8 3 21 -13z m-726 -32
c-3 -12 -10 -21 -15 -21 -13 0 -19 37 -7 49 16 16 30 -3 22 -28z m2170 8 c15
-14 -7 -10 -35 7 l-25 15 25 -7 c14 -3 29 -10 35 -15z m71 -24 c3 -31 -14 -33
-25 -2 -5 14 -4 25 2 29 15 9 20 3 23 -27z m-2137 -96 c17 -53 31 -102 30
-110 -1 -25 -68 155 -68 185 -1 42 4 32 38 -75z m-75 19 c4 -21 5 -38 2 -38
-11 0 -35 71 -29 86 8 21 18 3 27 -48z m842 25 c-7 -7 -26 7 -26 19 0 6 6 6
15 -2 9 -7 13 -15 11 -17z m2081 5 c-3 -8 -6 -5 -6 6 -1 11 2 17 5 13 3 -3 4
-12 1 -19z m-659 -26 c5 -30 -31 -47 -68 -32 -16 7 -31 18 -34 25 -4 11 3 10
32 -2 l37 -15 -20 21 c-16 18 -17 24 -5 31 20 12 55 -4 58 -28z m-2451 -4 c-3
-8 -6 -5 -6 6 -1 11 2 17 5 13 3 -3 4 -12 1 -19z m-45 -67 c-7 -22 -9 -18 -9
23 0 39 2 44 9 26 5 -13 5 -35 0 -49z m111 38 c6 -24 -1 -49 -14 -49 -4 0 -6
-6 -3 -13 2 -7 -2 -21 -9 -31 -12 -16 -14 -15 -24 17 -9 31 -8 40 11 66 25 36
32 38 39 10z m1042 11 c3 -5 1 -10 -4 -10 -6 0 -11 5 -11 10 0 6 2 10 4 10 3
0 8 -4 11 -10z m-971 -85 c3 -8 1 -15 -4 -15 -6 0 -10 7 -10 15 0 8 2 15 4 15
2 0 6 -7 10 -15z m1091 5 c3 -6 -1 -7 -9 -4 -18 7 -21 14 -7 14 6 0 13 -4 16
-10z m-1131 -54 c7 -28 -2 -58 -15 -50 -12 7 -12 74 0 74 5 0 12 -11 15 -24z
m-420 -68 l-6 -21 -13 22 c-6 13 -10 35 -7 49 l5 25 14 -27 c8 -15 11 -36 7
-48z m486 24 c0 -15 -2 -15 -10 -2 -13 20 -13 33 0 25 6 -3 10 -14 10 -23z
m33 -52 c3 -11 1 -18 -4 -14 -5 3 -9 12 -9 20 0 20 7 17 13 -6z m1267 -11 c0
-6 -4 -7 -10 -4 -5 3 -10 11 -10 16 0 6 5 7 10 4 6 -3 10 -11 10 -16z m-1332
-69 l-3 -35 -14 42 c-16 48 -6 97 10 53 6 -13 9 -40 7 -60z m-431 38 c-3 -8
-6 -5 -6 6 -1 11 2 17 5 13 3 -3 4 -12 1 -19z m1961 -27 c-6 -2 -17 4 -25 15
-21 29 -15 34 12 11 13 -12 19 -24 13 -26z m392 -21 c0 -5 -2 -10 -4 -10 -3 0
-8 5 -11 10 -3 6 -1 10 4 10 6 0 11 -4 11 -10z m-1740 -213 c0 -5 -4 -5 -10
-2 -5 3 -10 14 -10 23 0 15 2 15 10 2 5 -8 10 -19 10 -23z m-566 -86 c-6 -6
-24 19 -24 34 1 6 7 1 15 -9 8 -11 12 -22 9 -25z m48 -79 c19 -48 25 -103 10
-86 -19 20 -53 117 -47 131 7 21 16 11 37 -45z m772 2 c3 -8 2 -12 -4 -9 -6 3
-10 10 -10 16 0 14 7 11 14 -7z m-143 -11 c13 -16 12 -17 -3 -4 -10 7 -18 15
-18 17 0 8 8 3 21 -13z m-71 -42 c-1 -13 -4 -12 -15 3 -8 11 -15 27 -15 35 1
13 4 12 15 -3 8 -11 15 -27 15 -35z m276 -16 c18 -25 24 -39 17 -46 -7 -7 -17
1 -32 26 -36 62 -27 74 15 20z m103 -70 c0 -5 -11 4 -24 20 -14 17 -25 35 -25
40 0 6 11 -3 25 -20 13 -16 24 -34 24 -40z m-880 -12 c6 -20 9 -39 6 -41 -7
-7 -36 58 -30 68 10 16 14 12 24 -27z m101 -29 c0 -8 -4 -12 -10 -9 -5 3 -10
13 -10 21 0 8 5 12 10 9 6 -3 10 -13 10 -21z m755 -15 c16 -30 16 -30 -4 -19
-12 6 -21 20 -21 30 0 28 7 25 25 -11z m-808 -42 c-6 -19 -22 -6 -25 20 -2 27
-2 27 13 8 8 -10 14 -23 12 -28z m923 -29 c0 -9 3 -25 6 -35 3 -10 -10 6 -30
36 -19 30 -33 58 -29 64 7 12 52 -43 53 -65z m-870 22 c0 -13 -1 -13 -10 0 -5
8 -10 22 -10 30 0 13 1 13 10 0 5 -8 10 -22 10 -30z m1058 -15 c-3 -3 -9 2
-12 12 -6 14 -5 15 5 6 7 -7 10 -15 7 -18z m47 -93 c9 -47 -29 -16 -40 33 l-7
30 21 -20 c12 -12 23 -31 26 -43z m-146 -28 c38 -52 37 -63 -1 -31 -21 18 -48
77 -35 77 2 0 18 -21 36 -46z m338 21 c9 -25 -2 -27 -28 -6 l-24 20 23 1 c12
0 25 -7 29 -15z m-583 -21 c8 -21 -7 -17 -21 6 -11 16 -10 18 1 14 8 -3 17
-12 20 -20z m180 -31 c3 -7 1 -13 -4 -13 -11 0 -40 29 -40 41 0 12 38 -12 44
-28z"/>
<path d="M2350 2431 c0 -5 28 -14 63 -20 97 -16 167 -23 167 -16 0 3 -19 15
-42 25 -45 20 -188 29 -188 11z"/>
<path d="M2405 2371 c-17 -7 -14 -10 22 -20 50 -14 121 -79 96 -88 -11 -5 -4
-12 28 -29 52 -27 71 -30 63 -9 -4 8 -1 15 6 15 18 0 -16 38 -55 61 -22 14
-25 19 -12 19 28 0 10 20 -37 41 -43 20 -78 23 -111 10z"/>
<path d="M2590 2171 c0 -5 7 -17 16 -26 19 -19 40 -6 31 19 -7 17 -47 22 -47
7z"/>
<path d="M4305 3082 c39 -37 100 -95 137 -129 45 -42 100 -112 168 -213 56
-84 103 -159 105 -168 2 -10 9 -30 15 -47 7 -16 34 -113 60 -215 28 -108 49
-173 50 -155 2 21 6 11 16 -35 26 -121 14 -383 -25 -568 -16 -76 -32 -123 -74
-222 -5 -14 -11 -29 -12 -35 -16 -69 -72 -196 -99 -225 -54 -57 -116 -157
-156 -251 -37 -86 -99 -169 -127 -169 -7 0 -13 -4 -13 -10 0 -11 -120 -110
-134 -110 -6 0 5 15 23 34 l33 35 -26 -3 c-14 -2 -31 -8 -38 -13 -7 -6 -33
-14 -58 -18 -25 -4 -65 -16 -90 -27 -34 -16 -63 -20 -116 -19 -51 2 -86 -4
-125 -18 -30 -12 -62 -21 -71 -21 -9 0 -30 -11 -46 -25 -44 -37 -63 -30 -22 7
21 20 27 29 15 24 -11 -4 -45 -12 -75 -18 -121 -22 -224 -110 -255 -218 -7
-24 -6 -23 15 5 39 51 43 52 35 16 -7 -35 -62 -119 -101 -157 -26 -25 -54 -37
-54 -24 0 13 -118 1 -152 -17 -27 -13 -48 -41 -48 -62 0 -7 40 -11 115 -11
103 0 115 2 115 18 1 16 1 16 14 0 11 -15 41 -17 293 -18 259 0 281 1 288 17
6 17 7 17 16 0 8 -14 25 -17 103 -17 92 0 94 1 98 25 3 13 1 22 -3 19 -15 -9
-10 13 5 25 12 10 18 7 31 -19 9 -17 13 -35 10 -40 -3 -6 43 -9 116 -9 l122 0
61 52 c61 53 63 50 17 -13 l-26 -35 25 18 c14 10 32 20 40 24 25 9 149 154
188 219 42 70 139 194 152 194 9 0 132 182 143 212 7 19 77 118 83 118 3 0 0
-9 -6 -19 -5 -11 -14 -32 -20 -48 -8 -24 -3 -20 39 24 27 28 61 73 76 100 35
64 75 182 77 232 1 23 5 38 11 34 6 -4 7 4 3 21 -5 22 0 39 23 75 33 51 61
144 61 205 0 21 11 63 25 91 13 29 27 71 31 94 4 22 9 41 13 41 4 0 5 19 3 41
-3 32 -1 40 8 34 10 -6 12 13 8 96 -5 97 -27 184 -73 294 l-8 20 23 -20 c27
-23 20 -7 -20 45 -15 19 -30 50 -34 69 -6 32 -5 33 11 19 32 -27 50 -34 30
-11 -27 31 -89 183 -74 183 7 0 3 8 -9 18 -22 18 -55 74 -141 241 -46 88 -51
103 -33 98 29 -7 25 -2 -15 22 -19 11 -41 35 -49 53 -57 129 -66 151 -63 154
8 8 117 -88 111 -98 -4 -6 -3 -8 4 -4 10 6 66 -39 155 -123 l37 -36 -27 -5
c-27 -6 -27 -6 12 -19 22 -7 45 -18 50 -24 7 -7 4 -8 -7 -4 -32 11 -19 -9 17
-29 26 -14 35 -24 31 -37 -2 -10 2 -21 10 -24 8 -3 14 -9 14 -14 0 -4 16 -36
36 -69 54 -93 36 -81 -31 20 -32 50 -60 88 -63 86 -2 -2 3 -15 12 -28 8 -12
38 -75 66 -138 52 -114 64 -163 110 -440 22 -129 54 -262 60 -245 5 14 8 14
16 3 16 -20 25 -48 15 -48 -5 0 -21 7 -37 15 -32 16 -43 12 -24 -10 11 -13 10
-14 -6 -8 -17 6 -18 5 -4 -11 8 -10 15 -25 16 -33 2 -8 15 -32 30 -54 32 -46
28 -58 -9 -28 -20 15 -25 16 -21 5 3 -9 1 -16 -5 -16 -6 0 -11 10 -12 23 0 19
-2 19 -11 -7 -8 -21 -6 -43 7 -92 12 -43 15 -79 10 -109 -9 -61 -23 -49 -17
15 2 27 2 50 -1 50 -7 0 -107 -304 -107 -323 0 -7 13 8 29 31 17 26 31 39 35
33 4 -6 2 -11 -3 -11 -6 0 -11 -14 -11 -31 0 -20 -4 -28 -11 -23 -8 5 -10 -1
-6 -19 4 -14 4 -40 0 -58 -6 -30 -7 -31 -20 -14 -11 16 -12 10 -6 -46 6 -59 5
-63 -11 -50 -14 12 -16 12 -10 -3 6 -16 -13 -76 -24 -76 -2 0 -10 7 -16 16 -9
12 -11 8 -9 -23 4 -46 -11 -77 -27 -53 -7 11 -10 6 -10 -22 0 -44 -9 -70 -21
-62 -5 3 -9 -28 -10 -68 l-1 -73 -16 45 -17 45 -3 -65 c-2 -36 -7 -69 -13 -74
-6 -6 -9 -4 -10 7 -2 30 -4 35 -11 43 -5 4 -8 1 -8 -6 0 -23 -383 -401 -392
-387 -5 8 -8 5 -8 -9 0 -25 -34 -59 -49 -49 -6 3 -11 -2 -11 -12 0 -9 -19 -37
-42 -61 -27 -27 -36 -40 -23 -36 17 7 18 6 7 -8 -12 -15 0 -17 142 -17 135 0
157 3 167 17 10 16 10 16 5 0 -5 -16 2 -18 58 -18 l64 0 49 57 c339 394 562
882 629 1378 16 115 21 410 10 505 -37 297 -91 487 -211 735 -65 134 -173 305
-260 413 l-50 62 -520 0 -520 0 70 -68z m39 29 c-2 -3 -12 3 -22 13 -16 17
-16 18 5 5 12 -7 20 -15 17 -18z m769 -2 c-10 -3 -24 -4 -32 -1 -11 4 -10 8 4
18 14 11 22 11 33 2 12 -10 11 -13 -5 -19z m-83 -29 c0 -5 -2 -10 -4 -10 -3 0
-8 5 -11 10 -3 6 -1 10 4 10 6 0 11 -4 11 -10z m150 1 c0 -10 -42 -23 -49 -15
-7 6 20 24 37 24 6 0 12 -4 12 -9z m-109 -48 c13 -16 12 -17 -3 -4 -17 13 -22
21 -14 21 2 0 10 -8 17 -17z m183 -24 c-7 -12 -41 -11 -49 1 -4 6 -1 18 6 26
10 13 14 12 30 -2 10 -9 16 -21 13 -25z m-646 -66 c33 -44 16 -42 -33 3 -35
32 -37 36 -16 33 13 -2 35 -19 49 -36z m687 27 c3 -5 -3 -10 -15 -10 -12 0
-18 5 -15 10 3 6 10 10 15 10 5 0 12 -4 15 -10z m-667 -159 c23 -33 37 -61 30
-61 -7 0 -28 25 -46 55 -18 29 -53 80 -78 112 l-46 58 49 -51 c26 -28 67 -79
91 -113z m512 149 c0 -5 -4 -10 -10 -10 -5 0 -10 5 -10 10 0 6 5 10 10 10 6 0
10 -4 10 -10z m194 -46 c5 -14 4 -15 -9 -4 -17 14 -19 20 -6 20 5 0 12 -7 15
-16z m-384 -35 c0 -6 -4 -7 -10 -4 -5 3 -10 11 -10 16 0 6 5 7 10 4 6 -3 10
-11 10 -16z m-163 -145 c-3 -3 -13 8 -21 25 -23 43 -19 52 5 13 12 -18 19 -35
16 -38z m228 26 c12 -24 13 -28 1 -24 -11 4 -36 45 -36 60 0 12 21 -10 35 -36z
m-165 -20 c17 -24 18 -30 6 -30 -14 0 -46 36 -46 52 0 17 20 6 40 -22z m510
-11 c0 -6 -4 -7 -10 -4 -5 3 -10 11 -10 16 0 6 5 7 10 4 6 -3 10 -11 10 -16z
m-673 -11 c6 -7 13 -29 17 -48 l6 -35 -18 30 c-24 40 -33 65 -23 65 5 0 13 -6
18 -12z m383 -70 c0 -6 -7 -5 -15 2 -8 7 -15 17 -15 22 0 6 7 5 15 -2 8 -7 15
-17 15 -22z m-295 -63 c14 -25 23 -49 20 -54 -3 -6 4 -16 14 -23 11 -8 25 -27
31 -42 10 -27 10 -28 -17 -21 -35 8 -33 5 -36 51 -1 21 -6 42 -11 45 -7 5 -35
73 -36 87 -1 11 12 -5 35 -43z m370 -45 c21 -41 22 -50 10 -50 -15 0 -26 20
-39 73 -10 41 1 33 29 -23z m-194 -17 c13 -15 12 -15 -8 -4 -24 12 -29 21 -14
21 5 0 15 -7 22 -17z m537 -58 c-3 -3 -9 2 -12 12 -6 14 -5 15 5 6 7 -7 10
-15 7 -18z m-368 -29 c0 -6 -7 -2 -15 8 -8 11 -15 25 -15 30 0 6 7 2 15 -8 8
-11 15 -25 15 -30z m-69 -54 c5 -13 4 -22 -1 -22 -18 0 -78 64 -86 90 -7 24
-5 23 36 -11 24 -19 47 -45 51 -57z m149 36 c25 -41 27 -67 4 -47 -14 12 -44
61 -44 74 0 16 23 1 40 -27z m-325 -19 c14 -22 -1 -17 -35 12 l-35 30 32 -15
c17 -9 35 -21 38 -27z m64 -69 c0 -11 -3 -10 -14 4 -8 11 -15 29 -15 40 1 19
2 19 15 -4 8 -14 14 -32 14 -40z m110 -34 c28 -30 51 -60 51 -66 0 -8 -43 16
-98 55 -8 6 -19 65 -13 65 5 0 31 -24 60 -54z m-175 18 c3 -8 2 -12 -4 -9 -6
3 -10 10 -10 16 0 14 7 11 14 -7z m356 -15 c0 -6 -4 -7 -10 -4 -5 3 -10 11
-10 16 0 6 5 7 10 4 6 -3 10 -11 10 -16z m46 -35 c8 -20 13 -39 10 -42 -5 -4
-36 58 -36 73 0 16 13 0 26 -31z m-367 -8 c12 -18 21 -46 20 -62 -1 -26 -3
-25 -24 21 -36 76 -33 102 4 41z m274 -81 l6 -40 -13 30 c-7 17 -17 41 -21 55
-6 22 -5 23 8 10 8 -8 17 -33 20 -55z m-193 -46 c0 -20 -28 5 -33 29 l-5 27
19 -24 c10 -13 19 -27 19 -32z m672 6 c3 -14 1 -25 -3 -25 -5 0 -9 6 -9 14 0
8 -3 22 -7 32 -4 11 -3 15 4 11 6 -4 13 -18 15 -32z m-573 1 c7 -8 11 -32 9
-53 l-3 -38 -17 53 c-16 51 -12 66 11 38z m190 -56 c1 3 -3 21 -9 39 -5 19 -6
30 -1 25 5 -5 15 -39 23 -77 13 -57 13 -65 1 -55 -21 17 -40 58 -46 103 l-6
40 19 -40 c10 -22 19 -38 19 -35z m-259 -27 c0 -7 -4 -13 -9 -13 -15 0 -41 30
-41 46 0 12 4 12 25 -3 13 -10 25 -24 25 -30z m129 -2 c6 -19 9 -37 6 -39 -11
-11 -26 16 -32 54 -7 46 8 37 26 -15z m-227 -6 c3 -13 2 -22 -2 -20 -4 3 -10
16 -12 30 -3 13 -2 22 2 20 4 -3 10 -16 12 -30z m747 -80 c0 -5 -6 1 -14 15
-8 14 -14 34 -14 45 0 13 5 8 14 -15 7 -19 14 -39 14 -45z m-461 49 c4 2 8 -9
9 -25 1 -16 -2 -29 -7 -29 -6 0 -10 6 -10 13 0 6 -3 23 -5 37 -3 14 -3 19 1
12 3 -6 9 -10 12 -8z m-188 -25 c0 -11 -4 -17 -10 -14 -5 3 -10 13 -10 21 0 8
5 14 10 14 6 0 10 -9 10 -21z m-80 -40 c0 -24 -4 -38 -10 -34 -5 3 -10 24 -10
46 0 24 4 38 10 34 6 -3 10 -24 10 -46z m160 -28 c0 -23 -1 -24 -20 -6 -11 10
-20 26 -20 37 0 16 3 16 20 6 11 -7 20 -24 20 -37z m60 34 c7 -8 8 -15 2 -15
-5 0 -15 7 -22 15 -7 8 -8 15 -2 15 5 0 15 -7 22 -15z m140 -10 c13 -16 31
-85 22 -85 -18 0 -52 47 -52 72 0 31 11 36 30 13z m-295 -25 c21 -41 20 -53
-5 -40 -13 7 -20 21 -20 40 0 38 6 38 25 0z m585 -3 c0 -20 -1 -20 -16 -5 -9
9 -13 21 -9 27 10 16 25 3 25 -22z m-360 -23 c0 -8 -4 -12 -10 -9 -5 3 -10 10
-10 16 0 5 5 9 10 9 6 0 10 -7 10 -16z m468 -35 c-3 -9 -12 0 -22 21 l-18 35
22 -21 c12 -12 20 -28 18 -35z m-748 -12 c0 -39 -25 -30 -26 9 -1 16 1 33 3
38 9 13 23 -16 23 -47z m210 22 c0 -11 -4 -17 -10 -14 -5 3 -10 15 -10 26 0
11 5 17 10 14 6 -3 10 -15 10 -26z m540 -65 c0 -19 -1 -34 -3 -34 -9 0 -67 90
-67 105 0 13 7 11 35 -11 28 -21 35 -33 35 -60z m-600 29 c0 -7 -4 -13 -8 -13
-15 0 -32 24 -32 44 0 18 1 19 20 1 11 -10 20 -24 20 -32z m185 23 c18 -5 31
-46 15 -46 -11 0 -50 50 -50 63 0 8 2 9 8 1 4 -6 16 -14 27 -18z m-277 -8 c7
-7 12 -27 12 -45 0 -31 -2 -32 -20 -21 -13 9 -20 24 -20 45 0 35 8 41 28 21z
m192 -21 c0 -18 2 -19 10 -7 13 21 31 0 23 -28 -6 -23 -6 -23 -24 -3 -22 23
-38 78 -20 67 6 -4 11 -17 11 -29z m390 -21 c0 -5 -7 -3 -15 4 -8 7 -12 17 -9
22 7 10 24 -9 24 -26z m-232 -47 c-3 -32 -4 -33 -15 -13 -7 11 -9 31 -6 43 9
33 25 10 21 -30z m-408 10 c0 -10 -4 -19 -10 -19 -5 0 -10 12 -10 26 0 14 4
23 10 19 6 -3 10 -15 10 -26z m210 10 c0 -5 -4 -9 -10 -9 -5 0 -10 7 -10 16 0
8 5 12 10 9 6 -3 10 -10 10 -16z m-72 -1 c13 -13 16 -58 4 -58 -15 0 -32 24
-32 47 0 25 10 29 28 11z m210 -74 l-3 -49 -17 32 c-10 18 -18 49 -18 70 l0
37 21 -20 c16 -17 20 -31 17 -70z m-290 34 c7 -7 12 -18 12 -25 0 -11 -4 -11
-20 -1 -11 7 -20 18 -20 25 0 16 12 17 28 1z m222 -42 c0 -5 -9 -1 -20 9 -11
10 -20 25 -20 34 0 12 6 9 20 -9 11 -14 20 -29 20 -34z m470 39 c0 -8 -2 -15
-4 -15 -2 0 -6 7 -10 15 -3 8 -1 15 4 15 6 0 10 -7 10 -15z m-750 -26 c0 -5
-4 -9 -10 -9 -5 0 -10 7 -10 16 0 8 5 12 10 9 6 -3 10 -10 10 -16z m197 -26
c-3 -10 -5 -4 -5 12 0 17 2 24 5 18 2 -7 2 -21 0 -30z m213 -23 c0 -16 -4 -32
-10 -35 -6 -4 -10 10 -10 35 0 25 4 39 10 35 6 -3 10 -19 10 -35z m-344 -8
c-6 -5 -36 23 -36 34 0 4 9 -1 20 -11 11 -10 18 -20 16 -23z m684 -26 c0 -19
-3 -18 -25 9 -33 41 -33 66 0 35 14 -13 25 -33 25 -44z m-480 -15 c-1 -25 -1
-25 -15 -7 -8 11 -15 29 -15 39 0 16 3 17 15 7 8 -7 15 -24 15 -39z m72 17
c14 -25 19 -58 9 -58 -7 0 -41 58 -41 71 0 17 19 9 32 -13z m-310 -32 c-2 -20
-9 -36 -14 -36 -6 0 -7 7 -4 16 3 9 6 27 6 40 0 14 4 23 8 20 4 -3 6 -21 4
-40z m-93 0 c-2 -19 3 -41 10 -49 7 -9 10 -24 8 -34 -3 -10 -8 -30 -11 -45 -4
-20 -11 -26 -22 -21 -12 4 -15 18 -12 58 1 29 0 51 -4 48 -5 -2 -8 1 -8 6 0 6
4 11 9 11 5 0 12 14 16 30 9 40 17 38 14 -4z m131 -26 c0 -28 -14 -48 -23 -33
-8 14 5 73 14 67 5 -3 9 -18 9 -34z m-100 -6 c0 -8 -4 -14 -10 -14 -5 0 -10 9
-10 21 0 11 5 17 10 14 6 -3 10 -13 10 -21z m770 -29 c0 -21 -6 -16 -31 28 -9
16 -8 17 10 5 12 -7 21 -22 21 -33z m-380 -30 c0 -5 -4 -16 -9 -24 -7 -11 -13
-7 -25 17 -9 17 -16 41 -16 54 1 22 2 22 25 -7 14 -16 25 -34 25 -40z m-253
-7 c-3 -20 -4 -21 -11 -5 -5 9 -5 29 0 45 7 25 8 26 11 5 3 -13 3 -33 0 -45z
m597 23 c30 -30 36 -43 29 -56 -9 -15 -13 -13 -31 17 -12 18 -29 43 -38 56
-27 36 -1 25 40 -17z m-516 4 c-3 -3 -9 2 -12 12 -6 14 -5 15 5 6 7 -7 10 -15
7 -18z m-291 -7 c-3 -8 -6 -5 -6 6 -1 11 2 17 5 13 3 -3 4 -12 1 -19z m123 1
c0 -5 -4 -9 -10 -9 -5 0 -10 7 -10 16 0 8 5 12 10 9 6 -3 10 -10 10 -16z m610
-47 c0 -28 -3 -33 -10 -22 -13 20 -13 73 0 65 6 -3 10 -23 10 -43z m-483 6
c-3 -7 -5 -2 -5 12 0 14 2 19 5 13 2 -7 2 -19 0 -25z m97 -19 c-8 -13 -24 -1
-24 18 0 13 3 13 15 3 8 -7 12 -16 9 -21z m96 -11 c0 -18 -17 -7 -29 19 -13
28 -13 28 8 9 12 -11 21 -23 21 -28z m-337 -21 c-6 -44 -30 -45 -25 -1 4 42
11 59 21 48 5 -5 6 -26 4 -47z m187 -10 c0 -27 -3 -38 -10 -31 -11 11 -20 70
-12 78 12 13 22 -8 22 -47z m123 -41 c-19 -53 -22 -55 -20 -13 1 19 5 33 9 30
4 -2 5 11 2 29 -6 30 -5 32 8 14 13 -16 13 -24 1 -60z m-389 48 c8 -20 -18
-71 -28 -55 -4 6 -3 11 2 11 5 0 7 14 4 30 -4 31 11 42 22 14z m180 -15 c-8
-13 -24 -1 -24 18 0 13 3 13 15 3 8 -7 12 -16 9 -21z m600 -39 c7 -15 10 -37
5 -55 -3 -16 -7 -23 -8 -15 0 9 -10 33 -21 55 -11 22 -20 48 -20 60 1 20 1 20
16 0 9 -11 21 -31 28 -45z m-667 18 c-3 -8 -6 -5 -6 6 -1 11 2 17 5 13 3 -3 4
-12 1 -19z m579 -65 c-11 -12 -27 13 -20 32 7 17 8 17 17 -3 6 -12 7 -25 3
-29z m-521 -33 c-4 -17 -10 -30 -15 -30 -17 0 -22 21 -15 61 7 39 8 40 22 20
9 -14 12 -32 8 -51z m-195 36 c0 -8 -4 -18 -10 -21 -5 -3 -10 3 -10 14 0 12 5
21 10 21 6 0 10 -6 10 -14z m421 -27 c-6 -16 -10 -18 -10 -7 -1 22 12 55 16
42 2 -6 -1 -22 -6 -35z m-136 -17 c-3 -8 -5 -19 -5 -25 0 -7 -4 -6 -10 3 -5 8
-10 29 -10 45 1 29 1 29 16 10 8 -11 12 -26 9 -33z m358 3 c-8 -25 -17 -45
-20 -45 -4 0 2 25 18 68 16 42 18 22 2 -23z m-667 -21 c-3 -9 -6 -18 -6 -20 0
-2 -4 -4 -9 -4 -5 0 -7 9 -4 20 3 11 10 20 15 20 6 0 7 -7 4 -16z m409 -24
c-4 -20 -11 -28 -16 -23 -6 6 -5 20 2 37 16 34 23 26 14 -14z m406 -7 c-9 -16
-10 -14 -11 12 0 21 3 26 11 18 8 -8 8 -16 0 -30z m-721 1 c0 -8 -4 -14 -9
-14 -11 0 -22 26 -14 34 9 9 23 -3 23 -20z m195 -102 c-6 -45 -9 -52 -17 -38
-6 11 -7 41 -3 74 6 45 9 52 17 38 6 -11 7 -41 3 -74z m466 -122 c-8 -24 -9
-23 -20 20 -7 25 -19 64 -28 87 -9 25 -12 50 -7 65 6 19 12 9 36 -62 21 -63
26 -91 19 -110z m38 131 c-1 -9 -4 -27 -8 -40 -5 -19 -9 -11 -17 39 -10 62
-10 62 8 40 10 -12 18 -30 17 -39z m-629 -28 c0 -2 -4 -3 -8 -3 -13 0 -44 59
-36 71 4 7 14 -3 25 -26 11 -21 19 -40 19 -42z m205 7 c-21 -71 -31 -73 -15
-4 17 69 20 78 27 70 3 -3 -2 -33 -12 -66z m-295 7 c-1 -39 -2 -41 -15 -23
-23 30 -18 85 6 70 5 -3 9 -24 9 -47z m-75 5 c-8 -8 -25 10 -19 20 4 6 9 5 15
-3 4 -7 6 -15 4 -17z m-21 -28 c3 -9 6 -25 6 -36 0 -21 0 -21 -21 -2 l-22 19
17 -32 c30 -59 13 -77 -18 -19 -17 32 -17 35 -1 60 20 30 30 33 39 10z m152
-88 c-8 -34 -24 -33 -33 2 -7 27 -6 45 3 72 10 25 38 -44 30 -74z m55 11 c-8
-8 -11 -4 -11 14 0 33 14 47 18 19 2 -12 -1 -27 -7 -33z m79 -9 c0 -10 -4 -18
-10 -18 -5 0 -10 15 -10 33 0 24 3 28 10 17 5 -8 10 -23 10 -32z m-215 -38 c7
-23 6 -22 -19 7 -15 18 -24 38 -21 44 8 12 28 -13 40 -51z m-235 11 c-8 -28
-28 -71 -34 -71 -8 0 2 38 17 68 22 40 28 41 17 3z m85 -69 c-3 -3 -10 -1 -16
5 -8 8 -7 22 2 50 l14 38 3 -44 c2 -23 1 -46 -3 -49z m326 49 c7 11 9 9 9 -7
0 -12 -8 -28 -17 -35 -15 -12 -16 -12 -10 3 3 9 1 18 -4 20 -7 2 -7 15 -2 33
l8 30 3 -29 c3 -22 6 -26 13 -15z m-48 -25 c0 -14 3 -23 8 -20 16 10 9 -30
-10 -59 l-18 -29 -7 25 c-3 14 -3 33 1 43 4 11 3 15 -4 11 -8 -5 -8 5 -1 34
12 44 31 41 31 -5z m-83 -38 c0 -5 -4 -8 -8 -8 -12 0 -32 46 -24 54 6 6 31
-31 32 -46z m174 -10 c-12 -22 -19 -28 -22 -18 -3 7 0 16 7 18 6 2 11 14 11
26 0 27 14 44 18 23 2 -9 -5 -31 -14 -49z m459 49 c2 -7 -4 -32 -13 -57 -15
-38 -19 -42 -26 -26 -5 13 -3 21 4 24 7 2 12 19 12 38 0 33 13 46 23 21z
m-776 -29 c-3 -7 -5 -2 -5 12 0 14 2 19 5 13 2 -7 2 -19 0 -25z m690 0 c-3 -8
-6 -5 -6 6 -1 11 2 17 5 13 3 -3 4 -12 1 -19z m-778 -84 c-31 -34 -41 -21 -21
31 l16 45 14 -26 c12 -23 11 -28 -9 -50z m788 34 c-3 -8 -6 -5 -6 6 -1 11 2
17 5 13 3 -3 4 -12 1 -19z m-593 -4 c3 -9 6 -28 5 -42 0 -26 -1 -25 -14 8 -7
19 -14 38 -14 43 -2 14 17 7 23 -9z m524 -122 c-10 -11 -14 -7 -23 25 -8 26
-9 44 -1 58 9 18 11 15 23 -24 10 -34 10 -48 1 -59z m84 36 c-10 -22 -11 -21
-11 12 -1 26 2 31 11 22 8 -8 8 -17 0 -34z m-135 -58 c6 -22 7 -42 3 -45 -4
-2 -11 16 -17 40 -13 56 -1 60 14 5z m110 8 c-3 -8 -6 -5 -6 6 -1 11 2 17 5
13 3 -3 4 -12 1 -19z m-807 0 c-1 -19 -29 -53 -37 -45 -8 8 17 57 29 57 4 0 8
-6 8 -12z m165 -54 c-25 -38 -32 -19 -10 23 15 26 21 32 23 19 2 -9 -4 -28
-13 -42z m494 -39 l0 -40 -15 45 c-7 25 -11 52 -8 60 9 23 23 -16 23 -65z
m121 37 c-1 -24 -26 -67 -33 -55 -8 13 14 83 25 77 4 -3 8 -13 8 -22z m-1060
-81 c0 -17 -36 -54 -49 -50 -9 3 -6 12 9 32 21 27 40 35 40 18z m1020 4 c0
-14 -32 -66 -37 -61 -8 7 17 66 28 66 5 0 9 -2 9 -5z m-1080 -73 c0 -13 -12
-22 -22 -16 -10 6 -1 24 13 24 5 0 9 -4 9 -8z m387 -37 c-19 -31 -37 -45 -37
-30 0 13 45 73 52 69 4 -3 -2 -20 -15 -39z m-611 20 c-11 -8 -25 -15 -30 -15
-6 1 0 7 14 15 32 19 40 18 16 0z m296 -25 c-6 -16 -11 -20 -16 -11 -4 6 -2
19 5 27 16 20 21 12 11 -16z m-102 8 c-1 -18 -25 -48 -39 -48 -16 0 -14 21 6
42 19 21 33 23 33 6z m210 8 c0 -2 -7 -9 -15 -16 -13 -11 -14 -10 -9 4 5 14
24 23 24 12z m-540 -21 c-11 -13 -10 -14 6 -9 13 5 16 4 9 -4 -15 -16 -58 -23
-74 -13 -22 15 5 41 41 41 26 0 29 -2 18 -15z m680 8 c0 -5 -11 -21 -25 -38
-27 -33 -34 -18 -9 20 16 24 34 33 34 18z m-280 -50 c0 -7 -4 -13 -8 -13 -12
0 -32 46 -24 55 8 8 32 -24 32 -42z m-761 -2 c-13 -11 -26 -17 -29 -14 -6 6
30 33 43 33 5 0 -1 -9 -14 -19z m718 -60 c-10 -12 -9 -13 1 -7 10 6 13 3 10
-9 -6 -31 -23 -27 -36 9 -10 28 -10 39 0 56 13 20 13 20 25 -7 8 -21 8 -31 0
-42z m-87 44 c0 -8 -4 -15 -9 -15 -13 0 -22 16 -14 24 11 11 23 6 23 -9z
m-535 -4 l30 -7 -27 -18 c-19 -12 -36 -16 -58 -11 -33 7 -37 14 -18 33 13 13
26 13 73 3z m-153 -28 c-15 -27 -65 -72 -56 -50 3 9 10 17 16 17 5 0 7 4 3 10
-6 10 33 55 42 47 2 -3 0 -14 -5 -24z m286 8 c9 -5 25 -12 35 -15 9 -3 17 -10
17 -16 0 -14 -57 -13 -66 1 -4 8 -8 8 -13 0 -7 -11 -51 -4 -51 9 0 7 38 28 53
29 4 1 15 -3 25 -8z m368 -37 c-3 -8 -10 -14 -16 -14 -17 0 -23 29 -9 46 11
14 13 14 22 -1 5 -9 6 -23 3 -31z m-224 27 c-5 -3 -15 -17 -22 -30 l-13 -25
-18 23 c-28 34 -24 41 21 39 23 -1 37 -4 32 -7z m640 -13 c-7 -7 -12 -8 -12
-2 0 14 12 26 19 19 2 -3 -1 -11 -7 -17z m-1028 -16 c-6 -4 -13 -15 -17 -24
-6 -17 -27 -25 -27 -11 0 11 43 53 49 47 3 -3 1 -8 -5 -12z m954 -47 c1 -31
-3 -53 -7 -50 -5 3 -8 16 -6 30 1 14 -2 25 -6 25 -10 0 -12 44 -3 53 14 14 20
-4 22 -58z m-908 38 c0 -9 -28 -32 -33 -27 -11 11 5 42 19 37 8 -3 14 -7 14
-10z m650 -57 c0 -6 -8 5 -18 24 -10 19 -16 39 -14 44 5 9 32 -48 32 -68z
m-126 48 c11 -28 6 -39 -9 -20 -8 11 -15 23 -15 28 0 14 18 9 24 -8z m306 6
c0 -5 -5 -10 -11 -10 -5 0 -7 5 -4 10 3 6 8 10 11 10 2 0 4 -4 4 -10z m-482
-22 c-4 -27 -23 -34 -32 -13 -8 21 1 35 20 35 10 0 14 -8 12 -22z m76 -2 c-6
-16 -24 -23 -24 -8 0 10 22 33 27 28 2 -2 1 -11 -3 -20z m-152 -1 c13 -18 9
-28 -7 -15 -12 10 -15 10 -15 0 0 -10 -3 -10 -15 0 -8 7 -15 16 -15 21 0 11
44 7 52 -6z m-182 -20 c0 -15 -21 -12 -30 5 -11 20 -10 21 9 10 12 -6 21 -13
21 -15z m105 15 c3 -6 -1 -7 -9 -4 -18 7 -21 14 -7 14 6 0 13 -4 16 -10z m409
-24 c3 -13 9 -31 12 -40 3 -9 2 -16 -3 -16 -12 0 -44 66 -36 74 12 12 21 6 27
-18z m186 -2 c0 -8 -4 -14 -10 -14 -5 0 -10 9 -10 21 0 11 5 17 10 14 6 -3 10
-13 10 -21z m62 1 c6 -29 -7 -43 -16 -19 -9 23 -7 44 3 44 5 0 11 -11 13 -25z
m-798 -1 c4 -9 4 -19 1 -22 -7 -8 -35 19 -29 29 8 14 21 11 28 -7z m67 -37
c-18 -18 -38 8 -21 28 12 15 14 15 23 0 6 -11 5 -21 -2 -28z m264 34 c3 -5 1
-13 -5 -16 -15 -9 -43 3 -35 15 8 13 32 13 40 1z m80 -21 c17 -32 19 -50 7
-50 -12 0 -44 59 -37 70 9 15 13 13 30 -20z m-566 -19 c-6 -18 -14 -30 -17
-27 -2 3 1 19 8 36 16 40 23 33 9 -9z m1506 9 c-10 -11 -20 -18 -23 -15 -3 3
3 14 13 25 10 11 20 18 23 15 3 -3 -3 -14 -13 -25z m-1171 4 c18 -17 21 -40 7
-48 -9 -6 -41 36 -41 54 0 15 16 12 34 -6z m497 -27 c-8 -8 -11 -7 -11 4 0 20
13 34 18 19 3 -7 -1 -17 -7 -23z m79 7 c0 -8 -7 -14 -15 -14 -15 0 -21 21 -9
33 10 9 24 -2 24 -19z m-806 0 c4 -9 4 -19 2 -21 -8 -8 -26 8 -26 23 0 19 16
18 24 -2z m80 -10 c3 -8 2 -12 -4 -9 -6 3 -10 10 -10 16 0 14 7 11 14 -7z
m-251 -9 c-3 -9 -8 -14 -10 -11 -3 3 -2 9 2 15 9 16 15 13 8 -4z m317 6 c0 -6
-4 -13 -10 -16 -5 -3 -10 1 -10 9 0 9 5 16 10 16 6 0 10 -4 10 -9z m715 0 c3
-5 1 -12 -5 -16 -5 -3 -10 1 -10 9 0 18 6 21 15 7z m-897 -36 c-3 -3 -9 2 -12
12 -6 14 -5 15 5 6 7 -7 10 -15 7 -18z m306 9 c7 -19 -2 -37 -15 -29 -12 8
-12 45 0 45 5 0 12 -7 15 -16z m-470 -9 c-4 -8 -10 -15 -15 -15 -4 0 -6 7 -3
15 4 8 10 15 15 15 4 0 6 -7 3 -15z m386 -31 c0 -7 -4 -15 -9 -19 -14 -8 -34
33 -26 53 6 15 8 15 21 -2 8 -11 14 -25 14 -32z m-318 4 c-9 -9 -12 -7 -12 12
0 19 3 21 12 12 9 -9 9 -15 0 -24z m176 -4 c-10 -10 -28 6 -28 24 0 15 1 15
17 -1 9 -9 14 -19 11 -23z m467 -7 c8 -20 13 -37 10 -37 -7 0 -35 57 -35 71 0
18 7 8 25 -34z m305 34 c0 -5 -7 -11 -15 -15 -15 -5 -20 5 -8 17 9 10 23 9 23
-2z m-875 -24 c0 -26 -20 -25 -23 2 -3 16 1 22 10 19 7 -3 13 -12 13 -21z
m482 -12 c8 -22 -6 -33 -17 -15 -13 20 -12 30 0 30 6 0 13 -7 17 -15z m-650
-17 c-3 -8 -6 -5 -6 6 -1 11 2 17 5 13 3 -3 4 -12 1 -19z m686 -40 c-26 -28
-35 -21 -17 13 12 24 18 29 25 18 5 -8 2 -20 -8 -31z m-243 18 c0 -17 -14 -29
-23 -20 -8 8 3 34 14 34 5 0 9 -6 9 -14z m590 10 c0 -3 -4 -8 -10 -11 -5 -3
-10 -1 -10 4 0 6 5 11 10 11 6 0 10 -2 10 -4z m472 -18 c-7 -7 -12 -8 -12 -2
0 14 12 26 19 19 2 -3 -1 -11 -7 -17z m158 14 c0 -4 -16 -23 -35 -42 -41 -40
-46 -33 -9 16 25 32 44 44 44 26z m-1451 -21 c6 -10 7 -21 4 -25 -9 -8 -33 14
-33 30 0 20 18 17 29 -5z m336 9 c3 -5 3 -15 -1 -21 -6 -11 -23 6 -24 24 0 10
18 9 25 -3z m445 -25 c0 -8 -4 -15 -10 -15 -5 0 -10 7 -10 15 0 8 5 15 10 15
6 0 10 -7 10 -15z m-222 -20 c-3 -3 -9 2 -12 12 -6 14 -5 15 5 6 7 -7 10 -15
7 -18z m-725 -5 c-3 -11 -9 -20 -14 -20 -11 0 -11 3 -3 24 9 23 23 20 17 -4z
m287 -1 c0 -6 -4 -7 -10 -4 -5 3 -10 11 -10 16 0 6 5 7 10 4 6 -3 10 -11 10
-16z m980 17 c0 -2 -8 -10 -17 -17 -16 -13 -17 -12 -4 4 13 16 21 21 21 13z
m132 -18 c-7 -7 -12 -8 -12 -2 0 14 12 26 19 19 2 -3 -1 -11 -7 -17z m78 18
c0 -2 -8 -10 -17 -17 -16 -13 -17 -12 -4 4 13 16 21 21 21 13z m-1597 -21 c-3
-9 -8 -14 -10 -11 -3 3 -2 9 2 15 9 16 15 13 8 -4z m977 -25 c0 -5 -2 -10 -4
-10 -3 0 -8 5 -11 10 -3 6 -1 10 4 10 6 0 11 -4 11 -10z"/>
<path d="M5390 3145 c0 -3 29 -47 64 -98 35 -50 87 -134 116 -184 29 -51 54
-93 56 -93 8 0 -49 138 -87 209 -57 107 -105 171 -129 171 -11 0 -20 -2 -20
-5z"/>
<path d="M5557 3138 c5 -7 41 -62 81 -123 140 -210 254 -474 312 -720 47 -199
55 -281 55 -540 -1 -262 -13 -369 -65 -583 -96 -393 -307 -809 -568 -1119
l-44 -53 75 0 75 0 55 73 c235 313 388 627 501 1027 l24 85 1 -61 c1 -76 -24
-347 -45 -478 -13 -78 -27 -121 -70 -214 -30 -63 -57 -113 -60 -110 -3 3 9 35
27 69 57 115 100 266 98 352 0 38 -3 34 -24 -43 -40 -146 -87 -267 -95 -244
-6 14 -9 9 -15 -24 -7 -41 -86 -196 -107 -208 -6 -4 -8 4 -4 22 9 48 18 139
13 134 -8 -8 -67 -218 -67 -238 0 -9 -18 -44 -40 -77 -38 -57 -39 -60 -19 -63
12 -2 26 2 30 10 7 10 9 10 9 1 0 -8 14 -13 34 -13 29 0 38 6 60 43 l25 42 1
-42 c0 -35 3 -43 18 -43 21 0 34 25 82 155 16 44 29 71 29 60 1 -20 -32 -166
-44 -197 -6 -16 0 -18 58 -18 62 0 65 1 71 28 46 214 104 533 131 727 9 61 18
207 22 325 6 228 -3 374 -37 590 -10 69 -24 188 -30 265 -33 430 -161 799
-402 1158 l-39 57 -60 0 c-46 0 -58 -3 -52 -12z m399 -2790 c-13 -40 -40 -107
-60 -148 -31 -66 -35 -70 -29 -35 3 22 28 91 55 153 26 62 49 118 49 125 1 6
3 5 6 -5 2 -9 -7 -49 -21 -90z m-163 -210 c-39 -75 -49 -87 -51 -66 -4 32 19
88 61 151 53 78 46 22 -10 -85z"/>
<path d="M4551 2274 c36 -39 129 -79 129 -56 0 15 -72 60 -114 71 l-39 10 24
-25z"/>
<path d="M4569 2206 l24 -26 -23 0 c-22 0 -23 -1 -5 -20 10 -11 15 -23 12 -27
-4 -4 3 -18 15 -31 13 -14 17 -22 11 -18 -17 9 -16 -3 2 -34 20 -35 18 -43 -5
-30 -25 14 -25 4 1 -39 17 -29 18 -33 4 -27 -14 5 -16 2 -10 -11 4 -10 7 -29
7 -43 -2 -39 55 -128 59 -92 0 4 5 12 10 18 6 7 6 33 1 68 -5 31 -5 56 0 56
13 0 9 38 -8 71 l-15 30 25 -17 c14 -9 26 -14 26 -11 0 14 -43 104 -57 120
-18 19 -11 22 18 7 29 -16 23 2 -14 38 -18 17 -48 35 -67 38 l-35 7 24 -27z"/>
<path d="M3732 2157 c-19 -23 -22 -53 -8 -72 13 -18 15 -18 31 -2 12 12 15 26
10 47 -8 35 -19 45 -33 27z"/>
<path d="M3694 1983 c4 -32 9 -67 12 -78 2 -11 -3 -5 -13 13 -19 37 -33 42
-28 10 2 -13 6 -43 9 -68 l6 -45 -18 30 -17 30 -3 -33 c-2 -18 5 -56 14 -85
l18 -52 18 60 c10 33 18 73 18 88 0 16 4 26 9 23 11 -7 21 18 21 52 0 29 -34
112 -46 112 -3 0 -3 -26 0 -57z"/>
<path d="M4155 2010 c4 -14 13 -36 20 -50 6 -14 13 -45 14 -70 1 -30 13 -62
37 -102 20 -32 38 -58 41 -58 2 0 2 18 -2 41 -4 22 -7 57 -7 76 0 51 -29 112
-73 153 -35 33 -37 33 -30 10z"/>
<path d="M4356 1843 c-8 -63 -8 -120 0 -162 6 -30 5 -33 -15 -26 -19 6 -20 3
-15 -24 4 -17 2 -31 -3 -31 -4 0 -7 -19 -5 -41 3 -26 1 -39 -6 -35 -5 3 -15
-15 -22 -42 -7 -26 -17 -51 -21 -56 -5 -6 -9 -18 -9 -29 0 -10 -4 -16 -9 -13
-11 7 -21 -29 -21 -79 l1 -40 25 30 c14 17 36 50 49 75 15 29 24 38 25 26 0
-11 3 -16 7 -13 10 11 26 98 26 150 0 26 4 47 9 47 5 0 7 12 6 28 -2 19 2 27
12 27 15 0 27 30 36 98 7 44 -16 115 -45 141 -18 17 -19 15 -25 -31z"/>
<path d="M4584 1818 c3 -14 9 -33 12 -42 4 -11 1 -16 -10 -16 -9 0 -19 -8 -22
-17 -4 -10 -20 -54 -36 -97 -32 -85 -67 -223 -75 -293 -3 -24 -9 -43 -14 -43
-5 0 -9 5 -9 10 0 6 -4 10 -10 10 -5 0 -10 -23 -10 -51 0 -45 -2 -50 -15 -39
-24 20 -28 6 -15 -55 13 -61 21 -62 40 -2 6 21 21 46 31 56 27 25 38 69 27
109 -5 19 -7 36 -4 40 3 3 9 -9 12 -26 4 -18 10 -32 13 -32 4 0 15 23 26 52
10 28 26 59 36 69 9 9 19 32 22 51 2 19 9 43 14 54 6 10 13 37 16 60 2 23 12
57 22 77 22 46 13 86 -27 123 l-31 29 7 -27z m-15 -200 c1 -15 -3 -30 -9 -33
-6 -4 -10 14 -9 47 0 39 3 48 9 33 5 -11 9 -32 9 -47z m-33 -149 c-8 -42 -12
-46 -18 -28 -9 24 11 106 22 89 4 -6 2 -33 -4 -61z"/>
<path d="M3619 1775 c-4 -43 4 -92 22 -127 11 -21 22 -38 25 -38 4 0 4 22 0
50 -8 59 -43 146 -47 115z"/>
<path d="M4206 1760 c-3 -18 -6 -58 -5 -89 l1 -56 19 40 c13 28 17 51 13 75
-9 55 -20 67 -28 30z"/>
<path d="M1192 1704 c-12 -33 -26 -83 -31 -110 -23 -126 25 -398 105 -593 34
-82 124 -245 131 -237 2 2 -12 41 -32 87 -33 78 -21 83 17 9 7 -14 19 -29 25
-33 7 -4 13 -22 13 -40 0 -24 3 -28 10 -17 7 12 27 -2 97 -71 48 -47 105 -95
126 -108 20 -12 37 -27 37 -32 0 -6 4 -7 10 -4 5 3 20 -1 32 -9 12 -9 26 -16
30 -16 13 0 -17 52 -42 75 -12 11 -39 44 -59 74 -70 105 -78 116 -86 113 -4
-2 -19 21 -33 50 -23 49 -25 51 -31 28 -6 -21 -9 -16 -19 30 -16 72 -32 97
-32 52 0 -44 -16 -33 -24 18 -3 22 -10 40 -15 40 -5 0 -11 16 -14 36 -3 20
-15 43 -25 52 -13 11 -22 37 -26 76 -6 41 -11 55 -17 45 -6 -10 -9 -4 -9 21
-1 33 -1 34 -15 16 -14 -18 -15 -15 -16 40 -1 53 -2 56 -12 32 -17 -44 -24
-33 -20 30 4 53 3 56 -11 38 -15 -18 -16 -14 -17 60 0 43 -6 131 -12 194 l-12
115 -23 -61z m125 -656 c-3 -7 -5 -2 -5 12 0 14 2 19 5 13 2 -7 2 -19 0 -25z
m45 -53 c6 -28 -6 -34 -16 -9 -8 22 -7 34 3 34 5 0 11 -11 13 -25z m102 -161
c3 -8 2 -12 -4 -9 -6 3 -10 10 -10 16 0 14 7 11 14 -7z"/>
<path d="M1720 1661 c0 -24 34 -96 50 -106 15 -9 12 42 -4 74 -8 15 -22 33
-30 40 -14 12 -16 10 -16 -8z"/>
<path d="M3590 1652 c0 -23 -4 -31 -12 -26 -18 11 -3 -88 21 -133 l20 -38 1
33 c0 17 5 32 10 32 22 0 4 108 -25 145 -14 19 -14 18 -15 -13z"/>
<path d="M1795 1593 c4 -21 22 -69 41 -108 l34 -70 -5 55 -4 55 23 -56 c30
-73 66 -125 76 -109 6 9 10 7 14 -7 7 -23 46 -62 46 -46 0 20 -38 119 -61 157
-17 30 -24 35 -28 23 -4 -12 -15 0 -36 41 -28 54 -30 55 -33 28 -4 -28 -4 -28
-33 23 -16 28 -32 51 -35 51 -3 0 -2 -17 1 -37z"/>
<path d="M3540 1509 c0 -25 5 -61 12 -80 12 -37 39 -82 44 -76 8 8 -19 133
-36 166 l-19 36 -1 -46z"/>
<path d="M3511 1390 l-1 -75 -21 25 -21 25 5 -57 c3 -31 11 -67 18 -80 l13
-23 7 30 c4 17 7 23 8 15 1 -10 4 -11 12 -3 17 17 14 142 -4 183 l-15 35 -1
-75z"/>
<path d="M2010 1406 c0 -40 43 -105 114 -174 41 -40 79 -72 85 -72 7 0 -19 44
-56 99 -40 58 -73 96 -80 94 -7 -3 -13 -1 -13 3 -1 5 -12 23 -25 39 -21 25
-25 27 -25 11z"/>
<path d="M2166 1310 c13 -50 43 -97 84 -134 45 -40 59 -42 40 -4 -12 22 -11
22 16 -3 30 -28 93 -63 100 -57 2 2 -35 42 -83 89 -66 65 -84 78 -80 59 5 -21
-2 -16 -39 25 -36 40 -44 45 -38 25z"/>
<path d="M2451 1204 c58 -61 151 -104 279 -130 23 -5 22 -3 -10 24 -48 42
-182 113 -156 84 26 -30 18 -28 -60 18 -38 22 -73 40 -78 40 -6 0 6 -16 25
-36z"/>
<path d="M3437 1220 c-14 -53 -1 -129 29 -165 14 -19 15 -16 10 40 -3 33 -11
80 -19 105 -12 41 -14 43 -20 20z"/>
<path d="M3797 1222 c4 -18 2 -21 -12 -16 -15 6 -16 3 -10 -26 5 -23 4 -30 -4
-26 -6 4 -11 0 -11 -8 0 -9 -5 -16 -11 -16 -11 0 -7 -42 7 -88 5 -15 4 -15 -9
0 -8 10 -17 15 -20 11 -10 -10 -8 -56 3 -73 9 -13 11 -13 20 0 5 8 10 21 10
29 0 11 3 11 15 1 13 -11 15 -8 16 16 1 41 13 71 23 55 15 -23 36 9 36 55 0
34 -6 51 -30 76 -25 29 -28 30 -23 10z"/>
<path d="M2376 1182 c46 -43 147 -93 160 -79 10 10 -178 128 -203 127 -4 -1
15 -22 43 -48z"/>
<path d="M1511 1181 c-21 -41 -27 -117 -12 -156 7 -18 9 -17 14 10 16 82 28
177 24 182 -3 3 -15 -13 -26 -36z"/>
<path d="M4326 1163 c4 -15 13 -46 19 -68 l12 -40 11 27 c14 34 -1 84 -29 99
-18 9 -19 7 -13 -18z"/>
<path d="M201 1105 c-1 -75 13 -197 40 -335 39 -203 91 -355 194 -565 97 -197
120 -224 46 -55 -132 307 -206 572 -274 990 -2 14 -5 -2 -6 -35z"/>
<path d="M4290 1133 c0 -13 -4 -23 -10 -23 -5 0 -10 -17 -10 -37 0 -26 -3 -34
-9 -24 -7 11 -12 4 -22 -27 -6 -23 -15 -39 -20 -37 -11 8 -21 -32 -14 -55 6
-18 8 -19 30 -4 13 9 27 23 30 32 3 10 19 32 35 51 35 40 39 84 10 121 l-20
25 0 -22z"/>
<path d="M1547 1109 c-13 -47 -7 -110 14 -150 11 -23 22 -39 24 -37 5 5 -17
182 -25 197 -5 10 -9 7 -13 -10z"/>
<path d="M2770 1107 c0 -14 76 -57 100 -57 l25 0 -26 25 c-22 23 -99 47 -99
32z"/>
<path d="M3410 1079 c0 -34 49 -111 50 -79 0 29 -20 88 -35 100 -13 11 -15 7
-15 -21z"/>
<path d="M1604 1055 c-15 -34 -9 -117 11 -155 l19 -35 7 35 c3 19 7 26 8 15 1
-11 12 -42 26 -70 l25 -50 -4 62 c-3 40 -12 76 -27 104 l-24 42 -6 -29 c-7
-29 -7 -29 -9 6 -1 19 -6 49 -10 65 -6 27 -8 28 -16 10z"/>
<path d="M3967 965 c-43 -49 -70 -90 -77 -116 -16 -58 -7 -68 20 -24 20 33 25
36 30 19 6 -16 10 -13 29 21 12 22 20 32 16 21 -5 -17 -4 -18 17 -4 27 18 104
125 96 134 -4 3 -25 -11 -47 -31 -47 -42 -49 -40 -21 15 11 22 17 40 12 40 -5
0 -38 -34 -75 -75z"/>
<path d="M1690 951 c0 -6 11 -45 25 -88 26 -81 75 -172 75 -140 0 31 20 18 53
-35 27 -43 33 -48 35 -30 4 27 10 27 42 2 14 -11 30 -20 37 -20 6 0 21 -12 32
-27 11 -16 21 -22 21 -15 0 20 39 4 66 -27 22 -25 23 -25 24 -4 0 19 3 18 35
-14 42 -42 52 -39 32 8 -16 38 -73 96 -84 86 -4 -4 -22 7 -40 25 -32 31 -43
26 -23 -12 8 -16 7 -18 -4 -14 -9 3 -18 13 -21 23 -3 9 -33 43 -66 76 -62 60
-69 59 -43 -9 12 -30 -21 -7 -40 29 -10 18 -32 46 -48 62 l-29 28 16 -37 c8
-21 15 -43 15 -50 0 -22 -17 6 -34 56 -15 47 -62 136 -71 136 -3 0 -5 -4 -5
-9z"/>
<path d="M3668 928 c-7 -20 3 -49 16 -45 15 5 14 49 0 54 -7 2 -14 -2 -16 -9z"/>
<path d="M3855 918 c-15 -12 -36 -40 -46 -62 -20 -44 -25 -106 -9 -106 6 0 10
6 10 13 0 6 18 48 39 92 22 44 38 81 37 83 -2 1 -15 -8 -31 -20z"/>
<path d="M4167 903 c-11 -10 -8 -73 3 -73 17 0 28 34 19 58 -9 24 -12 26 -22
15z"/>
<path d="M4134 740 c-22 -9 -57 -50 -50 -58 6 -5 87 32 111 52 19 15 19 15
-10 15 -16 0 -40 -4 -51 -9z"/>
<path d="M4092 668 c-29 -4 -70 -17 -90 -28 l-37 -21 65 4 c40 3 82 13 108 26
63 32 58 34 -46 19z"/>
<path d="M135 603 c14 -115 80 -307 172 -505 l46 -98 49 0 c26 0 48 2 48 5 0
3 -20 41 -45 83 -61 107 -116 226 -165 362 -75 205 -120 269 -105 153z"/>
<path d="M2171 593 c12 -33 68 -93 86 -93 7 0 13 -4 13 -9 0 -5 14 -19 31 -31
l30 -22 -15 36 c-26 63 -86 136 -86 105 0 -7 -12 -1 -28 14 -36 34 -44 34 -31
0z"/>
<path d="M5530 438 c-151 -244 -150 -241 -91 -179 53 54 114 139 146 200 20
40 66 161 61 161 -2 0 -54 -82 -116 -182z"/>
<path d="M1767 573 c15 -43 114 -113 159 -113 15 0 15 2 -2 21 -10 12 -32 28
-49 36 -16 9 -45 29 -63 44 -37 33 -54 37 -45 12z"/>
<path d="M2290 585 c0 -35 90 -141 98 -116 2 7 10 8 22 1 38 -20 107 -37 155
-38 l50 -1 -33 28 c-38 33 -112 65 -112 49 0 -6 -11 -3 -25 6 -13 9 -30 16
-37 16 -6 0 -25 12 -40 27 -16 15 -28 21 -28 14 0 -10 -6 -9 -25 3 -14 9 -25
14 -25 11z"/>
<path d="M2787 513 c-19 -19 16 -39 47 -27 13 5 14 9 5 20 -12 15 -41 19 -52
7z"/>
<path d="M2680 500 c-12 -7 -7 -12 22 -25 59 -24 77 -16 40 18 -21 19 -40 21
-62 7z"/>
<path d="M1960 485 c0 -8 5 -17 10 -20 17 -10 11 -25 -7 -18 -17 6 -16 5 1
-15 20 -23 96 -52 135 -52 l26 0 -25 20 c-14 11 -30 20 -36 20 -7 0 -23 15
-37 34 -28 36 -67 54 -67 31z"/>
<path d="M2560 493 c0 -14 66 -43 98 -43 l26 0 -20 21 c-22 21 -104 39 -104
22z"/>
<path d="M3135 380 c-16 -4 -56 -8 -89 -9 l-58 -1 23 -20 24 -21 -34 17 c-33
16 -96 22 -108 10 -8 -8 61 -36 89 -36 l23 -1 -23 -19 c-23 -19 -23 -19 -55 0
-18 11 -48 20 -67 20 l-35 -1 24 -19 c13 -12 38 -20 60 -20 24 0 31 -3 22 -9
-16 -11 35 -23 96 -23 47 -1 114 33 80 40 -14 3 -6 11 30 34 27 18 42 33 35
36 -10 3 -8 8 5 18 21 15 8 17 -42 4z"/>
<path d="M2822 38 c6 -16 36 -34 44 -26 3 4 4 14 1 23 -7 17 -51 21 -45 3z"/>
<path d="M2768 3 c7 -3 16 -2 19 1 4 3 -2 6 -13 5 -11 0 -14 -3 -6 -6z"/>
</g>
</svg>
