<?xml version="1.0" standalone="no"?>
<!DOCTYPE svg PUBLIC "-//W3C//DTD SVG 20010904//EN"
 "http://www.w3.org/TR/2001/REC-SVG-20010904/DTD/svg10.dtd">
<svg version="1.0" xmlns="http://www.w3.org/2000/svg"
 width="500.000000pt" height="500.000000pt" viewBox="0 0 500.000000 500.000000"
 preserveAspectRatio="xMidYMid meet">

<g transform="translate(0.000000,500.000000) scale(0.100000,-0.100000)"
fill="#000000" stroke="none">
<path d="M2630 3711 c-206 -44 -391 -175 -478 -340 -19 -34 -32 -64 -30 -66 2
-2 17 22 33 53 17 31 59 87 95 123 150 153 326 224 550 222 134 -1 204 -15
309 -64 89 -42 195 -114 187 -128 -7 -10 28 -43 36 -36 9 9 66 -74 98 -140 70
-147 65 -297 -15 -460 -44 -91 -108 -162 -200 -224 -228 -152 -522 -171 -773
-50 -23 12 -40 24 -37 29 3 4 -2 11 -11 14 -10 4 -13 2 -9 -7 4 -6 0 -4 -8 5
-8 10 -17 15 -20 11 -4 -3 -42 30 -85 73 -116 118 -164 220 -181 389 l-8 80
-2 -72 c0 -39 -6 -75 -11 -78 -6 -4 -51 -10 -99 -15 -93 -9 -132 -23 -168 -62
-53 -56 -68 -162 -37 -255 37 -111 116 -144 295 -122 163 20 208 3 292 -112
34 -47 109 -95 199 -127 62 -21 90 -25 188 -25 137 0 239 23 365 83 96 46 148
94 220 205 72 110 87 143 129 275 63 197 59 315 -15 468 -131 272 -478 423
-809 353z m691 -218 c13 -16 12 -17 -3 -4 -17 13 -22 21 -14 21 2 0 10 -8 17
-17z m-1231 -495 c0 -10 -5 -18 -11 -18 -6 0 -3 -7 5 -16 9 -8 16 -21 16 -27
0 -7 -4 -6 -10 3 -6 9 -10 10 -10 3 0 -6 8 -18 18 -25 17 -11 42 -49 42 -61 0
-3 -18 1 -40 9 -51 18 -125 4 -194 -35 -62 -34 -80 -78 -52 -127 13 -23 15
-24 10 -6 -6 23 -6 23 20 7 14 -10 26 -21 26 -25 0 -4 11 -7 24 -6 21 1 23 4
14 21 -11 19 -10 19 9 3 11 -10 24 -18 29 -18 13 1 -39 40 -53 40 -6 0 -15 5
-18 11 -5 7 4 8 27 4 18 -3 43 -7 56 -8 25 -1 25 -2 12 -28 -9 -15 -7 -19 5
-19 10 0 13 5 9 12 -5 8 -1 9 12 4 15 -6 17 -5 7 5 -22 22 -15 29 25 28 56 -3
103 11 111 33 6 16 13 11 52 -34 82 -95 232 -179 379 -213 85 -19 276 -19 360
0 110 26 255 104 339 181 67 62 72 65 55 33 -18 -35 -70 -84 -152 -143 -23
-16 -39 -35 -37 -45 1 -9 -8 -28 -21 -42 -18 -18 -20 -26 -10 -26 8 0 14 5 13
10 -1 5 4 12 12 15 9 3 11 0 6 -8 -5 -9 -4 -11 4 -6 6 4 9 11 6 16 -3 5 -1 11
5 15 6 4 8 10 5 14 -2 5 4 16 15 26 14 13 20 14 20 5 0 -9 7 -7 22 6 12 10 0
-7 -27 -38 -74 -86 -196 -145 -356 -173 -93 -17 -209 -20 -154 -4 22 6 15 7
-25 3 -55 -5 -130 12 -198 43 -28 13 -31 18 -20 32 7 9 9 13 4 9 -10 -8 -51
28 -51 45 0 6 -11 17 -23 23 -25 13 -50 34 -40 34 4 0 22 -9 42 -21 29 -17 34
-18 32 -4 -1 9 -17 25 -35 36 -18 11 -29 14 -25 8 4 -7 2 -10 -7 -7 -8 3 -13
11 -11 17 1 7 -2 10 -8 6 -6 -4 -18 -1 -27 7 -15 12 -15 11 -3 -9 8 -12 18
-19 24 -16 5 4 6 1 2 -6 -7 -11 39 -91 53 -91 3 0 17 -10 31 -21 l25 -21 -30
17 c-48 28 -73 55 -106 114 -43 75 -84 124 -108 128 -30 4 -34 -13 -7 -31 17
-10 26 -12 28 -4 2 6 12 -2 22 -17 18 -27 18 -28 0 -19 -11 5 -101 9 -201 9
-167 0 -184 2 -210 21 -65 48 -95 192 -55 270 38 73 89 103 177 105 22 0 56 6
75 12 37 13 50 7 50 -25z m-3 -149 c33 -12 83 -57 83 -74 0 -25 -226 -27 -272
-3 -28 14 -22 24 30 48 85 41 114 46 159 29z m-197 -99 c8 -5 11 -10 6 -10 -5
0 -1 -9 9 -20 19 -21 19 -21 -6 -8 -14 7 -25 17 -26 22 -1 5 -7 13 -15 17 -10
7 -10 9 2 9 8 0 22 -5 30 -10z m1418 -112 c-13 -18 -24 -34 -25 -36 0 -2 -7
-4 -15 -6 -7 -1 -20 -6 -28 -11 -13 -8 -13 -6 -2 8 8 9 17 15 21 14 4 -1 20
13 35 31 15 17 30 32 32 32 3 0 -6 -15 -18 -32z m-879 -114 c14 -12 -19 -1
-35 12 -18 14 -18 14 6 3 14 -6 27 -13 29 -15z"/>
<path d="M1948 2983 c7 -3 16 -2 19 1 4 3 -2 6 -13 5 -11 0 -14 -3 -6 -6z"/>
<path d="M1813 2918 c-15 -20 -25 -38 -20 -38 3 0 12 11 21 25 17 26 16 35 -1
13z"/>
<path d="M1811 2764 c0 -11 3 -14 6 -6 3 7 2 16 -1 19 -3 4 -6 -2 -5 -13z"/>
<path d="M1811 2724 c0 -11 3 -14 6 -6 3 7 2 16 -1 19 -3 4 -6 -2 -5 -13z"/>
<path d="M2050 2716 c0 -2 8 -10 18 -17 15 -13 16 -12 3 4 -13 16 -21 21 -21
13z"/>
<path d="M2087 2710 c18 -20 43 -22 35 -2 -4 11 -7 12 -10 4 -3 -10 -7 -10
-20 0 -14 10 -15 10 -5 -2z"/>
<path d="M2154 2711 c4 -6 2 -11 -4 -11 -6 0 -9 -4 -6 -9 4 -5 1 -11 -6 -13
-7 -3 -2 -7 10 -10 12 -4 20 -2 16 3 -3 5 2 9 10 9 23 0 20 17 -5 31 -15 8
-19 8 -15 0z"/>
<path d="M2200 2702 c6 -13 14 -21 18 -18 3 4 -2 14 -12 24 -18 16 -18 16 -6
-6z"/>
<path d="M1980 2655 c-48 -11 -51 -13 -20 -13 19 -1 62 5 95 12 55 13 57 14
20 14 -22 0 -65 -6 -95 -13z"/>
<path d="M3134 2514 c-18 -14 -18 -14 6 -3 31 14 36 19 24 19 -6 0 -19 -7 -30
-16z"/>
<path d="M2828 2373 c7 -3 16 -2 19 1 4 3 -2 6 -13 5 -11 0 -14 -3 -6 -6z"/>
<path d="M2602 3671 c-203 -56 -365 -194 -433 -370 -27 -70 -37 -211 -19 -290
41 -187 196 -346 409 -418 104 -35 265 -43 377 -18 253 55 449 245 484 470 26
166 -27 316 -161 448 -66 65 -82 76 -98 68 -15 -8 -20 -5 -30 16 -6 14 -14 23
-18 20 -3 -4 -13 3 -22 13 -54 66 -341 101 -489 61z m382 -30 c4 -5 -3 -7 -14
-4 -23 6 -26 13 -6 13 8 0 17 -4 20 -9z m-99 -21 c17 -7 17 -9 3 -9 -10 -1
-18 -6 -18 -12 0 -5 4 -7 10 -4 6 4 7 -1 3 -11 -5 -15 -7 -15 -15 0 -5 9 -7
20 -3 25 3 5 -1 12 -7 14 -7 3 -8 5 -3 6 6 0 19 -4 30 -9z m40 -30 c-3 -4 0
-11 5 -13 6 -3 5 -4 -1 -3 -7 1 -13 10 -15 19 -1 9 2 15 7 11 5 -3 7 -9 4 -14z
m-471 -29 c3 -5 -2 -12 -11 -15 -14 -6 -15 -9 -4 -15 10 -6 9 -10 -4 -14 -9
-4 -13 -3 -10 3 3 6 0 10 -7 9 -25 -1 -43 -14 -46 -34 -2 -11 -8 -25 -14 -32
-5 -7 -6 -18 -2 -24 4 -8 3 -9 -4 -5 -7 4 -16 -2 -21 -16 -5 -13 -18 -31 -30
-42 -11 -10 -18 -23 -15 -27 3 -5 1 -9 -4 -9 -17 0 -34 -93 -36 -202 -2 -61 1
-108 6 -108 5 0 7 -4 3 -9 -10 -18 57 -116 123 -179 36 -34 67 -60 69 -58 3 2
28 -13 56 -35 l52 -39 18 21 c9 12 17 32 17 46 0 13 4 32 9 42 8 13 5 17 -15
19 -13 1 -24 -4 -24 -10 0 -7 -7 -3 -15 8 -14 19 -14 19 -15 -1 0 -17 -2 -17
-10 -5 -16 25 -12 43 8 36 10 -4 7 2 -8 14 -39 32 -108 80 -115 80 -16 0 -32
31 -54 101 -19 62 -23 91 -19 157 3 53 1 83 -6 85 -7 2 -7 11 2 28 11 22 12
22 6 2 -3 -13 -1 -23 5 -23 6 0 11 4 11 9 0 23 118 149 175 187 49 33 55 45
12 23 -17 -9 -19 -9 -11 1 12 12 66 28 119 36 17 2 24 1 17 -2 -6 -3 -10 -10
-7 -15 4 -5 -2 -6 -11 -2 -12 4 -15 3 -10 -5 4 -7 2 -10 -7 -6 -16 6 -139 -74
-132 -86 3 -4 -2 -11 -11 -14 -10 -4 -13 -2 -8 6 4 7 3 8 -4 4 -7 -4 -12 -12
-12 -18 0 -5 -15 -29 -32 -51 -18 -23 -33 -44 -32 -47 0 -3 -5 -18 -11 -35
-19 -46 -28 -130 -16 -151 5 -11 18 -36 27 -57 22 -50 28 -42 13 19 -17 71
-19 162 -4 198 7 17 14 34 14 39 1 4 4 7 9 6 4 -1 5 -6 3 -12 -9 -25 -16 -137
-9 -137 5 0 8 12 8 28 0 22 5 16 29 -33 29 -60 108 -149 128 -143 6 2 22 -9
36 -24 14 -16 30 -28 34 -28 5 0 13 -8 20 -19 11 -18 53 -36 53 -22 0 12 -70
76 -83 76 -34 0 -119 99 -161 185 -26 53 -27 68 -11 148 2 12 17 36 34 53 17
16 28 35 25 43 -7 19 46 41 60 24 6 -7 7 -10 2 -5 -15 11 -26 8 -26 -7 0 -8
-3 -16 -7 -19 -5 -2 -2 -2 5 -1 6 2 12 -1 12 -7 0 -6 8 -8 17 -4 15 5 15 3 -2
-13 -11 -11 -23 -17 -28 -15 -4 2 -6 1 -5 -4 1 -4 -1 -18 -6 -30 -4 -13 -2
-30 4 -40 10 -16 11 -16 5 2 -5 15 -3 17 6 8 14 -14 3 -34 -15 -27 -9 3 -11
-3 -8 -25 2 -17 9 -28 14 -25 6 4 8 -1 4 -13 -5 -15 9 -35 58 -84 82 -83 139
-129 160 -129 8 0 24 17 35 38 19 37 33 53 116 132 22 21 35 41 32 51 -3 13 0
16 11 12 11 -5 14 -2 9 10 -3 9 -2 17 3 17 12 0 13 32 3 46 -5 5 0 1 9 -9 21
-23 38 -79 38 -128 0 -38 -38 -136 -62 -160 -16 -16 -49 -79 -41 -79 12 0 82
83 77 91 -3 5 0 8 8 7 15 -3 51 125 37 130 -5 2 -9 11 -9 19 0 13 2 14 17 2
16 -13 16 -11 -1 15 -10 16 -14 26 -8 22 10 -6 -8 90 -21 110 -3 6 0 11 8 11
8 0 13 -3 10 -5 -3 -3 3 -15 13 -26 21 -24 35 -56 24 -56 -4 0 -6 -33 -6 -72
1 -40 -3 -79 -8 -85 -7 -9 -7 -13 1 -13 6 0 14 12 17 26 4 17 9 22 14 14 6 -9
11 -7 18 7 8 15 8 23 -1 33 -9 10 -9 11 1 6 8 -5 12 0 12 16 0 19 -2 20 -10 8
-7 -11 -8 -6 -4 16 6 32 -14 83 -43 112 -11 11 -12 17 -2 22 8 5 5 10 -10 15
-13 4 -20 9 -18 11 6 7 57 -18 52 -25 -2 -4 12 -30 30 -59 20 -32 31 -60 28
-72 -3 -12 0 -20 7 -20 8 0 10 -8 6 -24 -3 -13 -2 -35 2 -47 8 -20 10 -18 15
18 8 45 5 55 -26 123 -11 25 -21 47 -22 50 -4 28 -97 103 -157 127 -34 13 -44
33 -17 33 6 0 7 -4 4 -10 -4 -6 7 -10 25 -10 31 0 100 -24 100 -35 0 -3 -6 -3
-12 0 -7 4 5 -9 27 -29 22 -19 45 -35 51 -36 7 0 14 -10 18 -23 3 -13 15 -45
27 -73 13 -27 24 -58 25 -69 1 -11 5 -33 8 -50 5 -22 4 -25 -2 -10 -7 15 -11
4 -16 -44 -4 -36 -16 -82 -27 -102 -10 -21 -19 -48 -19 -60 0 -14 -5 -19 -14
-16 -8 3 -24 -6 -37 -20 -13 -14 -49 -44 -79 -66 -50 -37 -61 -41 -117 -42
-34 -1 -60 2 -58 6 7 11 -39 19 -49 9 -14 -14 -26 -12 -24 3 4 19 -39 10 -63
-14 -15 -15 -29 -20 -49 -16 -30 7 -52 -11 -65 -51 -12 -41 2 -71 38 -77 17
-4 35 -5 39 -3 10 5 58 -44 58 -59 0 -8 5 -11 10 -8 6 3 10 1 10 -4 0 -6 8
-11 18 -12 14 0 14 -2 -3 -9 -32 -14 -111 -12 -124 3 -8 11 -6 13 12 13 16 -1
23 6 25 22 3 21 1 22 -16 11 -16 -10 -26 -10 -53 4 -18 8 -37 13 -41 11 -4 -3
-8 -1 -8 4 0 6 -11 13 -24 16 -13 3 -32 8 -43 11 -10 3 -4 -2 12 -10 l30 -16
-28 6 c-15 3 -36 14 -47 25 -21 21 -35 25 -43 13 -2 -5 -2 -3 -1 4 2 6 -13 24
-33 39 -29 22 -37 24 -45 13 -7 -12 -8 -11 -6 1 2 9 -19 44 -46 78 -36 46 -52
59 -59 50 -6 -9 -7 -8 -3 5 3 10 -3 35 -13 55 -10 20 -26 69 -34 107 -18 79
-11 178 17 230 9 17 16 35 16 40 0 6 14 30 30 55 31 47 38 66 18 54 -7 -4 -8
-3 -4 5 4 6 11 9 15 7 4 -3 22 10 39 29 16 19 25 35 19 36 -7 0 -1 6 13 12 14
6 34 20 44 29 22 20 32 22 40 9z m387 0 c7 11 9 10 9 -4 0 -20 -22 -19 -26 1
-2 9 -1 9 3 1 4 -8 8 -7 14 2z m334 -11 c-3 -5 -1 -10 4 -10 6 0 11 -5 11 -11
0 -8 -5 -8 -15 1 -13 11 -12 30 1 30 3 0 2 -4 -1 -10z m-214 -15 c1 -17 -18
-17 -25 0 -4 11 -1 15 10 13 8 -2 15 -7 15 -13z m-131 -16 c0 -10 -27 -19 -34
-12 -11 12 -6 19 14 19 11 0 20 -3 20 -7z m65 1 c-3 -5 -12 -10 -18 -10 -7 0
-6 4 3 10 19 12 23 12 15 0z m122 -6 c-3 -3 -12 -4 -19 -1 -8 3 -5 6 6 6 11 1
17 -2 13 -5z m-373 -13 c3 -4 -4 -7 -14 -8 -11 -1 -22 2 -24 6 -3 4 4 7 14 8
11 1 22 -2 24 -6z m461 -11 c3 -5 -4 -6 -15 -3 -11 3 -22 9 -25 13 -3 5 4 6
15 3 11 -3 22 -9 25 -13z m-686 -16 c-6 -8 -17 -14 -23 -14 -6 0 -3 5 7 11 9
6 14 15 11 21 -4 7 -2 8 5 4 9 -6 9 -11 0 -22z m766 16 c3 -6 -1 -7 -9 -4 -18
7 -21 14 -7 14 6 0 13 -4 16 -10z m-241 -78 c14 -51 16 -81 5 -108 -7 -16 -11
-33 -10 -37 1 -5 -3 -6 -9 -2 -16 10 -95 -71 -125 -130 l-28 -56 -36 35 c-20
20 -42 36 -49 36 -7 0 -12 6 -12 13 0 21 -67 81 -73 65 -4 -10 -6 -10 -7 2 0
8 -4 45 -9 83 -4 42 -3 67 3 67 5 0 7 3 4 6 -8 7 40 54 66 64 15 5 28 2 45
-11 29 -23 45 -24 37 -3 -5 13 -4 14 7 6 14 -12 27 -7 27 10 0 5 -6 6 -12 2
-8 -4 -10 -3 -5 2 5 5 13 10 18 10 5 1 10 2 12 3 1 2 13 5 26 7 14 2 27 6 29
9 8 8 91 -55 96 -73z m214 69 c11 -6 10 -10 -4 -15 -9 -3 -19 -4 -22 -1 -3 3
1 5 9 5 11 0 11 2 -1 10 -8 5 -10 10 -5 10 6 0 16 -4 23 -9z m127 -131 c3 -5
1 -10 -4 -10 -6 0 -11 5 -11 10 0 6 2 10 4 10 3 0 8 -4 11 -10z m82 -198 c3
-28 -1 -74 -10 -112 -9 -36 -19 -80 -22 -97 -4 -18 -11 -31 -17 -30 -6 1 -15
-9 -19 -23 -4 -14 -8 -20 -8 -15 -1 6 -15 -11 -31 -37 -16 -25 -33 -49 -39
-52 -6 -4 -8 -14 -5 -24 5 -14 4 -15 -5 -2 -8 12 -13 12 -23 2 -9 -9 -9 -12 2
-13 15 0 -26 -21 -45 -23 -20 -2 -156 -58 -168 -69 -12 -12 -167 -17 -167 -6
0 11 27 18 49 12 12 -3 32 2 46 11 13 9 35 16 47 16 13 0 60 21 104 48 45 26
88 48 95 50 16 3 108 102 109 116 0 5 -6 4 -13 -2 -7 -6 0 16 15 48 24 49 27
63 18 81 -7 11 -10 23 -7 25 6 6 26 -47 25 -68 -1 -9 -6 -15 -11 -11 -5 3 -6
-4 -2 -17 5 -15 4 -20 -4 -16 -6 4 -11 5 -11 2 0 -2 -3 -13 -7 -23 -6 -16 -5
-16 11 -4 28 23 46 67 52 123 6 63 5 173 -2 208 -4 19 0 16 16 -13 12 -21 24
-59 27 -85z m-86 -39 c-12 -20 -14 -14 -5 12 4 9 9 14 11 11 3 -2 0 -13 -6
-23z m-490 -46 c-10 -9 -11 -8 -5 6 3 10 9 15 12 12 3 -3 0 -11 -7 -18z m464
-39 c4 4 2 -3 -4 -16 -7 -12 -9 -28 -6 -35 4 -6 0 -4 -8 5 -8 10 -16 16 -18
13 -3 -2 -5 4 -5 15 0 10 5 16 10 13 5 -4 7 2 3 13 -7 18 -6 18 6 2 8 -10 18
-14 22 -10z m-888 -90 c-3 -8 -6 -5 -6 6 -1 11 2 17 5 13 3 -3 4 -12 1 -19z
m47 -24 c3 -8 2 -12 -4 -9 -6 3 -10 10 -10 16 0 14 7 11 14 -7z m46 -14 c6
-11 7 -20 2 -20 -6 0 -12 9 -15 20 -3 11 -3 20 -1 20 2 0 8 -9 14 -20z m660
-24 c0 -3 -4 -8 -10 -11 -5 -3 -10 -1 -10 4 0 6 5 11 10 11 6 0 10 -2 10 -4z
m36 -28 c-1 -39 -21 -43 -21 -3 0 17 5 32 11 32 6 0 11 -13 10 -29z m-894 13
c8 11 9 11 6 1 -4 -16 -22 -18 -24 -2 -2 7 -1 6 3 -1 4 -8 8 -7 15 2z m208
-26 c0 -5 -5 -3 -10 5 -5 8 -10 20 -10 25 0 6 5 3 10 -5 5 -8 10 -19 10 -25z
m847 13 c-3 -8 -6 -5 -6 6 -1 11 2 17 5 13 3 -3 4 -12 1 -19z m-227 8 c0 -2
-8 -10 -17 -17 -16 -13 -17 -12 -4 4 13 16 21 21 21 13z m-664 -38 l29 -33
-32 29 c-18 17 -33 31 -33 33 0 8 8 1 36 -29z m851 -20 c-3 -7 -5 -2 -5 12 0
14 2 19 5 13 2 -7 2 -19 0 -25z m-797 1 c0 -6 -4 -7 -10 -4 -5 3 -10 11 -10
16 0 6 5 7 10 4 6 -3 10 -11 10 -16z m390 1 c0 -5 -5 -10 -11 -10 -5 0 -7 5
-4 10 3 6 8 10 11 10 2 0 4 -4 4 -10z m17 -32 c-3 -8 -6 -5 -6 6 -1 11 2 17 5
13 3 -3 4 -12 1 -19z m-542 1 c-4 -6 3 -23 16 -37 22 -24 21 -24 -9 2 -23 22
-29 32 -20 38 17 11 20 10 13 -3z m214 -38 c-15 -5 -22 6 -14 19 6 9 10 9 16
-1 5 -8 4 -15 -2 -18z m318 -13 c-3 -8 -6 -5 -6 6 -1 11 2 17 5 13 3 -3 4 -12
1 -19z m3 -28 c0 -5 -5 -10 -11 -10 -5 0 -7 5 -4 10 3 6 8 10 11 10 2 0 4 -4
4 -10z m-327 -65 c27 -19 19 -19 -26 0 -43 18 -62 40 -22 25 15 -6 37 -17 48
-25z m90 -25 c10 -10 9 -11 -3 -4 -8 5 -22 7 -32 6 -9 -2 -19 1 -21 5 -9 14
43 8 56 -7z m282 0 c-3 -5 -12 -10 -18 -10 -7 0 -6 4 3 10 19 12 23 12 15 0z"/>
<path d="M2541 3204 c0 -11 3 -14 6 -6 3 7 2 16 -1 19 -3 4 -6 -2 -5 -13z"/>
<path d="M2420 3161 c0 -5 5 -13 10 -16 6 -3 10 -2 10 4 0 5 -4 13 -10 16 -5
3 -10 2 -10 -4z"/>
<path d="M2580 3153 c1 -14 28 -44 32 -36 3 4 -3 16 -14 26 -10 9 -18 14 -18
10z"/>
<path d="M2949 3143 c-13 -16 -12 -17 4 -4 16 13 21 21 13 21 -2 0 -10 -8 -17
-17z"/>
<path d="M3116 3135 c-3 -9 -6 -29 -5 -43 1 -22 3 -19 10 12 10 40 6 60 -5 31z"/>
<path d="M2441 3114 c-1 -23 57 -110 66 -100 4 3 -1 14 -10 24 -10 10 -17 24
-17 31 0 7 -4 10 -10 6 -5 -3 -14 9 -19 27 -6 23 -9 26 -10 12z"/>
<path d="M2624 3108 c-4 -7 -3 -10 1 -5 5 4 18 -1 29 -10 21 -18 21 -18 2 5
-22 26 -23 26 -32 10z"/>
<path d="M2911 3103 c-7 -8 -11 -16 -8 -19 2 -2 10 2 17 11 17 20 9 27 -9 8z"/>
<path d="M3062 3095 c0 -16 2 -22 5 -12 2 9 2 23 0 30 -3 6 -5 -1 -5 -18z"/>
<path d="M3160 3090 c-7 -17 -10 -33 -8 -36 3 -2 11 9 18 26 7 17 10 33 8 36
-3 2 -11 -9 -18 -26z"/>
<path d="M3081 3058 c-5 -13 -21 -35 -36 -50 -14 -16 -22 -28 -17 -28 13 0 72
71 72 87 0 20 -9 16 -19 -9z"/>
<path d="M2430 3041 c0 -6 4 -13 10 -16 6 -3 7 1 4 9 -7 18 -14 21 -14 7z"/>
<path d="M3106 3009 c-16 -16 -26 -32 -23 -36 4 -3 7 -1 7 6 0 7 4 10 9 7 8
-6 46 42 39 49 -2 2 -16 -10 -32 -26z"/>
<path d="M2826 3003 c-6 -14 -5 -15 5 -6 7 7 10 15 7 18 -3 3 -9 -2 -12 -12z"/>
<path d="M2460 3001 c0 -6 4 -13 10 -16 6 -3 7 1 4 9 -7 18 -14 21 -14 7z"/>
<path d="M2553 2972 c16 -17 57 -37 57 -27 0 2 -17 13 -37 25 -35 21 -37 21
-20 2z"/>
<path d="M2894 2976 c-10 -8 -17 -17 -14 -19 3 -3 14 1 24 9 11 7 17 16 15 19
-3 3 -14 -2 -25 -9z"/>
<path d="M3050 2949 c0 -5 5 -7 10 -4 6 3 10 8 10 11 0 2 -4 4 -10 4 -5 0 -10
-5 -10 -11z"/>
<path d="M3000 2920 l-25 -21 28 12 c15 7 27 16 27 21 0 11 -1 10 -30 -12z"/>
<path d="M2920 2920 c-12 -8 -10 -10 8 -10 13 0 20 4 17 10 -7 12 -6 12 -25 0z"/>
<path d="M2644 2888 c-4 -7 -3 -8 4 -4 7 4 12 1 12 -8 0 -18 8 -20 28 -8 9 6
6 12 -12 20 -19 8 -27 8 -32 0z"/>
<path d="M2736 3371 c-4 -5 -2 -12 3 -15 5 -4 12 -2 15 3 4 5 2 12 -3 15 -5 4
-12 2 -15 -3z"/>
<path d="M2122 3210 c0 -14 2 -19 5 -12 2 6 2 18 0 25 -3 6 -5 1 -5 -13z"/>
<path d="M2112 3125 c0 -16 2 -22 5 -12 2 9 2 23 0 30 -3 6 -5 -1 -5 -18z"/>
<path d="M3190 2659 c-22 -18 -22 -19 -3 -10 12 6 25 16 28 21 9 15 3 12 -25
-11z"/>
<path d="M1966 2222 c7 -34 -116 -347 -147 -374 -31 -26 -23 -38 27 -38 l46 0
-7 31 c-4 17 -2 43 5 60 12 29 13 29 96 29 l83 0 17 -32 c13 -24 14 -36 5 -50
-21 -35 -13 -38 94 -38 108 0 120 5 87 38 -10 10 -51 101 -91 204 l-73 186
-37 6 c-20 3 -53 6 -73 6 -36 0 -37 -1 -32 -28z m59 -159 c16 -43 30 -84 33
-90 3 -10 -14 -13 -67 -13 -39 0 -71 3 -71 7 0 15 65 173 71 173 4 0 19 -35
34 -77z"/>
<path d="M2364 2081 c-48 -12 -60 -22 -42 -35 11 -8 17 -37 20 -105 4 -84 7
-96 29 -113 30 -25 127 -22 158 6 19 17 20 17 40 -3 36 -36 151 -29 151 9 0 4
-8 7 -17 6 -16 -1 -19 12 -23 111 -3 61 -9 115 -13 120 -13 12 -101 7 -128 -7
-21 -12 -21 -14 -6 -25 13 -9 17 -28 17 -74 0 -74 -12 -101 -44 -101 -31 0
-36 15 -36 116 0 81 -1 85 -26 94 -28 11 -36 11 -80 1z"/>
<path d="M2794 2081 c-56 -14 -73 -37 -31 -43 21 -3 22 -8 25 -89 2 -68 -1
-90 -13 -102 -30 -31 -17 -37 75 -37 93 0 105 6 74 38 -13 13 -15 31 -12 96 4
68 8 82 29 98 22 19 24 19 36 2 7 -10 13 -27 13 -39 0 -29 19 -45 51 -45 57 0
78 59 35 99 -35 33 -97 39 -139 13 -34 -19 -35 -19 -51 -1 -16 20 -39 22 -92
10z"/>
<path d="M3221 2081 c-18 -5 -43 -18 -54 -29 -17 -18 -18 -23 -7 -36 7 -9 25
-16 41 -16 22 0 32 7 44 30 26 51 75 31 75 -32 0 -21 -4 -23 -58 -24 -95 -1
-154 -47 -138 -108 14 -57 110 -79 165 -38 l28 20 20 -20 c23 -22 97 -27 132
-8 27 14 27 30 1 23 -19 -5 -20 0 -20 73 0 90 -12 120 -55 146 -36 21 -126 30
-174 19z m99 -163 c0 -44 -12 -60 -41 -56 -18 2 -25 10 -27 31 -4 35 13 57 44
57 20 0 24 -5 24 -32z"/>
<path d="M2080 1692 c0 -15 34 -40 63 -47 15 -4 27 -8 27 -10 0 -1 -7 -19 -15
-38 -19 -46 -19 -72 1 -91 21 -22 56 -20 86 4 19 14 28 16 36 8 9 -9 16 -7 30
5 24 22 46 22 38 1 -24 -63 -8 -97 26 -53 32 42 39 49 48 49 6 0 5 -11 -1 -27
-14 -37 4 -53 31 -28 11 10 20 23 20 30 0 20 48 37 71 24 15 -8 26 -7 42 4 19
12 24 12 35 1 7 -8 17 -14 22 -14 13 0 70 50 70 62 0 5 -14 -2 -31 -16 -34
-29 -59 -34 -59 -11 0 8 8 15 19 15 22 0 45 25 36 40 -10 17 -20 12 -63 -30
-22 -22 -48 -40 -56 -40 -25 0 -19 18 12 32 15 7 27 20 27 27 0 28 -24 21 -62
-19 -27 -29 -46 -41 -60 -38 -21 3 -20 5 13 61 42 72 45 99 3 31 -44 -69 -69
-94 -96 -94 -13 0 -23 2 -23 4 0 3 16 32 36 66 45 75 40 88 -7 18 -37 -57 -59
-71 -59 -39 0 34 -28 25 -73 -23 -45 -47 -73 -61 -96 -47 -35 22 8 141 50 141
11 0 18 -4 15 -8 -2 -4 -1 -14 4 -22 7 -12 14 -12 27 -4 22 13 46 61 38 74
-10 17 -58 11 -85 -10 -34 -27 -96 -27 -112 0 -13 20 -28 27 -28 12z m210 -19
c-1 -19 -23 -53 -35 -53 -4 0 -4 11 -1 25 4 17 2 25 -6 25 -9 0 -8 3 2 10 23
15 40 12 40 -7z m40 -98 c0 -8 -4 -15 -9 -15 -13 0 -22 16 -14 24 11 11 23 6
23 -9z m250 11 c0 -3 -4 -8 -10 -11 -5 -3 -10 -1 -10 4 0 6 5 11 10 11 6 0 10
-2 10 -4z m80 0 c0 -3 -4 -8 -10 -11 -5 -3 -10 -1 -10 4 0 6 5 11 10 11 6 0
10 -2 10 -4z m-355 -46 c-3 -5 -11 -10 -16 -10 -6 0 -7 5 -4 10 3 6 11 10 16
10 6 0 7 -4 4 -10z m56 -63 c-16 -16 -20 -5 -8 23 9 22 11 23 14 6 3 -10 0
-23 -6 -29z m86 6 c-17 -18 -22 -8 -11 22 5 12 10 13 17 6 8 -8 6 -16 -6 -28z"/>
<path d="M2834 1675 c-31 -31 -38 -31 -52 -2 -8 18 -11 19 -11 4 -1 -9 8 -25
19 -34 11 -10 20 -23 20 -31 0 -7 13 -21 30 -30 35 -20 40 -56 11 -72 -30 -16
-52 -12 -58 10 -3 11 -9 17 -14 14 -5 -3 -5 -14 1 -25 16 -29 75 -26 96 6 20
31 12 56 -26 77 -35 20 -38 34 -8 41 13 4 26 0 33 -10 16 -21 43 -11 55 22 14
38 3 55 -37 55 -23 0 -42 -8 -59 -25z m84 -12 c-3 -30 -38 -47 -38 -19 0 13
-7 15 -27 10 l-28 -5 24 20 c13 12 34 21 48 21 21 0 24 -4 21 -27z"/>
<path d="M2931 1601 c-43 -83 -41 -105 5 -55 21 24 33 31 28 19 -3 -11 -9 -31
-12 -44 -4 -21 -2 -23 19 -17 13 4 34 8 47 10 13 2 28 8 35 15 15 15 40 14 34
-1 -3 -7 -12 -30 -21 -50 -9 -21 -12 -38 -8 -38 5 0 16 18 24 39 13 32 20 39
36 35 22 -6 65 40 59 65 -4 20 -44 17 -67 -4 -22 -20 -27 -19 -33 5 -7 28 -33
25 -54 -6 -46 -67 -79 -83 -48 -25 21 41 11 57 -21 36 l-25 -16 21 41 c12 23
19 44 16 47 -2 3 -18 -22 -35 -56z m125 -38 c-10 -10 -19 5 -10 18 6 11 8 11
12 0 2 -7 1 -15 -2 -18z m102 -5 c-18 -26 -38 -35 -38 -16 0 18 20 38 38 38
12 0 12 -3 0 -22z m-118 -18 c0 -5 -4 -10 -10 -10 -5 0 -10 5 -10 10 0 6 5 10
10 10 6 0 10 -4 10 -10z"/>
</g>
</svg>
