<?xml version="1.0" standalone="no"?>
<!DOCTYPE svg PUBLIC "-//W3C//DTD SVG 20010904//EN"
 "http://www.w3.org/TR/2001/REC-SVG-20010904/DTD/svg10.dtd">
<svg version="1.0" xmlns="http://www.w3.org/2000/svg"
 width="500.000000pt" height="500.000000pt" viewBox="0 0 500.000000 500.000000"
 preserveAspectRatio="xMidYMid meet">

<g transform="translate(0.000000,500.000000) scale(0.100000,-0.100000)"
fill="#FAF3E0" stroke="none">
<path d="M2799 4490 c-718 -70 -1307 -421 -1623 -966 -58 -101 -122 -248 -131
-300 -4 -29 10 -6 58 91 192 391 496 691 902 890 291 143 578 211 936 222 709
23 1371 -297 1732 -835 324 -482 340 -1091 42 -1597 -238 -405 -676 -722
-1180 -854 -189 -50 -319 -65 -560 -65 -256 -1 -353 11 -580 69 -542 138
-1007 500 -1239 964 -118 234 -157 419 -156 734 0 114 -2 207 -5 207 -2 0 -12
-26 -21 -57 -13 -41 -19 -113 -23 -248 l-6 -189 -45 -14 c-25 -7 -128 -17
-230 -22 -278 -14 -365 -43 -487 -166 -80 -79 -129 -167 -159 -284 -25 -101
-15 -307 21 -420 42 -132 89 -223 138 -265 51 -45 159 -98 247 -122 87 -24
349 -24 508 0 137 21 313 22 404 3 149 -32 275 -125 337 -250 100 -199 425
-396 786 -476 413 -91 951 -14 1390 199 251 122 374 218 502 392 231 310 382
585 459 829 25 80 65 206 89 280 72 224 80 276 80 515 0 230 -9 293 -67 475
-66 208 -189 417 -350 600 -246 278 -617 497 -1008 595 -230 59 -550 86 -761
65z m-1825 -2050 c3 -30 2 -47 -2 -37 -6 15 -9 14 -24 -11 -10 -16 -22 -42
-28 -58 l-11 -29 25 24 24 23 -14 -42 c-8 -24 -13 -45 -10 -47 7 -7 46 73 46
94 1 16 2 16 10 2 7 -12 1 -35 -21 -84 -16 -37 -28 -69 -26 -71 8 -8 37 33 51
72 11 29 15 33 15 16 1 -13 -5 -35 -13 -50 -7 -15 -17 -38 -21 -51 -10 -31 10
-20 37 23 11 17 17 23 14 13 -3 -11 -9 -31 -13 -45 -6 -24 -4 -25 10 -14 13
11 15 10 9 -10 -5 -19 -3 -21 9 -11 13 10 21 0 51 -68 l37 -80 -42 24 c-74 44
-151 60 -247 54 -47 -4 -112 -14 -145 -22 -84 -22 -313 -137 -353 -177 -94
-93 -90 -260 7 -353 l31 -29 -11 31 c-7 23 -7 37 1 52 15 30 21 26 9 -5 -14
-40 -3 -41 20 -3 25 41 27 35 5 -17 -14 -34 -14 -37 0 -25 18 15 66 113 66
135 0 15 18 32 26 24 2 -3 -14 -44 -36 -92 -22 -47 -40 -89 -40 -92 0 -31 71
95 84 149 3 15 13 27 21 27 10 0 1 -27 -31 -94 -46 -98 -54 -123 -29 -90 14
18 14 17 5 -9 -15 -43 -12 -45 11 -9 24 37 37 37 19 0 -10 -22 -10 -21 12 3
13 14 28 35 35 45 7 10 5 2 -3 -20 -8 -21 -13 -40 -11 -43 11 -10 87 147 87
180 0 7 -9 -1 -20 -18 l-21 -30 7 30 c9 40 14 44 46 38 26 -5 27 -6 13 -33
-21 -41 -66 -162 -61 -167 7 -7 46 68 68 132 13 36 29 65 35 65 17 0 17 0 -12
-52 -27 -48 -58 -129 -51 -135 6 -6 51 76 71 130 10 26 24 47 31 47 8 0 -4
-32 -33 -86 -25 -47 -43 -87 -40 -90 6 -7 74 102 89 144 7 18 19 32 28 32 14
0 11 -12 -17 -66 -38 -77 -44 -118 -8 -59 29 46 32 43 10 -9 -19 -46 -13 -46
15 0 27 43 38 38 14 -8 -15 -29 -15 -31 -1 -20 19 16 77 128 77 149 0 7 7 13
15 13 11 0 7 -15 -15 -62 -17 -35 -30 -70 -30 -78 1 -20 47 56 61 100 13 39
26 57 34 48 4 -3 -8 -34 -25 -68 -17 -34 -29 -64 -26 -67 7 -7 65 86 72 115 4
12 13 22 20 22 12 0 12 -4 -2 -25 -18 -28 -49 -124 -35 -110 13 14 61 111 61
124 0 6 7 11 15 11 19 0 19 -3 -4 -48 -20 -41 -35 -92 -26 -92 4 0 22 34 41
75 21 45 41 75 50 75 12 0 10 -9 -10 -43 -14 -23 -32 -63 -41 -87 l-15 -45 25
30 c14 17 32 53 41 80 20 60 22 62 54 68 14 3 48 14 75 24 l50 19 -1 51 -2 51
61 -76 c308 -388 775 -642 1337 -728 153 -24 478 -24 640 -1 487 71 922 284
1230 604 47 48 105 111 129 138 l43 50 -57 -109 c-62 -118 -135 -238 -168
-274 -12 -12 -22 -30 -23 -39 -3 -17 -154 -174 -154 -159 0 4 35 44 77 87 42
44 72 79 66 79 -5 0 -20 -11 -33 -25 -13 -14 -27 -25 -31 -25 -4 0 25 33 65
73 39 39 81 92 94 117 22 43 22 44 2 20 -91 -107 -123 -140 -136 -140 -8 0
-14 -4 -14 -9 0 -7 -81 -73 -118 -95 -8 -5 -3 9 10 30 14 22 28 46 32 54 9 19
0 8 -68 -79 -55 -68 -131 -120 -348 -237 -68 -36 -112 -62 -98 -58 43 11 222
99 293 142 67 42 87 44 45 5 -27 -24 -170 -117 -248 -162 -30 -17 -52 -31 -47
-31 14 0 134 57 197 94 61 36 61 36 42 9 -24 -33 -89 -96 -117 -112 l-20 -13
20 6 c17 5 16 3 -5 -16 -14 -13 -39 -33 -55 -46 l-30 -23 32 15 c18 9 60 40
94 68 66 56 199 151 199 143 0 -3 44 38 97 92 53 54 92 91 87 83 -89 -129
-179 -212 -361 -329 -55 -36 -109 -72 -120 -79 -10 -6 20 7 67 29 47 23 105
55 129 72 24 16 41 26 38 20 -16 -25 -170 -120 -297 -184 -167 -83 -384 -157
-570 -195 -126 -26 -152 -28 -385 -28 -267 -1 -309 4 -502 60 -96 27 -266 99
-287 120 -8 7 -16 10 -19 7 -9 -8 -112 52 -193 112 -86 64 -147 135 -204 235
-24 41 -63 110 -87 153 -24 42 -74 110 -111 151 -37 41 -89 106 -117 145 -27
39 -52 70 -55 71 -7 0 -83 -116 -105 -160 l-18 -35 22 20 c13 11 30 32 39 47
30 52 45 23 17 -32 -18 -35 -3 -40 19 -8 21 29 20 16 0 -25 l-16 -32 32 30 33
30 -5 -28 c-4 -20 -2 -25 5 -18 13 13 27 14 27 2 0 -5 16 -25 35 -44 41 -41
42 -40 14 8 -16 26 -19 42 -13 56 8 18 15 11 59 -57 28 -43 53 -83 58 -90 4
-7 -21 0 -55 15 -57 26 -118 40 -232 55 -48 6 -205 -8 -391 -35 -214 -32 -376
-12 -514 61 -79 42 -120 90 -161 187 -49 119 -70 213 -70 322 0 202 78 366
222 464 84 58 151 76 336 93 127 11 183 21 246 42 92 32 89 34 100 -58z m59
-464 c32 -16 78 -51 102 -77 47 -50 94 -134 82 -146 -10 -10 -436 -24 -527
-17 -144 10 -310 53 -310 79 0 20 76 70 178 118 136 64 191 77 312 74 93 -2
111 -5 163 -31z m-695 -255 c-7 -9 -14 -18 -15 -20 -2 -2 -3 10 -3 29 0 28 2
31 15 20 12 -10 13 -16 3 -29z m82 -7 c43 -18 47 -26 25 -64 l-15 -25 6 33 c4
17 4 32 0 32 -3 0 -13 -15 -21 -32 l-15 -33 6 35 c5 33 4 34 -11 15 -8 -10
-21 -34 -27 -52 -7 -18 -16 -33 -20 -33 -13 0 -9 17 13 54 28 47 19 72 -9 26
-26 -42 -29 -25 -5 25 19 40 19 40 73 19z m131 -67 c-8 -8 -11 -7 -11 4 0 20
13 34 18 19 3 -7 -1 -17 -7 -23z m22 -12 c-9 -19 -18 -33 -20 -31 -6 6 19 66
28 66 5 0 1 -16 -8 -35z m261 -17 c-23 -45 -27 -48 -18 -13 9 38 13 45 25 45
5 0 2 -15 -7 -32z m469 -32 c3 -7 -1 -24 -10 -36 -21 -30 -38 -12 -22 23 14
30 24 34 32 13z m13 -64 c-18 -16 -19 -16 -12 1 3 10 6 24 6 30 0 8 4 7 12 -1
10 -9 8 -16 -6 -30z m34 -11 c0 -5 -7 -14 -15 -21 -16 -14 -18 -10 -9 14 6 17
24 22 24 7z m1 -54 c-10 -9 -11 -8 -5 6 3 10 9 15 12 12 3 -3 0 -11 -7 -18z
m2952 -151 c-11 -20 -113 -100 -113 -89 0 11 54 63 90 86 30 21 33 21 23 3z
m-79 -123 c-15 -26 -115 -113 -129 -113 -15 0 41 64 87 101 27 21 52 39 54 39
3 0 -2 -12 -12 -27z"/>
<path d="M633 2404 c-127 -21 -261 -81 -313 -140 -16 -19 -18 -23 -5 -12 61
51 262 124 419 153 63 11 66 13 26 13 -25 0 -82 -6 -127 -14z"/>
<path d="M268 2273 c-33 -32 -73 -76 -88 -98 -31 -46 -70 -146 -69 -178 0 -13
8 0 19 31 23 64 112 200 171 260 61 62 37 51 -33 -15z"/>
<path d="M220 1840 c-55 -108 -43 -248 30 -340 16 -20 14 -12 -7 35 -37 82
-44 205 -16 288 11 31 18 57 17 57 -2 0 -13 -18 -24 -40z"/>
<path d="M1205 1630 c-43 -66 -53 -72 -30 -17 8 20 15 40 15 44 0 16 -53 -71
-76 -125 l-24 -57 22 26 c13 14 29 35 36 45 7 10 3 -1 -8 -26 l-21 -45 36 40
35 40 -27 -50 c-20 -37 -22 -46 -9 -36 25 21 75 95 92 139 14 36 14 36 -3 16
-10 -11 -26 -31 -36 -45 -9 -13 -3 5 13 40 17 34 30 65 27 67 -2 2 -21 -23
-42 -56z"/>
<path d="M1093 1610 c-16 -36 -33 -76 -37 -90 -7 -25 -7 -25 10 -5 26 31 66
123 62 143 -2 10 -15 -7 -35 -48z"/>
<path d="M729 1465 c-65 -13 -148 -27 -185 -31 -62 -6 -66 -8 -39 -16 57 -18
206 -11 347 16 76 14 161 26 190 26 49 1 51 2 30 14 -40 22 -212 18 -343 -9z"/>
<path d="M1580 1324 c0 -11 52 -102 133 -234 70 -113 198 -257 217 -245 11 6
78 -34 99 -59 14 -17 36 -23 26 -6 -3 5 15 1 40 -10 74 -32 73 -23 -2 16 -73
39 -96 54 -89 61 2 2 26 -7 53 -20 51 -26 146 -57 172 -57 9 1 -12 12 -47 25
-105 40 -221 106 -243 136 -11 16 -17 29 -13 29 3 0 38 -11 77 -25 38 -14 71
-24 73 -22 2 2 -35 21 -82 42 -63 28 -92 47 -105 69 -10 16 -17 31 -15 33 1 1
33 -10 72 -26 113 -47 125 -45 29 4 -115 60 -135 73 -135 88 0 8 29 -1 81 -26
44 -21 83 -36 86 -33 3 2 -10 12 -29 22 -18 9 -87 51 -153 93 -66 43 -133 86
-150 96 -35 22 47 -53 112 -103 46 -35 59 -61 21 -41 -59 30 -153 105 -188
151 -22 27 -40 46 -40 42z m207 -206 c31 -20 56 -44 62 -60 13 -37 2 -35 -56
10 -54 44 -128 131 -83 100 14 -10 48 -32 77 -50z m107 -153 c9 -26 -8 -17
-59 30 l-50 46 52 -31 c28 -17 54 -37 57 -45z m1 -45 c10 -11 16 -20 13 -20
-3 0 -13 9 -23 20 -10 11 -16 20 -13 20 3 0 13 -9 23 -20z m46 -37 c13 -16 12
-17 -3 -4 -17 13 -22 21 -14 21 2 0 10 -8 17 -17z"/>
<path d="M3175 675 c-49 -7 -142 -17 -205 -21 -107 -7 -112 -9 -65 -16 65 -11
198 -1 309 23 144 31 126 37 -39 14z"/>
<path d="M2595 614 c47 -14 295 -33 295 -22 0 3 -57 11 -127 17 -71 6 -148 13
-173 16 l-45 4 50 -15z"/>
<path d="M2819 4390 c-684 -44 -1280 -417 -1554 -975 -110 -225 -148 -389
-149 -640 0 -246 44 -434 152 -646 84 -166 158 -266 306 -415 150 -150 304
-260 490 -349 461 -221 1036 -259 1519 -101 628 206 1079 684 1184 1256 23
127 23 361 -1 490 -53 294 -207 581 -431 805 -132 133 -336 283 -368 272 -6
-2 -38 14 -71 35 -32 21 -63 38 -68 38 -4 0 -7 5 -5 12 7 35 -299 150 -499
187 -101 19 -322 43 -369 39 -11 0 -72 -4 -136 -8z m189 -77 c-26 -2 -71 -2
-100 0 -29 2 -8 3 47 3 55 0 79 -1 53 -3z m417 -33 c50 -11 104 -24 120 -30
29 -9 28 -10 -10 -5 l-40 4 30 -14 c52 -24 13 -16 -100 21 -155 51 -155 58 0
24z m-840 0 c-35 -15 -186 -60 -201 -60 -8 0 -12 5 -8 11 3 6 15 9 25 6 11 -3
19 -1 19 4 0 5 3 8 8 8 4 -1 9 0 12 1 3 1 12 3 20 5 8 3 40 11 70 19 63 16 84
18 55 6z m730 -29 c56 -27 28 -32 -35 -5 -42 18 -49 23 -29 24 14 0 43 -8 64
-19z m-665 -20 c0 -5 -13 -9 -30 -9 -16 1 -30 5 -30 10 0 4 14 8 30 8 17 0 30
-4 30 -9z m80 -2 c0 -5 -5 -7 -11 -3 -6 3 -15 0 -20 -7 -7 -12 -11 -11 -26 4
-16 16 -16 17 20 17 20 0 37 -5 37 -11z m103 4 c-7 -2 -19 -2 -25 0 -7 3 -2 5
12 5 14 0 19 -2 13 -5z m54 1 c-3 -3 -12 -4 -19 -1 -8 3 -5 6 6 6 11 1 17 -2
13 -5z m143 -4 c0 -5 -9 -10 -20 -10 -11 0 -20 5 -20 10 0 6 9 10 20 10 11 0
20 -4 20 -10z m-457 -35 c9 -19 13 -35 8 -35 -7 0 -15 14 -39 63 -2 4 0 7 5 7
5 0 17 -16 26 -35z m531 21 c-3 -8 -13 -12 -25 -9 -27 7 -24 23 6 23 17 0 23
-4 19 -14z m281 4 c-3 -5 -12 -10 -18 -10 -7 0 -6 4 3 10 19 12 23 12 15 0z
m-848 -30 c6 -16 10 -30 7 -30 -2 0 -10 14 -19 30 -9 17 -12 30 -7 30 4 0 13
-13 19 -30z m633 19 c0 -14 -24 -23 -28 -11 -2 7 -8 10 -13 6 -5 -3 -9 -1 -9
4 0 5 11 10 25 10 14 0 25 -4 25 -9z m61 -22 c-1 -4 -1 -11 -1 -17 0 -14 -13
-13 -35 3 -23 18 -11 39 16 29 11 -5 20 -11 20 -15z m169 13 c0 -5 -10 -10
-22 -9 -22 0 -22 1 -3 9 11 5 21 9 23 9 1 1 2 -3 2 -9z m-380 -10 c0 -5 -6
-10 -14 -10 -8 0 -18 5 -21 10 -3 6 3 10 14 10 12 0 21 -4 21 -10z m415 0 c3
-5 -1 -10 -10 -10 -9 0 -13 5 -10 10 3 6 8 10 10 10 2 0 7 -4 10 -10z m-365
-10 c0 -5 -4 -10 -10 -10 -5 0 -10 5 -10 10 0 6 5 10 10 10 6 0 10 -4 10 -10z
m202 -15 c0 -5 -5 -11 -11 -13 -6 -2 -11 4 -11 13 0 9 5 15 11 13 6 -2 11 -8
11 -13z m211 8 c-7 -2 -19 -2 -25 0 -7 3 -2 5 12 5 14 0 19 -2 13 -5z m-1102
-19 c12 -14 11 -16 -5 -13 -11 2 -21 10 -24 17 -5 17 13 15 29 -4z m289 -10
c0 -8 -4 -12 -10 -9 -5 3 -10 13 -10 21 0 8 5 12 10 9 6 -3 10 -13 10 -21z
m60 16 c0 -5 -2 -10 -4 -10 -3 0 -8 5 -11 10 -3 6 -1 10 4 10 6 0 11 -4 11
-10z m270 1 c0 -14 -30 -35 -38 -26 -4 4 -1 10 6 12 6 3 10 9 6 14 -3 5 2 9
10 9 9 0 16 -4 16 -9z m140 -1 c0 -5 -4 -10 -10 -10 -5 0 -10 5 -10 10 0 6 5
10 10 10 6 0 10 -4 10 -10z m54 -6 c23 -9 20 -24 -4 -24 -11 0 -20 7 -20 15 0
17 2 18 24 9z m156 -2 c0 -5 -11 -19 -25 -32 l-25 -24 11 32 c10 28 39 46 39
24z m-837 -62 c-5 -6 -42 41 -43 55 0 6 11 -3 24 -20 13 -16 22 -32 19 -35z
m91 21 c-6 -6 -24 19 -24 34 1 6 7 1 15 -9 8 -11 12 -22 9 -25z m780 31 c3 -4
-14 -26 -36 -48 -43 -40 -42 -30 2 24 29 36 27 34 34 24z m496 -37 c0 -3 -18
4 -40 15 -22 11 -40 23 -40 25 0 3 18 -4 40 -15 22 -11 40 -23 40 -25z m-816
20 c-4 -8 -8 -15 -10 -15 -2 0 -4 7 -4 15 0 8 4 15 10 15 5 0 7 -7 4 -15z
m168 -35 c-15 -27 -30 -50 -34 -50 -9 0 13 52 25 61 5 3 8 9 8 13 -3 20 1 26
14 26 12 0 9 -11 -13 -50z m300 38 c-9 -9 -15 -9 -24 0 -9 9 -7 12 12 12 19 0
21 -3 12 -12z m-1106 -26 c-22 -5 -30 3 -21 18 5 8 11 7 22 -2 15 -12 14 -13
-1 -16z m685 -5 c-8 -8 -11 -7 -11 4 0 20 13 34 18 19 3 -7 -1 -17 -7 -23z
m165 -4 c-8 -15 -15 -25 -16 -21 0 12 23 58 27 54 3 -2 -2 -17 -11 -33z m149
17 c-10 -11 -25 -20 -33 -20 -12 0 -12 4 3 20 10 11 25 20 33 20 12 0 12 -4
-3 -20z m223 -5 c-8 -8 -48 8 -42 16 3 5 14 4 25 -2 12 -6 19 -12 17 -14z
m-1463 -5 c3 -6 -1 -7 -9 -4 -18 7 -21 14 -7 14 6 0 13 -4 16 -10z m90 -2 c25
-11 30 -19 19 -31 -8 -7 -54 22 -54 34 0 12 4 11 35 -3z m915 3 c0 -6 -4 -13
-10 -16 -5 -3 -10 1 -10 9 0 9 5 16 10 16 6 0 10 -4 10 -9z m313 3 c7 -8 -17
-34 -32 -34 -14 0 -14 13 1 28 13 13 22 15 31 6z m-1423 -24 c-24 -15 -37 -11
-16 5 11 8 22 12 25 9 3 -3 -1 -9 -9 -14z m901 -11 c-9 -22 -10 -22 -10 -3 -1
11 2 24 6 27 12 12 14 0 4 -24z m169 16 c0 -8 -4 -15 -10 -15 -5 0 -7 7 -4 15
4 8 8 15 10 15 2 0 4 -7 4 -15z m460 5 c8 -5 11 -10 5 -10 -5 0 -17 5 -25 10
-8 5 -10 10 -5 10 6 0 17 -5 25 -10z m417 -60 c12 0 65 -41 60 -47 -7 -6 -52
18 -129 68 -84 54 -86 60 -6 15 37 -20 71 -37 75 -36z m-1572 50 c-3 -5 -10
-10 -16 -10 -5 0 -9 5 -9 10 0 6 7 10 16 10 8 0 12 -4 9 -10z m-318 -6 c-3 -3
-12 -4 -19 -1 -8 3 -5 6 6 6 11 1 17 -2 13 -5z m109 -9 c10 -8 14 -15 8 -15
-5 0 -19 7 -30 15 -10 8 -14 15 -8 15 5 0 19 -7 30 -15z m1144 6 c0 -13 -26
-32 -33 -24 -8 7 11 33 24 33 5 0 9 -4 9 -9z m-363 -38 c-3 -10 -5 -4 -5 12 0
17 2 24 5 18 2 -7 2 -21 0 -30z m646 30 c-7 -2 -19 -2 -25 0 -7 3 -2 5 12 5
14 0 19 -2 13 -5z m-1467 -18 c16 -12 16 -14 3 -15 -9 0 -22 7 -29 15 -16 19
0 19 26 0z m407 1 l42 5 -38 -20 c-34 -18 -45 -19 -95 -9 -41 8 -50 13 -36 19
10 3 25 2 32 -3 8 -7 12 -7 12 0 0 13 34 21 38 10 2 -4 22 -5 45 -2z m132 4
c3 -5 -1 -10 -9 -10 -8 0 -18 5 -21 10 -3 6 1 10 9 10 8 0 18 -4 21 -10z m324
-86 c-13 -29 -13 -29 -17 -5 -2 14 2 43 10 65 l13 41 3 -36 c2 -19 -3 -48 -9
-65z m-1060 51 c-19 -19 -37 -35 -42 -35 -5 0 -27 -13 -50 -29 -23 -15 -58
-32 -77 -36 -19 -4 -59 -20 -87 -35 -61 -32 -61 -26 -1 22 23 18 38 27 34 19
-10 -16 13 -10 84 22 55 25 31 36 -27 12 -21 -9 -33 -12 -28 -6 6 5 51 25 100
44 50 19 89 40 88 46 -2 6 6 11 18 11 19 0 17 -3 -12 -35z m76 25 c-3 -5 -11
-10 -16 -10 -6 0 -7 5 -4 10 3 6 11 10 16 10 6 0 7 -4 4 -10z m1065 -22 c0
-29 -18 -58 -36 -58 -13 0 -15 7 -9 37 4 21 9 41 11 45 9 14 34 -4 34 -24z
m-1167 15 c-7 -2 -19 -2 -25 0 -7 3 -2 5 12 5 14 0 19 -2 13 -5z m197 -14 c0
-10 -12 -11 -34 -3 -9 3 -14 10 -11 14 6 10 45 1 45 -11z m190 11 c-8 -5 -24
-9 -35 -9 -16 1 -16 2 5 9 35 11 48 11 30 0z m924 -5 c-4 -8 -10 -15 -15 -15
-4 0 -6 7 -3 15 4 8 10 15 15 15 4 0 6 -7 3 -15z m719 -26 c45 -22 87 -46 92
-51 7 -8 5 -9 -5 -4 -8 4 -2 -4 13 -18 37 -34 18 -33 -34 1 -29 19 -36 29 -27
34 9 6 6 9 -9 9 -13 0 -23 5 -23 10 0 6 -6 10 -12 10 -14 1 -98 50 -85 50 5 0
46 -18 90 -41z m-817 15 c-3 -9 -6 -20 -6 -25 0 -5 -4 -9 -9 -9 -4 0 -6 11 -3
25 2 14 9 25 14 25 6 0 7 -7 4 -16z m-931 -3 c-6 -5 -21 -11 -35 -15 -21 -5
-20 -3 5 9 35 17 42 18 30 6z m685 -1 c0 -5 -4 -10 -10 -10 -5 0 -10 5 -10 10
0 6 5 10 10 10 6 0 10 -4 10 -10z m595 1 c3 -5 1 -12 -5 -16 -14 -9 -52 4 -45
16 8 12 42 12 50 0z m72 3 c-3 -3 -12 -4 -19 -1 -8 3 -5 6 6 6 11 1 17 -2 13
-5z m-1591 -19 c-26 -19 -42 -19 -26 0 7 8 20 15 29 15 13 -1 13 -3 -3 -15z
m529 6 c17 -7 16 -9 -10 -15 -16 -4 -58 -24 -94 -45 -36 -21 -87 -50 -113 -65
-27 -15 -74 -49 -106 -75 -32 -27 -76 -58 -98 -69 -21 -11 -59 -39 -84 -61
l-45 -42 57 35 c47 29 128 62 128 52 0 -2 -28 -17 -63 -34 -35 -18 -72 -41
-83 -53 -10 -13 -13 -19 -6 -15 6 4 12 3 12 -3 0 -5 -24 -28 -52 -52 -29 -23
-46 -40 -37 -36 9 3 -3 -15 -28 -40 -47 -49 -95 -125 -57 -91 11 9 26 18 34
20 8 2 18 9 21 17 3 8 13 15 23 17 16 2 16 1 2 -21 -20 -31 -20 -41 -1 -25 21
17 19 1 -2 -23 -14 -15 -20 -46 -25 -146 -9 -156 -14 -201 -23 -230 -12 -37
25 -22 46 19 18 35 16 86 -3 74 -6 -4 -4 4 3 17 12 23 12 23 20 4 4 -11 8 -29
9 -40 0 -11 10 -40 21 -65 16 -35 22 -41 29 -30 7 10 10 11 10 2 0 -6 11 -35
25 -64 14 -28 25 -58 25 -66 0 -14 30 -49 30 -35 1 4 7 -3 15 -17 9 -15 14
-19 15 -10 1 28 20 -12 21 -45 0 -16 3 -24 6 -17 8 20 23 14 24 -10 0 -13 3
-17 6 -10 7 18 23 4 23 -21 0 -18 2 -19 10 -7 7 10 10 11 10 2 0 -20 69 -81
123 -108 41 -21 49 -23 43 -9 -3 9 -6 29 -6 44 0 15 -7 36 -16 47 -14 18 -15
16 -11 -23 3 -24 1 -43 -4 -43 -5 0 -9 17 -9 38 0 25 -7 48 -20 62 -11 13 -20
27 -20 32 0 5 -4 6 -10 3 -5 -3 -10 3 -10 15 0 12 -3 19 -7 17 -5 -3 -19 10
-33 29 -14 19 -37 51 -52 71 -16 20 -28 42 -28 50 0 8 -4 12 -8 9 -8 -4 -48
82 -108 234 l-19 45 -6 -30 c-4 -17 -5 1 -4 40 2 39 6 84 10 100 5 24 4 27 -5
15 -11 -13 -11 -13 -7 0 3 8 13 33 22 55 15 35 15 38 1 26 -23 -19 -20 -2 9
44 28 46 32 63 10 45 -41 -34 11 52 59 96 12 12 36 29 52 37 16 9 23 16 16 17
-23 0 -1 21 42 40 l41 18 -40 8 c-37 7 -38 8 -15 15 14 4 34 7 45 7 l20 1 -20
-10 c-20 -10 40 -6 95 6 24 5 24 5 3 -6 -12 -6 -24 -18 -27 -26 -4 -9 -1 -12
7 -7 6 3 -1 -6 -18 -21 -16 -14 -25 -24 -20 -22 6 2 27 12 47 22 27 12 41 14
55 6 14 -8 15 -10 3 -11 -8 0 -32 -9 -52 -19 -19 -11 -38 -18 -41 -15 -8 8
-24 -48 -37 -123 -6 -40 -16 -75 -21 -79 -16 -9 -9 -96 15 -189 28 -110 37
-128 92 -185 24 -25 52 -63 63 -85 11 -22 21 -33 21 -25 1 8 8 -1 15 -20 8
-20 14 -27 14 -17 1 13 29 -10 93 -75 50 -51 89 -84 85 -73 -6 19 -6 19 6 1 7
-10 20 -28 30 -40 l18 -21 -11 23 c-18 37 -3 38 19 1 12 -19 21 -28 21 -20 0
8 11 -1 25 -20 14 -19 29 -34 33 -33 4 0 16 -11 26 -24 11 -14 29 -35 40 -47
12 -12 29 -34 39 -49 10 -14 24 -26 32 -26 21 0 45 29 45 56 0 13 5 24 11 24
5 0 7 5 4 10 -3 6 -2 10 3 10 5 0 15 21 22 46 7 25 33 70 56 99 24 29 56 74
72 101 20 35 44 58 87 83 32 19 91 66 129 105 39 39 74 70 79 68 4 -1 7 7 7
17 0 26 17 36 23 14 3 -10 5 -1 6 19 1 21 -8 52 -20 73 -12 20 -19 38 -16 41
3 3 17 -16 31 -43 21 -40 25 -44 26 -23 0 20 2 22 10 10 8 -12 10 -12 10 5 0
11 -5 38 -10 60 -11 50 -7 54 17 15 l19 -30 -3 55 c-1 30 2 55 7 55 16 0 12
15 -15 55 -14 20 -24 42 -22 49 6 17 78 -101 108 -179 16 -41 31 -103 35 -147
8 -92 -13 -315 -29 -299 -7 7 -24 -26 -55 -102 -46 -117 -59 -140 -72 -132 -5
3 -6 -5 -2 -17 3 -14 2 -19 -6 -14 -8 5 -12 0 -12 -13 0 -25 -15 -28 -24 -4
-6 14 -9 12 -21 -11 -8 -16 -15 -35 -15 -43 0 -8 -4 -11 -10 -8 -6 4 -8 -10
-4 -38 4 -28 2 -47 -5 -51 -7 -5 -11 2 -11 18 0 48 -20 38 -21 -11 l-1 -48 -8
38 c-11 59 -18 54 -22 -16 -3 -72 -7 -70 57 -18 16 13 46 45 66 72 20 27 39
46 43 42 3 -3 6 1 6 11 0 9 5 14 10 11 6 -3 10 0 10 7 0 9 3 9 10 -2 8 -12 10
-10 10 9 0 13 3 21 7 18 3 -4 14 7 24 23 11 17 23 30 29 30 5 0 10 5 10 11 0
6 9 24 20 39 11 16 23 42 26 59 4 17 10 31 15 31 5 0 6 15 3 33 -4 25 -3 29 6
17 8 -11 9 -3 5 35 l-6 50 20 -25 21 -25 -9 32 c-5 18 -12 38 -16 45 -4 7 0 5
8 -4 21 -26 27 -22 27 17 0 37 -20 86 -48 118 -8 9 -10 17 -5 17 6 0 25 -21
42 -47 17 -27 31 -42 31 -35 0 23 -27 77 -49 96 -11 11 -21 28 -21 39 0 15 10
7 37 -29 29 -37 39 -45 41 -31 2 10 -5 36 -16 58 -14 27 -15 36 -5 28 12 -11
13 -8 8 17 -4 16 -9 36 -12 44 -2 8 -6 28 -9 44 -2 16 -10 39 -19 52 -21 33
-19 40 7 18 l22 -19 -21 35 c-28 47 -55 112 -43 105 28 -17 -23 79 -52 99 -21
15 -21 16 -3 15 23 -1 66 -17 48 -18 -24 -2 -1 -28 52 -60 60 -37 69 -46 29
-31 -48 19 -49 10 -1 -17 48 -27 60 -43 31 -43 -13 0 -11 -5 8 -19 16 -13 25
-31 26 -55 2 -20 0 -36 -3 -36 -2 0 -21 32 -40 70 -19 39 -37 70 -39 70 -2 0
9 -36 25 -79 35 -99 59 -213 57 -274 -1 -54 -21 -121 -32 -110 -5 5 -5 -12 -1
-37 7 -43 6 -44 -10 -25 -16 20 -16 19 -11 -7 3 -14 9 -34 12 -45 5 -17 4 -17
-10 1 -14 18 -16 18 -16 2 0 -19 27 -76 36 -76 4 0 4 9 1 20 -3 11 -2 18 3 15
4 -3 11 11 14 30 4 20 11 33 17 30 5 -4 9 9 9 27 0 62 15 63 38 3 25 -65 28
-87 8 -60 -13 18 -14 15 -11 -28 2 -30 0 -45 -7 -41 -7 4 -8 -5 -3 -26 6 -25
4 -31 -6 -25 -9 6 -10 3 -5 -11 5 -10 13 -31 18 -46 14 -39 28 -35 28 8 0 24
4 33 11 28 9 -5 10 7 7 44 -4 46 -3 50 9 34 12 -15 13 -12 7 28 -3 25 -10 53
-15 62 -5 9 -9 27 -9 39 0 18 2 20 16 8 13 -11 14 -9 8 17 -4 16 -13 47 -21
69 l-13 40 24 -30 c14 -16 25 -41 26 -54 0 -13 3 -22 6 -18 12 12 5 183 -10
225 -10 28 -12 42 -4 42 7 0 5 7 -4 18 -8 9 -18 26 -22 36 -5 16 -4 17 9 6 20
-16 19 -6 -1 25 -9 14 -13 25 -9 25 5 0 1 8 -7 18 -8 9 -32 54 -53 99 -21 45
-41 80 -45 78 -4 -2 -20 9 -36 26 l-29 31 40 -17 c22 -10 46 -18 52 -18 13 0
86 -95 131 -168 16 -26 32 -94 58 -240 24 -134 43 -215 56 -236 11 -18 22 -33
25 -33 3 0 3 20 -1 46 -4 33 -3 43 6 38 8 -5 9 -2 5 10 -4 10 -7 24 -7 31 0 7
-12 27 -26 44 -14 17 -24 38 -20 46 3 8 1 17 -4 20 -6 4 -10 18 -9 33 l0 27
10 -25 c6 -13 22 -40 36 -60 l26 -35 -26 24 c-38 35 -33 10 8 -39 33 -39 35
-40 35 -17 0 14 -7 61 -16 104 -9 43 -17 87 -19 98 -4 28 -40 86 -48 78 -7 -6
-9 0 -12 49 -2 25 -19 56 -76 133 l-23 30 34 -30 33 -30 -24 45 c-13 24 -42
63 -65 86 -60 61 -235 198 -272 213 -18 7 -32 17 -32 21 0 13 -83 28 -130 23
-25 -3 -43 -3 -40 0 3 3 25 8 49 11 63 8 63 16 0 17 -80 1 -32 17 54 18 68 1
196 -27 246 -54 46 -25 116 -75 105 -75 -6 0 -23 9 -37 20 -29 23 -42 26 -30
8 4 -7 -5 -5 -20 5 -48 31 -61 18 -13 -15 25 -18 94 -72 152 -120 l107 -88 59
-132 c59 -134 72 -173 81 -238 3 -19 10 -61 17 -92 10 -53 -1 -215 -16 -240
-3 -4 -7 -45 -9 -90 -4 -75 -8 -91 -58 -193 -71 -142 -112 -201 -224 -318 -63
-67 -109 -105 -150 -125 -32 -16 -86 -55 -120 -85 -51 -46 -77 -61 -143 -82
-86 -27 -124 -33 -75 -11 28 12 25 13 -65 21 -60 5 -109 14 -132 26 -46 24
-114 34 -163 25 -30 -6 -34 -10 -25 -22 10 -11 9 -14 -3 -14 -21 0 -47 11 -47
19 0 5 19 14 42 22 l43 14 -30 6 c-87 19 -188 -1 -223 -44 -11 -13 -10 -15 7
-10 33 8 25 -3 -25 -37 -47 -32 -104 -50 -104 -33 0 5 -21 15 -47 21 -42 12
-49 11 -72 -6 -15 -11 -26 -26 -26 -35 0 -9 -6 -22 -13 -29 -11 -11 -12 -9 -7
7 3 11 -3 1 -15 -23 -11 -24 -24 -77 -29 -119 -12 -96 2 -131 64 -161 41 -20
170 -44 210 -39 11 1 19 -2 18 -8 0 -5 14 -21 32 -35 36 -27 55 -58 55 -93 1
-28 28 -89 29 -64 1 9 5 17 10 17 5 0 13 9 16 20 3 11 11 20 16 20 6 0 6 -7
-1 -19 -5 -11 -10 -31 -10 -45 0 -18 -6 -26 -17 -27 -10 0 -2 -6 17 -14 56
-21 14 -29 -114 -22 -150 9 -185 16 -197 40 -10 18 -9 19 17 14 16 -3 47 2 69
10 45 18 69 35 36 26 -25 -6 -27 2 -6 23 30 31 5 95 -31 79 -10 -4 -25 -7 -31
-6 -19 3 -16 -14 7 -34 34 -30 22 -38 -15 -10 -19 15 -39 24 -45 20 -6 -4 -16
-2 -23 3 -13 10 -53 21 -102 29 -48 7 -61 13 -48 21 11 7 -272 109 -319 116
-9 1 -27 11 -39 22 -19 17 -19 13 6 -30 37 -64 19 -53 -30 18 -21 31 -42 53
-46 50 -5 -2 -52 28 -106 68 -54 40 -117 86 -141 101 -23 16 -59 54 -80 83
-20 30 -49 68 -64 84 -16 17 -28 37 -28 45 0 9 -4 14 -9 10 -13 -7 -70 63 -80
100 -6 20 -9 23 -10 10 -1 -19 -1 -19 -15 1 -8 11 -18 33 -21 47 -4 15 -10 25
-14 23 -4 -3 -16 17 -26 45 -11 27 -23 49 -27 49 -4 0 -8 6 -8 14 0 7 -7 19
-15 26 -8 7 -15 27 -16 44 0 17 -5 40 -10 51 -7 16 -8 14 -4 -10 4 -24 3 -27
-5 -12 -6 9 -9 25 -6 35 4 10 -3 45 -14 77 -11 32 -20 74 -20 94 0 27 -3 32
-10 21 -7 -10 -10 8 -10 60 -1 58 -3 70 -11 51 -13 -34 -20 -21 -9 18 5 18 11
59 14 91 3 32 10 70 16 85 14 36 13 42 -4 19 -14 -17 -14 -16 -7 16 4 20 14
46 20 59 8 15 9 21 2 17 -14 -9 -14 0 0 26 8 15 8 19 0 14 -17 -11 -13 1 14
44 31 49 32 59 3 34 -25 -22 -16 -1 14 33 11 11 34 61 52 110 47 129 181 338
275 430 41 40 79 69 84 66 4 -3 27 10 50 28 l42 32 -36 -39 c-65 -70 -118
-156 -86 -138 6 4 -9 -14 -35 -38 -48 -45 -58 -63 -37 -70 7 -2 1 -16 -14 -33
-20 -23 -26 -26 -27 -13 0 9 7 23 15 32 8 8 11 17 6 20 -5 4 -23 -22 -40 -56
-17 -35 -28 -52 -25 -38 14 60 13 63 -6 21 -39 -85 -48 -107 -66 -161 -10 -30
-27 -65 -38 -78 -18 -20 -18 -22 -3 -16 16 6 17 3 11 -22 -4 -16 -18 -42 -33
-59 -14 -16 -19 -24 -11 -17 8 6 18 12 23 12 13 0 -2 -52 -21 -73 -15 -17 -15
-17 3 -11 17 7 17 3 10 -47 -4 -30 -7 -65 -6 -78 0 -14 -6 -36 -15 -50 -9 -14
-13 -22 -8 -18 5 5 14 -57 20 -150 7 -100 19 -187 32 -237 12 -44 20 -81 19
-83 -6 -5 -47 139 -67 235 -15 69 -19 79 -19 46 -2 -90 38 -241 91 -346 32
-65 45 -78 22 -22 -8 20 -13 41 -11 47 2 6 14 -17 26 -52 27 -69 99 -178 156
-231 20 -19 73 -73 118 -119 77 -79 171 -153 227 -180 14 -7 0 9 -30 35 -92
81 -174 164 -167 171 9 8 67 -47 67 -63 0 -7 6 -14 14 -16 18 -4 156 -137 156
-150 0 -5 4 -7 9 -4 5 4 20 -7 34 -23 14 -17 28 -27 31 -24 3 4 6 1 6 -5 0 -7
3 -11 8 -10 13 4 123 -72 118 -81 -3 -5 8 -11 26 -13 42 -7 88 33 88 75 0 17
3 27 7 23 13 -12 33 113 23 140 -14 36 -12 39 10 19 18 -17 20 -17 14 -2 -3
10 -1 17 5 17 6 0 11 4 11 9 0 16 -51 71 -61 65 -5 -3 -9 1 -10 8 0 11 -2 11
-6 0 -4 -10 -9 -9 -20 5 -13 17 -14 17 -9 0 9 -29 -4 -19 -15 12 -7 21 -34 44
-96 82 -61 38 -100 71 -131 112 -47 59 -60 71 -42 38 31 -59 -18 -18 -55 45
-25 43 -46 63 -25 25 5 -11 10 -24 10 -30 0 -14 -70 28 -77 45 -3 8 -9 11 -14
8 -5 -3 -12 2 -15 10 -3 9 -11 13 -17 9 -6 -4 -8 0 -4 11 4 10 3 15 -3 11 -6
-3 -10 -13 -10 -21 0 -8 -4 -14 -10 -14 -5 0 -10 16 -10 35 0 19 -4 35 -9 35
-5 0 -12 8 -14 18 -3 9 -3 -5 -1 -33 l4 -50 -20 65 c-11 36 -28 97 -37 135 -9
39 -19 72 -23 75 -3 3 -17 43 -32 90 -26 84 -27 89 -22 296 4 203 6 215 35
300 17 49 30 97 30 107 0 9 4 15 10 12 5 -4 9 -14 9 -23 1 -16 1 -15 11 1 5 9
7 22 3 29 -4 6 -3 8 3 5 6 -4 27 19 48 51 21 31 92 114 157 183 92 99 144 144
236 207 136 93 175 129 97 90 -28 -14 -63 -28 -78 -32 l-29 -7 21 30 c17 24
34 32 93 45 109 23 200 30 233 17z m1290 -1 c8 -13 -15 -13 -35 0 -12 8 -11
10 7 10 12 0 25 -4 28 -10z m-1725 -10 c-20 -13 -43 -13 -35 0 3 6 16 10 28
10 18 0 19 -2 7 -10z m830 -7 c0 -5 -5 -15 -10 -23 -8 -12 -10 -11 -10 8 0 12
5 22 10 22 6 0 10 -3 10 -7z m36 -30 c-11 -11 -17 4 -9 23 7 18 8 18 11 1 2
-10 1 -21 -2 -24z m434 29 c0 -5 -9 -17 -19 -26 -22 -20 -40 -4 -21 19 13 16
40 20 40 7z m345 2 c25 -10 -2 -24 -45 -23 l-35 1 30 13 c17 8 31 14 32 15 1
0 9 -3 18 -6z m-1155 -14 c0 -5 -10 -10 -22 -9 -22 0 -22 1 -3 9 11 5 21 9 23
9 1 1 2 -3 2 -9z m829 -12 c-11 -22 -11 -22 7 -7 10 9 33 19 49 22 17 4 24 4
17 1 -6 -3 -10 -10 -6 -15 3 -5 -7 -9 -21 -9 -19 0 -26 -4 -22 -14 8 -20 -64
-47 -103 -40 -32 7 -32 24 1 24 13 0 18 -4 13 -12 -6 -10 -4 -10 7 0 7 6 27
12 44 12 29 1 29 1 7 13 -21 12 -21 14 -5 30 23 23 26 21 12 -5z m-1450 9 c-2
-2 -17 -11 -34 -22 l-30 -18 19 21 c11 12 26 22 34 22 9 0 13 -1 11 -3z m881
-7 c0 -5 -4 -10 -10 -10 -5 0 -10 5 -10 10 0 6 5 10 10 10 6 0 10 -4 10 -10z
m-320 -10 c0 -5 -6 -10 -12 -10 -7 0 -24 -3 -38 -6 -22 -4 -21 -3 5 10 37 18
45 19 45 6z m275 0 c3 -5 2 -10 -4 -10 -5 0 -13 5 -16 10 -3 6 -2 10 4 10 5 0
13 -4 16 -10z m1005 0 c0 -5 -12 -10 -27 -10 -22 0 -25 2 -13 10 20 13 40 13
40 0z m-1790 -8 c0 -5 -17 -16 -37 -26 -33 -16 -35 -16 -23 -1 8 10 23 21 35
25 26 11 25 11 25 2z m730 -1 c0 -6 -4 -12 -8 -15 -5 -3 -9 1 -9 9 0 8 4 15 9
15 4 0 8 -4 8 -9z m-652 -44 c-70 -58 -118 -82 -68 -35 19 18 34 36 33 40 -2
4 5 4 14 1 11 -4 14 -3 9 5 -5 8 -1 10 10 5 11 -4 15 -3 11 5 -6 9 7 17 36 21
5 0 -15 -19 -45 -42z m1007 33 c-3 -5 -14 -10 -23 -10 -15 0 -15 2 -2 10 20
13 33 13 25 0z m-1164 -19 c-6 -10 -27 -28 -48 -40 l-38 -21 45 40 c51 45 55
47 41 21z m1039 4 c0 -8 -4 -15 -9 -15 -13 0 -22 16 -14 24 11 11 23 6 23 -9z
m60 -15 c-14 -11 -21 -20 -16 -20 11 0 -14 -30 -25 -30 -5 0 -9 7 -9 16 0 11
-6 14 -17 10 -17 -6 -17 -5 0 8 9 7 17 19 17 26 0 7 6 10 13 7 6 -2 21 -1 32
3 30 11 33 1 5 -20z m-395 10 c3 -5 1 -10 -4 -10 -6 0 -11 5 -11 10 0 6 2 10
4 10 3 0 8 -4 11 -10z m615 -1 c0 -8 5 -7 15 1 17 14 31 8 21 -9 -4 -6 -17
-11 -29 -11 -12 0 -42 -2 -67 -4 l-45 -5 35 18 c41 22 70 26 70 10z m627 5
c-3 -3 -12 -4 -19 -1 -8 3 -5 6 6 6 11 1 17 -2 13 -5z m-2058 -17 c-2 -2 -26
-23 -54 -48 -27 -24 -43 -35 -35 -24 8 11 22 25 30 32 8 7 11 13 5 13 -12 1
35 29 49 30 5 0 7 -1 5 -3z m1241 -11 c-14 -8 -29 -11 -35 -8 -5 3 1 9 15 13
40 11 47 9 20 -5z m405 -6 c-17 -19 -55 -28 -55 -14 0 12 35 33 54 34 18 0 18
-1 1 -20z m150 12 c36 -7 37 -9 16 -15 -14 -3 -30 -2 -36 3 -7 6 -14 8 -16 6
-2 -2 -22 -6 -44 -9 -37 -6 -38 -5 -21 8 22 16 41 18 101 7z m188 1 c-7 -2
-21 -2 -30 0 -10 3 -4 5 12 5 17 0 24 -2 18 -5z m-1858 -27 c-34 -28 -105 -70
-105 -62 0 5 120 86 129 86 3 0 -7 -11 -24 -24z m484 17 c-3 -20 2 -33 14 -33
6 -1 26 -12 42 -26 36 -31 27 -29 -43 11 -56 32 -62 41 -34 48 9 3 18 5 20 6
1 0 1 -2 1 -6z m36 -3 c-3 -5 -11 -10 -16 -10 -6 0 -7 5 -4 10 3 6 11 10 16
10 6 0 7 -4 4 -10z m1699 -39 c17 -17 25 -31 20 -31 -6 0 -28 19 -49 41 -22
23 -31 37 -20 31 11 -6 33 -24 49 -41z m-1609 28 c11 -17 0 -20 -21 -4 -17 13
-17 14 -2 15 9 0 20 -5 23 -11z m1175 1 c11 -7 7 -10 -17 -10 -18 0 -33 5 -33
10 0 13 30 13 50 0z m-1585 -10 c-3 -5 -16 -15 -28 -21 -21 -10 -21 -9 2 10
25 23 36 27 26 11z m370 -10 c10 -11 15 -20 11 -20 -14 0 -46 21 -46 30 0 16
16 11 35 -10z m635 10 c-8 -5 -24 -10 -35 -10 -17 0 -17 2 -5 10 8 5 24 10 35
10 17 0 17 -2 5 -10z m-775 -10 c3 -6 -1 -7 -9 -4 -18 7 -21 14 -7 14 6 0 13
-4 16 -10z m-664 -20 c-13 -11 -31 -20 -40 -20 -9 1 -1 9 19 20 45 24 51 24
21 0z m229 -20 c-56 -50 -143 -105 -138 -88 3 11 165 127 178 128 3 0 -15 -18
-40 -40z m1860 31 c0 -5 -6 -12 -12 -15 -7 -3 -1 -3 13 0 15 3 30 1 33 -4 11
-18 -18 -19 -69 -3 -49 14 -50 15 -20 22 44 10 55 10 55 0z m100 -1 c-20 -13
-43 -13 -35 0 3 6 16 10 28 10 18 0 19 -2 7 -10z m130 0 c11 -7 7 -10 -18 -10
-20 0 -31 4 -27 10 8 13 26 13 45 0z m-1664 -16 c17 -14 17 -15 1 -10 -10 3
-28 6 -38 6 -11 0 -17 5 -14 10 9 15 28 12 51 -6z m229 5 c11 -17 -1 -21 -15
-4 -8 9 -8 15 -2 15 6 0 14 -5 17 -11z m142 5 c-3 -3 -12 -4 -19 -1 -8 3 -5 6
6 6 11 1 17 -2 13 -5z m-66 -21 c13 -16 12 -17 -3 -4 -17 13 -22 21 -14 21 2
0 10 -8 17 -17z m1287 8 c19 -12 -14 -24 -42 -15 -21 7 -21 7 -1 15 26 10 28
10 43 0z m134 -25 c4 3 9 1 12 -4 7 -11 -34 -10 -53 2 -11 7 -11 10 0 17 9 6
18 3 25 -6 6 -8 13 -12 16 -9z m-1767 4 c26 -7 22 -8 -25 -10 -30 -2 -45 -5
-34 -7 12 -2 30 -13 40 -24 16 -18 16 -19 -2 -19 -46 0 -95 13 -82 21 9 6 8 9
-7 9 -17 0 -15 3 10 20 31 21 50 23 100 10z m682 -26 c-26 -20 -47 -38 -47
-40 0 -2 33 14 73 36 39 22 85 40 102 39 l30 0 -30 -14 -30 -15 38 6 c26 3 37
2 32 -5 -3 -6 1 -11 11 -11 10 0 24 -7 33 -15 9 -8 44 -35 78 -60 69 -49 84
-71 91 -130 2 -22 10 -59 17 -82 10 -32 10 -43 2 -43 -7 0 -5 -5 3 -10 8 -5
16 -21 17 -35 1 -16 -2 -23 -9 -19 -7 4 -8 2 -4 -4 4 -7 4 -28 0 -48 -5 -28
-26 -56 -86 -116 -44 -44 -82 -77 -84 -75 -3 3 -34 -24 -68 -59 -35 -34 -67
-60 -70 -57 -3 4 -6 -3 -6 -15 0 -12 -5 -21 -12 -19 -6 1 -19 -18 -29 -43 -10
-25 -18 -41 -18 -37 -1 15 -31 -21 -31 -36 0 -31 -43 -128 -51 -115 -9 14 -8
15 -32 -56 l-13 -38 -60 51 c-32 29 -64 64 -70 79 -11 23 -12 24 -17 7 -4 -18
-5 -17 -6 3 -1 24 -16 30 -24 10 -3 -7 -6 -3 -6 10 -1 12 -5 22 -9 22 -5 0
-14 10 -20 23 l-11 22 -1 -25 c-2 -25 -2 -25 -15 5 -7 17 -63 79 -124 138 -61
60 -111 113 -111 118 0 5 -4 9 -9 9 -4 0 -6 -24 -3 -52 2 -29 2 -51 -1 -48 -3
3 -8 32 -10 64 -3 32 -10 62 -16 66 -7 3 -11 31 -11 61 2 66 -5 138 -14 146
-13 14 -5 99 14 138 30 63 128 175 166 191 58 24 92 18 153 -28 31 -24 59 -43
64 -44 4 -1 8 -2 10 -4 1 -1 11 -3 21 -5 10 -2 22 -9 26 -15 5 -8 9 -7 14 5 3
9 9 14 14 11 4 -2 21 20 36 50 30 57 117 144 144 144 8 0 -6 -16 -31 -36z
m-1387 16 c-8 -5 -19 -10 -25 -10 -5 0 -3 5 5 10 8 5 20 10 25 10 6 0 3 -5 -5
-10z m1320 6 c0 -3 -4 -8 -10 -11 -5 -3 -10 -1 -10 4 0 6 5 11 10 11 6 0 10
-2 10 -4z m950 -6 c12 -8 9 -10 -12 -10 -15 0 -30 5 -33 10 -8 13 25 13 45 0z
m136 -7 c17 -17 17 -18 -4 -21 -11 -2 -31 2 -44 9 -22 12 -22 12 -3 20 29 11
32 11 51 -8z m-1486 -3 c0 -5 -2 -10 -4 -10 -3 0 -8 5 -11 10 -3 6 -1 10 4 10
6 0 11 -4 11 -10z m805 -10 c-3 -5 -16 -10 -28 -10 -18 0 -19 2 -7 10 20 13
43 13 35 0z m-1405 -4 c0 -2 -8 -10 -17 -17 -16 -13 -17 -12 -4 4 13 16 21 21
21 13z m767 -2 c-3 -3 -12 -4 -19 -1 -8 3 -5 6 6 6 11 1 17 -2 13 -5z m193
-24 c-11 -16 -32 -53 -45 -82 -13 -29 -24 -45 -24 -36 -1 9 -7 19 -13 21 -8 3
-5 6 5 6 11 1 24 15 33 38 20 47 44 83 56 83 5 0 0 -13 -12 -30z m1056 15 c19
-14 19 -14 -2 -15 -11 0 -29 7 -40 15 -19 14 -19 14 2 15 11 0 29 -7 40 -15z
m-568 -7 c19 -19 14 -28 -14 -26 -25 2 -58 28 -36 28 6 0 13 -6 15 -12 3 -8 6
-6 6 5 1 20 12 22 29 5z m-1788 -2 c0 -2 -7 -7 -16 -10 -8 -3 -12 -2 -9 4 6
10 25 14 25 6z m1240 -12 c0 -17 -22 -14 -28 4 -2 7 3 12 12 12 9 0 16 -7 16
-16z m620 -6 c0 -5 -9 -4 -20 2 -11 6 -20 12 -20 14 0 2 9 2 20 -1 11 -3 20
-9 20 -15z m-989 -19 c-24 -17 -46 -28 -49 -24 -11 10 42 54 67 54 21 1 19 -3
-18 -30z m-596 -25 c-33 -27 -65 -47 -65 -40 0 6 82 66 89 66 4 -1 -7 -12 -24
-26z m80 7 c3 -5 -9 -20 -27 -33 l-33 -23 23 33 c25 35 28 37 37 23z m875 -7
c0 -8 -4 -12 -10 -9 -5 3 -10 10 -10 16 0 5 5 9 10 9 6 0 10 -7 10 -16z m1115
-4 c23 -26 8 -26 -25 0 -18 14 -21 20 -9 20 9 0 24 -9 34 -20z m499 -110 c58
-89 116 -196 116 -211 0 -18 -30 26 -56 82 -12 26 -54 96 -94 155 -39 60 -57
93 -39 74 17 -19 50 -64 73 -100z m-2919 100 c-10 -11 -23 -20 -29 -20 -6 1 0
10 13 20 30 26 39 26 16 0z m2015 5 c10 -12 9 -15 -8 -15 -11 0 -25 7 -32 15
-10 12 -9 15 8 15 11 0 25 -7 32 -15z m80 5 c13 -8 13 -10 -2 -10 -9 0 -20 5
-23 10 -8 13 5 13 25 0z m-1891 -13 c-2 -1 -13 -9 -24 -17 -19 -14 -19 -14 -6
3 7 9 18 17 24 17 6 0 8 -1 6 -3z m404 -28 c-18 -11 -38 -19 -45 -16 -7 3 3
12 22 20 49 23 61 20 23 -4z m1587 6 c17 -9 30 -18 30 -20 0 -6 -52 16 -64 27
-16 13 3 9 34 -7z m325 -23 c-10 -2 -27 6 -39 18 l-21 21 39 -18 c27 -13 34
-19 21 -21z m210 12 c9 -15 12 -23 6 -20 -11 7 -35 46 -28 46 3 0 12 -12 22
-26z m-677 -1 c-10 -2 -26 -2 -35 0 -10 3 -2 5 17 5 19 0 27 -2 18 -5z m49 1
c-3 -3 -12 -4 -19 -1 -8 3 -5 6 6 6 11 1 17 -2 13 -5z m-1797 -29 c-13 -14
-28 -25 -34 -25 -11 1 40 50 51 50 4 0 -4 -11 -17 -25z m498 -25 c-19 -26 -24
-29 -27 -14 -2 10 7 26 19 36 32 26 36 15 8 -22z m1469 -4 c72 -35 112 -67 51
-41 -88 37 -161 75 -143 75 11 0 53 -15 92 -34z m-1394 -7 c-10 -17 -27 -36
-38 -42 -19 -9 -19 -9 -5 9 22 30 53 64 57 64 2 0 -4 -14 -14 -31z m1042 -26
c18 -43 19 -56 3 -51 -6 2 -16 25 -23 51 -13 53 -2 53 20 0z m645 27 c6 -11 9
-20 7 -20 -2 0 -12 9 -22 20 -10 11 -13 20 -7 20 6 0 16 -9 22 -20z m244 4 c3
-8 2 -12 -4 -9 -6 3 -10 10 -10 16 0 14 7 11 14 -7z m-707 0 c-3 -3 -12 -4
-19 -1 -8 3 -5 6 6 6 11 1 17 -2 13 -5z m70 0 c-3 -3 -12 -4 -19 -1 -8 3 -5 6
6 6 11 1 17 -2 13 -5z m349 -26 l29 -33 -32 29 c-31 28 -38 36 -30 36 2 0 16
-15 33 -32z m-2321 12 c-10 -16 -65 -52 -65 -42 0 6 15 19 33 31 36 23 41 25
32 11z m1814 -26 c25 -41 26 -51 7 -35 -13 11 -40 71 -31 71 1 0 12 -16 24
-36z m-1495 11 c-4 -8 -11 -15 -16 -15 -6 0 -5 6 2 15 7 8 14 15 16 15 2 0 1
-7 -2 -15z m2089 -9 c11 -16 12 -24 4 -22 -23 3 -36 17 -30 31 7 20 8 19 26
-9z m-313 -18 c0 -12 -6 -9 -26 13 -19 22 -19 22 4 8 12 -8 22 -17 22 -21z
m-229 5 c13 -16 12 -17 -3 -4 -17 13 -22 21 -14 21 2 0 10 -8 17 -17z m820
-10 c13 -16 12 -17 -3 -4 -10 7 -18 15 -18 17 0 8 8 3 21 -13z m-2437 -7 c-3
-8 -13 -17 -22 -21 -13 -5 -13 -2 3 15 21 24 26 25 19 6z m390 -18 c-10 -20
-19 -28 -22 -20 -2 7 4 22 14 33 25 27 27 24 8 -13z m1367 12 l24 -21 -35 17
c-43 21 -47 24 -28 24 9 0 26 -9 39 -20z m-1974 -12 c-3 -8 -6 -5 -6 6 -1 11
2 17 5 13 3 -3 4 -12 1 -19z m2333 -3 c7 -9 8 -15 2 -15 -5 0 -12 7 -16 15 -3
8 -4 15 -2 15 2 0 9 -7 16 -15z m-295 -17 c5 4 5 2 2 -5 -4 -6 -1 -13 5 -16 7
-2 10 -7 7 -11 -3 -3 -16 6 -30 21 -13 15 -17 22 -8 15 9 -6 20 -8 24 -4z
m653 -7 c3 -8 -1 -12 -9 -9 -7 2 -15 10 -17 17 -3 8 1 12 9 9 7 -2 15 -10 17
-17z m-2758 5 c0 -2 -12 -11 -27 -20 l-28 -17 24 20 c23 21 31 25 31 17z m615
-46 c-10 -22 -22 -40 -27 -40 -4 0 -8 -12 -9 -27 -1 -26 -2 -25 -9 7 -7 30 -4
39 22 73 37 46 47 41 23 -13z m-742 25 c-3 -9 -8 -14 -10 -11 -3 3 -2 9 2 15
9 16 15 13 8 -4z m2601 -1 c3 -8 2 -12 -4 -9 -6 3 -10 10 -10 16 0 14 7 11 14
-7z m-2437 -16 c-3 -8 -6 -5 -6 6 -1 11 2 17 5 13 3 -3 4 -12 1 -19z m1733 2
c9 -16 8 -18 -5 -14 -8 4 -15 12 -15 20 0 20 7 17 20 -6z m859 -10 c5 -16 8
-30 6 -30 -3 0 -11 14 -20 30 -9 17 -11 30 -6 30 5 0 14 -13 20 -30z m31 6 c0
-8 3 -23 6 -33 3 -10 -2 -7 -10 7 -18 30 -20 40 -6 40 6 0 10 -6 10 -14z
m-2840 -33 c-11 -17 -11 -17 -6 0 3 10 6 24 7 30 0 9 2 9 5 0 3 -7 0 -20 -6
-30z m155 10 c-7 -29 -32 -63 -46 -63 -11 0 9 51 28 72 22 25 26 22 18 -9z
m676 -26 c-13 -13 -15 11 -4 40 7 16 8 15 11 -6 2 -13 -1 -28 -7 -34z m-32
-33 c-18 -22 -22 -11 -7 22 10 21 14 24 16 10 2 -9 -2 -24 -9 -32z m1152 9
c13 -16 12 -17 -3 -4 -17 13 -22 21 -14 21 2 0 10 -8 17 -17z m1009 7 c0 -5
-4 -10 -10 -10 -5 0 -10 5 -10 10 0 6 5 10 10 10 6 0 10 -4 10 -10z m-2890
-24 c0 -7 -7 -19 -15 -26 -16 -13 -20 -3 -9 24 8 20 24 21 24 2z m79 -37 c-8
-29 -14 -38 -17 -26 -4 19 17 81 25 73 2 -2 -1 -24 -8 -47z m1796 21 c3 -5 1
-10 -4 -10 -6 0 -11 5 -11 10 0 6 2 10 4 10 3 0 8 -4 11 -10z m1085 6 c0 -2 3
-12 6 -20 4 -12 2 -15 -9 -10 -21 8 -30 34 -12 34 8 0 15 -2 15 -4z m-2915
-38 c-10 -45 -28 -62 -24 -23 3 28 16 55 26 55 3 0 2 -15 -2 -32z m2875 0 c0
-13 -23 -5 -28 10 -2 7 2 10 12 6 9 -3 16 -11 16 -16z m-2544 -16 c-18 -16
-18 -16 -6 6 6 13 14 21 18 18 3 -4 -2 -14 -12 -24z m427 -11 c3 -12 -1 -22
-9 -25 -10 -4 -14 2 -14 19 0 30 16 33 23 6z m1322 -8 l18 -28 -21 19 c-12 11
-22 23 -22 28 0 14 7 9 25 -19z m165 -6 c0 -5 -4 -5 -10 -2 -5 3 -10 14 -10
23 0 15 2 15 10 2 5 -8 10 -19 10 -23z m368 -7 c6 -16 9 -30 7 -30 -5 0 -35
56 -35 65 0 15 19 -8 28 -35z m-2771 8 c-3 -8 -6 -5 -6 6 -1 11 2 17 5 13 3
-3 4 -12 1 -19z m87 0 c-7 -26 -33 -58 -45 -58 -13 0 10 53 28 68 23 17 25 15
17 -10z m2484 -73 c-9 -9 -27 12 -33 40 l-7 30 22 -33 c13 -18 21 -35 18 -37z
m176 -3 c8 -34 11 -62 6 -62 -4 0 -10 19 -14 43 -4 23 -10 53 -13 67 -3 14 -3
23 0 20 4 -3 13 -34 21 -68z m-1895 -7 c0 -18 -1 -17 -14 5 -8 14 -14 34 -14
45 0 18 1 17 14 -5 8 -14 14 -34 14 -45z m2279 47 c2 -7 -2 -10 -12 -6 -9 3
-16 11 -16 16 0 13 23 5 28 -10z m-2992 -19 c-10 -10 -19 5 -10 18 6 11 8 11
12 0 2 -7 1 -15 -2 -18z m2284 -16 c0 -5 -4 -5 -10 -2 -5 3 -10 14 -10 23 0
15 2 15 10 2 5 -8 10 -19 10 -23z m-2434 11 c-12 -40 -17 -50 -22 -46 -5 6 13
58 20 58 3 0 4 -6 2 -12z m1905 -21 c-8 -8 -11 -7 -11 4 0 20 13 34 18 19 3
-7 -1 -17 -7 -23z m46 -25 c-16 -15 -17 -15 -17 5 0 12 3 29 7 39 6 16 8 15
16 -5 8 -17 7 -26 -6 -39z m308 9 c-8 -8 -35 22 -35 38 0 12 5 10 20 -9 10
-14 17 -27 15 -29z m848 -167 c4 -10 10 -25 13 -33 5 -11 2 -12 -12 -7 -15 6
-14 2 6 -20 14 -15 18 -23 10 -19 -13 8 -13 7 -1 -8 14 -18 17 -30 25 -137 l5
-65 -12 65 -12 65 -3 -85 c-1 -58 -15 -140 -44 -258 -34 -143 -39 -177 -29
-193 17 -29 3 -44 -20 -23 -19 17 -20 17 -13 -1 5 -11 4 -16 -3 -12 -7 4 -9
-12 -7 -46 3 -40 2 -48 -7 -34 -5 9 -14 15 -20 12 -5 -4 -9 0 -10 7 -1 23 -28
-46 -29 -73 0 -15 -9 -37 -20 -50 l-21 -24 16 35 c13 29 4 23 -55 -40 -38 -41
-70 -79 -70 -84 0 -5 7 -3 15 4 18 15 20 -3 3 -22 -7 -8 -18 -23 -25 -33 -6
-11 -16 -19 -21 -18 -5 1 -13 -12 -17 -30 -4 -18 -9 -26 -12 -19 -4 10 -9 7
-17 -10 -6 -12 -18 -23 -26 -23 -8 0 -21 -11 -29 -25 -10 -17 -16 -21 -19 -12
-3 9 -8 6 -16 -10 -7 -12 -18 -22 -24 -21 -6 2 -16 -13 -22 -32 -14 -43 -28
-54 -23 -17 3 22 1 20 -13 -10 -15 -35 -43 -56 -30 -23 6 16 -5 20 -18 8 -4
-5 -11 -8 -14 -9 -4 0 -27 -10 -52 -21 -25 -11 -103 -41 -175 -67 -154 -57
-176 -67 -170 -77 3 -4 -5 -5 -17 -1 -13 3 -19 1 -15 -5 4 -6 0 -13 -8 -17 -8
-3 -15 0 -15 6 0 7 -6 4 -12 -5 -7 -9 -24 -19 -38 -21 -14 -3 -25 -5 -25 -6 0
-1 -10 -3 -22 -6 -17 -3 -23 1 -23 14 -1 16 -1 16 -11 0 -6 -10 -22 -18 -37
-18 -21 0 -24 2 -12 10 15 10 -51 8 -150 -5 -74 -9 -39 17 59 44 71 20 87 27
69 32 -20 5 -21 7 -5 14 9 4 23 5 31 2 8 -3 16 -2 18 2 3 7 98 41 98 35 0 -2
-12 -10 -27 -19 l-28 -15 31 4 c41 5 113 37 166 74 24 16 81 49 128 72 47 23
112 62 145 85 63 45 129 81 91 51 -31 -25 -12 -29 31 -8 53 28 125 93 148 136
11 20 23 36 27 36 5 0 8 5 8 11 0 6 22 31 49 55 27 24 56 58 64 76 9 18 39 55
67 82 27 27 50 55 50 61 0 6 9 18 19 27 25 22 50 104 58 191 3 38 9 63 13 57
4 -6 5 15 3 47 -3 43 -2 54 6 43 8 -11 11 3 12 55 1 39 1 73 0 77 -9 71 -17
244 -11 246 4 2 2 15 -6 30 -8 16 -14 54 -13 92 l0 65 48 -96 c26 -53 51 -104
54 -115z m-3318 167 c-7 -23 -25 -29 -25 -8 0 14 21 39 28 33 2 -3 1 -14 -3
-25z m715 12 c0 -10 3 -29 5 -43 4 -16 1 -14 -8 8 -7 18 -16 30 -20 26 -4 -4
-7 -3 -7 3 0 5 3 13 7 16 12 12 23 7 23 -10z m2657 11 c-3 -3 -12 -4 -19 -1
-8 3 -5 6 6 6 11 1 17 -2 13 -5z m-3020 -41 c-3 -10 -5 -4 -5 12 0 17 2 24 5
18 2 -7 2 -21 0 -30z m-77 19 c0 -5 -11 -22 -25 -38 l-25 -29 0 27 c0 15 8 31
18 37 21 13 32 14 32 3z m117 -54 c-2 -13 -4 -5 -4 17 -1 22 1 32 4 23 2 -10
2 -28 0 -40z m1673 36 c0 -8 -5 -12 -10 -9 -6 4 -8 11 -5 16 9 14 15 11 15 -7z
m598 -41 c6 -18 9 -33 7 -33 -7 0 -35 58 -35 72 0 19 16 -3 28 -39z m737 36
c10 -15 -1 -23 -20 -15 -9 3 -13 10 -10 16 8 13 22 13 30 -1z m-1278 -21 c-3
-8 -6 -5 -6 6 -1 11 2 17 5 13 3 -3 4 -12 1 -19z m862 -46 c0 -24 -1 -25 -9
-7 -12 28 -12 47 0 40 6 -3 10 -18 9 -33z m68 6 c-3 -8 -6 -5 -6 6 -1 11 2 17
5 13 3 -3 4 -12 1 -19z m-2806 -31 c-13 -13 -15 1 -4 30 7 17 8 17 11 -1 2
-10 -1 -23 -7 -29z m2839 22 c0 -11 -4 -17 -10 -14 -5 3 -10 13 -10 21 0 8 5
14 10 14 6 0 10 -9 10 -21z m-1113 -11 c-3 -8 -6 -5 -6 6 -1 11 2 17 5 13 3
-3 4 -12 1 -19z m713 -57 c0 -9 -12 2 -25 24 -32 52 -32 69 0 25 14 -19 25
-41 25 -49z m-2303 47 c-3 -8 -6 -5 -6 6 -1 11 2 17 5 13 3 -3 4 -12 1 -19z
m-94 -13 c-3 -9 -8 -14 -10 -11 -3 3 -2 9 2 15 9 16 15 13 8 -4z m525 -20 c-3
-3 -9 2 -12 12 -6 14 -5 15 5 6 7 -7 10 -15 7 -18z m1619 -17 c-3 -7 -5 -2 -5
12 0 14 2 19 5 13 2 -7 2 -19 0 -25z m571 -44 c0 -23 3 -47 6 -53 4 -6 2 -11
-5 -11 -10 0 -10 -3 -1 -12 7 -7 12 -19 12 -27 -1 -11 -5 -8 -14 8 -15 28 -22
175 -7 151 6 -8 10 -34 9 -56z m-2767 5 c-10 -23 -10 -23 -10 7 -1 17 2 34 7
38 11 12 14 -18 3 -45z m1665 -47 c-18 -16 -18 -16 -6 6 6 13 14 21 18 18 3
-4 -2 -14 -12 -24z m-1979 -29 c-3 -10 -5 -4 -5 12 0 17 2 24 5 18 2 -7 2 -21
0 -30z m1483 22 c6 -8 10 -21 8 -29 -2 -11 -8 -7 -20 14 -18 31 -10 41 12 15z
m449 -69 c-26 -44 -31 -46 -18 -6 6 17 15 30 20 30 5 0 9 8 10 18 0 9 3 12 5
6 3 -6 -5 -28 -17 -48z m1360 6 c1 -7 -3 -10 -9 -7 -5 3 -10 18 -9 33 0 24 1
25 9 7 5 -11 9 -26 9 -33z m-114 -3 c9 -17 14 -38 12 -47 -3 -12 -9 -6 -20 20
-27 60 -20 82 8 27z m-3166 -6 c-1 -10 -5 -31 -9 -48 -7 -27 -8 -25 -9 18 0
26 4 47 9 47 6 0 9 -8 9 -17z m2434 -8 c-3 -9 -8 -14 -10 -11 -3 3 -2 9 2 15
9 16 15 13 8 -4z m664 -22 c-3 -10 -5 -4 -5 12 0 17 2 24 5 18 2 -7 2 -21 0
-30z m-2079 2 c-3 -3 -9 2 -12 12 -6 14 -5 15 5 6 7 -7 10 -15 7 -18z m-671
-27 c-3 -7 -5 -2 -5 12 0 14 2 19 5 13 2 -7 2 -19 0 -25z m2933 -9 c0 -18 -4
-28 -10 -24 -5 3 -10 20 -10 36 0 18 4 28 10 24 6 -3 10 -20 10 -36z m-112
-71 c-3 -7 -14 4 -26 24 -14 23 -20 42 -15 54 6 15 10 11 26 -24 10 -24 17
-48 15 -54z m-111 30 c-2 -13 -4 -5 -4 17 -1 22 1 32 4 23 2 -10 2 -28 0 -40z
m-3063 -40 c4 -28 3 -48 -2 -48 -5 0 -10 23 -11 52 -1 62 4 60 13 -4z m1790 5
c-8 -68 -24 -107 -38 -93 -8 8 -6 15 6 24 10 7 15 15 12 18 -5 6 15 98 22 98
2 0 1 -21 -2 -47z m1296 -33 c0 -13 -1 -13 -10 0 -5 8 -10 22 -10 30 0 13 1
13 10 0 5 -8 10 -22 10 -30z m-3046 -9 c-4 -17 -9 -30 -11 -27 -3 2 -2 19 2
36 9 41 17 33 9 -9z m3243 7 c-3 -7 -5 -2 -5 12 0 14 2 19 5 13 2 -7 2 -19 0
-25z m-77 -25 c-11 -17 -11 -17 -6 0 3 10 7 26 7 35 1 15 2 15 6 0 2 -10 -1
-25 -7 -35z m-2880 21 c0 -8 -5 -12 -10 -9 -6 4 -8 11 -5 16 9 14 15 11 15 -7z
m1401 -11 c13 -16 12 -17 -3 -4 -17 13 -22 21 -14 21 2 0 10 -8 17 -17z m681
-5 c-7 -7 -12 -8 -12 -2 0 6 3 14 7 17 3 4 9 5 12 2 2 -3 -1 -11 -7 -17z m747
-68 c1 -26 -2 -31 -9 -20 -5 8 -7 26 -4 40 4 20 3 22 -5 10 -8 -12 -11 -6 -10
25 l1 40 13 -30 c8 -16 14 -46 14 -65z m-79 42 c0 -7 -4 -10 -10 -7 -5 3 -10
16 -10 28 0 18 2 19 10 7 5 -8 10 -21 10 -28z m174 -50 c-11 -60 -23 -73 -24
-24 0 29 4 41 11 36 8 -4 9 1 4 16 -5 16 -4 20 4 15 7 -4 9 -20 5 -43z m-3237
16 c-3 -8 -6 -5 -6 6 -1 11 2 17 5 13 3 -3 4 -12 1 -19z m2995 -3 c-2 -14 -8
-25 -12 -25 -4 0 -5 11 -2 25 2 14 8 25 12 25 4 0 5 -11 2 -25z m55 -7 c-3 -8
-6 -5 -6 6 -1 11 2 17 5 13 3 -3 4 -12 1 -19z m-2740 -25 c-3 -10 -5 -4 -5 12
0 17 2 24 5 18 2 -7 2 -21 0 -30z m163 -6 c0 -10 -4 -15 -10 -12 -5 3 -10 18
-10 33 0 21 2 24 10 12 5 -8 10 -23 10 -33z m1264 26 c-7 19 -4 20 20 11 20
-8 21 -30 2 -37 -16 -6 -56 19 -56 35 0 6 9 3 20 -7 18 -17 20 -17 14 -2z
m1286 -35 c0 -23 -3 -29 -11 -21 -6 6 -8 20 -4 32 9 30 15 26 15 -11z m60 -16
c0 -7 -4 -10 -10 -7 -5 3 -10 16 -10 28 0 18 2 19 10 7 5 -8 10 -21 10 -28z
m-119 -15 c-13 -13 -15 1 -4 30 7 17 8 17 11 -1 2 -10 -1 -23 -7 -29z m209 29
c0 -8 -4 -18 -10 -21 -5 -3 -10 3 -10 14 0 12 5 21 10 21 6 0 10 -6 10 -14z
m-53 -18 c-3 -8 -6 -5 -6 6 -1 11 2 17 5 13 3 -3 4 -12 1 -19z m-3099 -68 c1
-23 0 -23 -8 -5 -5 11 -8 36 -8 55 l0 35 8 -30 c4 -16 8 -41 8 -55z m489 58
c-3 -8 -6 -5 -6 6 -1 11 2 17 5 13 3 -3 4 -12 1 -19z m2960 -20 c-3 -7 -5 -2
-5 12 0 14 2 19 5 13 2 -7 2 -19 0 -25z m-464 -19 c-3 -10 -9 -16 -14 -13 -11
6 -12 38 -2 47 10 11 21 -13 16 -34z m-2526 -1 c-3 -7 -5 -2 -5 12 0 14 2 19
5 13 2 -7 2 -19 0 -25z m2576 17 c4 -8 2 -17 -3 -20 -6 -4 -10 3 -10 14 0 25
6 27 13 6z m44 -17 c-3 -7 -5 -2 -5 12 0 14 2 19 5 13 2 -7 2 -19 0 -25z m106
8 c3 -8 3 -24 0 -36 -4 -16 -8 -18 -14 -8 -11 17 -11 58 0 58 5 0 11 -6 14
-14z m-253 0 c0 -2 -7 -17 -15 -32 -16 -30 -19 -25 -9 14 5 18 24 33 24 18z
m165 -37 c-5 -15 -4 -19 4 -15 13 8 14 -3 2 -22 -6 -10 -10 -7 -15 13 -4 14
-4 30 -1 35 11 18 17 10 10 -11z m-2586 -37 c-1 -33 -2 -34 -9 -12 -12 36 -12
62 0 55 6 -3 10 -23 9 -43z m2501 23 c0 -14 -4 -25 -10 -25 -11 0 -14 33 -3
43 11 11 13 8 13 -18z m155 -15 c11 -21 12 -35 5 -52 l-10 -23 1 25 c2 49 0
57 -11 40 -8 -13 -10 -13 -10 2 0 9 -3 24 -7 34 -10 28 15 7 32 -26z m-211 15
c3 -8 1 -15 -4 -15 -6 0 -10 7 -10 15 0 8 2 15 4 15 2 0 6 -7 10 -15z m-2895
-77 c1 -15 6 -30 11 -33 6 -3 10 -24 10 -46 0 -22 4 -38 8 -35 5 3 14 -16 20
-42 6 -26 13 -56 17 -67 3 -11 -6 2 -20 29 -23 42 -67 212 -64 249 1 22 18
-28 18 -55z m2881 27 c0 -5 -5 -3 -10 5 -5 8 -10 20 -10 25 0 6 5 3 10 -5 5
-8 10 -19 10 -25z m407 13 c-3 -8 -6 -5 -6 6 -1 11 2 17 5 13 3 -3 4 -12 1
-19z m-2958 -28 c0 -10 -3 -8 -9 5 -12 27 -12 43 0 25 5 -8 9 -22 9 -30z
m2456 19 c-4 -5 -8 -21 -10 -35 -1 -14 -16 -39 -34 -56 -17 -17 -31 -35 -31
-41 0 -6 -3 -8 -6 -4 -3 3 6 26 21 52 15 25 25 49 21 52 -7 7 23 43 36 43 5 0
6 -5 3 -11z m182 -11 c-3 -8 -6 -5 -6 6 -1 11 2 17 5 13 3 -3 4 -12 1 -19z
m53 -11 c0 -5 -4 -5 -10 -2 -5 3 -10 14 -10 23 0 15 2 15 10 2 5 -8 10 -19 10
-23z m50 11 c-1 -13 -7 -34 -15 -48 l-14 -25 -1 25 c0 35 11 70 21 70 5 0 9
-10 9 -22z m-213 -42 c-4 -9 -11 -16 -17 -16 -7 0 -8 6 0 19 15 29 12 39 -5
17 -18 -24 -20 -13 -2 14 12 20 12 20 21 1 5 -11 6 -27 3 -35z m474 20 c0 10
3 13 6 7 2 -7 -1 -30 -8 -50 -10 -33 -13 -35 -20 -18 -4 11 -8 34 -8 50 0 29
0 29 14 11 15 -20 15 -20 16 0z m-74 -18 c-3 -8 -6 -5 -6 6 -1 11 2 17 5 13 3
-3 4 -12 1 -19z m-2781 -35 c1 -21 5 -47 9 -58 6 -16 3 -15 -14 5 -11 14 -18
31 -16 38 3 8 5 25 5 39 0 39 12 19 16 -24z m2514 20 c0 -19 -3 -24 -10 -17
-6 6 -8 18 -4 27 9 24 14 21 14 -10z m-2633 -5 c-3 -8 -6 -5 -6 6 -1 11 2 17
5 13 3 -3 4 -12 1 -19z m73 -13 c0 -5 -5 -3 -10 5 -5 8 -10 20 -10 25 0 6 5 3
10 -5 5 -8 10 -19 10 -25z m140 -1 c0 -14 -4 -22 -10 -19 -5 3 -10 17 -10 31
0 14 4 22 10 19 6 -3 10 -17 10 -31z m2237 14 c-3 -8 -6 -5 -6 6 -1 11 2 17 5
13 3 -3 4 -12 1 -19z m268 -26 c-15 -16 -16 -15 -4 12 7 15 15 23 17 16 3 -7
-3 -19 -13 -28z m-207 3 c-6 -14 -13 -23 -16 -21 -7 7 9 46 18 46 5 0 4 -11
-2 -25z m163 -22 c-9 -15 -10 -12 -10 17 0 29 1 32 10 18 7 -12 7 -24 0 -35z
m-2632 -5 c10 -30 9 -31 -4 -14 -8 11 -15 26 -15 33 0 22 8 14 19 -19z m2377
0 c-11 -15 -16 -18 -16 -7 0 16 21 42 28 34 2 -2 -3 -14 -12 -27z m-2689 -10
c-3 -8 -6 -5 -6 6 -1 11 2 17 5 13 3 -3 4 -12 1 -19z m515 -82 c-5 -20 -5 -20
-13 0 -4 10 -7 37 -7 59 l0 40 12 -40 c7 -22 11 -49 8 -59z m2384 23 c-25 -30
-33 -28 -20 5 3 9 10 13 15 10 5 -3 9 6 9 19 0 31 14 45 18 18 2 -12 -8 -35
-22 -52z m-2306 33 c0 -15 -2 -15 -10 -2 -13 20 -13 33 0 25 6 -3 10 -14 10
-23z m2160 13 c0 -8 -4 -15 -10 -15 -5 0 -7 7 -4 15 4 8 8 15 10 15 2 0 4 -7
4 -15z m-2459 -67 c19 -34 2 -17 -30 30 -25 35 -26 40 -6 17 14 -16 30 -38 36
-47z m2309 62 c0 -5 -5 -10 -11 -10 -5 0 -7 5 -4 10 3 6 8 10 11 10 2 0 4 -4
4 -10z m210 2 c0 -5 -7 -17 -15 -28 -15 -19 -20 -8 -9 20 6 17 24 22 24 8z
m-2165 -92 c7 -48 6 -53 -8 -42 -15 12 -37 84 -37 119 0 16 2 16 19 -2 11 -12
22 -43 26 -75z m2048 75 c-3 -9 -8 -14 -10 -11 -3 3 -2 9 2 15 9 16 15 13 8
-4z m497 -18 c0 -18 -2 -19 -10 -7 -13 20 -13 43 0 35 6 -3 10 -16 10 -28z
m-2830 -3 c0 -8 -4 -12 -10 -9 -5 3 -10 10 -10 16 0 5 5 9 10 9 6 0 10 -7 10
-16z m2202 -6 c-7 -7 -12 -8 -12 -2 0 14 12 26 19 19 2 -3 -1 -11 -7 -17z
m-2162 -29 c0 -11 -4 -19 -9 -19 -10 0 -21 24 -21 47 0 13 3 13 15 3 8 -7 15
-21 15 -31z m2309 -1 c-12 -20 -14 -21 -17 -5 -2 10 2 25 9 34 18 21 23 0 8
-29z m-89 7 c0 -8 -4 -15 -10 -15 -5 0 -7 7 -4 15 4 8 8 15 10 15 2 0 4 -7 4
-15z m-2531 -79 c6 -33 9 -61 6 -64 -8 -8 -22 40 -29 98 -9 72 8 47 23 -34z
m651 2 c14 -69 7 -70 -15 -3 -11 30 -22 55 -26 55 -4 0 -9 7 -13 15 -5 13 -2
13 19 -1 16 -11 27 -31 35 -66z m2112 50 c-8 -8 -9 -4 -5 13 4 13 8 18 11 10
2 -7 -1 -18 -6 -23z m284 -44 c-9 -23 -12 -17 -19 36 l-6 45 16 -32 c9 -17 13
-39 9 -49z m-2596 16 c0 -20 -2 -22 -10 -10 -5 8 -10 26 -10 40 0 20 2 22 10
10 5 -8 10 -26 10 -40z m139 -25 l0 -20 -8 20 c-4 11 -11 34 -14 50 l-6 30 14
-30 c8 -16 14 -39 14 -50z m2478 43 c-3 -7 -5 -2 -5 12 0 14 2 19 5 13 2 -7 2
-19 0 -25z m-401 -4 c-4 -9 -9 -15 -11 -12 -3 3 -3 13 1 22 4 9 9 15 11 12 3
-3 3 -13 -1 -22z m314 -11 c-11 -17 -11 -17 -6 0 3 10 6 24 7 30 0 9 2 9 5 0
3 -7 0 -20 -6 -30z m-491 -15 c-7 -13 -14 -18 -16 -11 -3 7 1 22 8 35 7 13 14
18 16 11 3 -7 -1 -22 -8 -35z m-2538 -38 c39 -77 87 -152 106 -163 7 -4 18
-18 24 -30 7 -13 -6 -5 -33 21 -42 40 -116 165 -133 222 -11 36 -2 24 36 -50z
m406 38 c-3 -7 -5 -2 -5 12 0 14 2 19 5 13 2 -7 2 -19 0 -25z m2423 29 c0 -2
-10 -12 -22 -23 l-23 -19 19 23 c18 21 26 27 26 19z m-355 -28 c0 -8 -6 -13
-12 -11 -7 1 -13 -7 -13 -19 0 -11 -4 -17 -10 -14 -14 9 -13 38 2 53 15 15 33
10 33 -9z m114 -11 c0 -27 -2 -29 -8 -13 -5 11 -6 26 -4 33 8 21 13 13 12 -20z
m85 -40 c-9 -18 -19 -28 -21 -21 -2 6 4 27 13 45 9 18 19 28 21 21 2 -6 -4
-27 -13 -45z m96 27 c-7 -9 -15 -13 -18 -10 -3 2 1 11 8 20 7 9 15 13 18 10 3
-2 -1 -11 -8 -20z m-2311 -12 c0 -25 -1 -26 -9 -8 -12 27 -12 35 0 35 6 0 10
-12 9 -27z m349 -40 c2 -21 4 -47 5 -58 4 -40 -18 -26 -41 26 l-24 54 28 -25
27 -25 -28 49 -28 48 29 -15 c24 -12 30 -23 32 -54z m1532 52 c-7 -8 -18 -15
-24 -15 -6 0 -2 7 8 15 25 19 32 19 16 0z m708 -57 c-13 -26 -15 -22 -13 20 3
54 7 61 14 27 4 -16 4 -38 -1 -47z m-2447 48 c10 6 15 -5 24 -61 6 -40 6 -40
-13 -20 -11 11 -22 38 -26 60 -3 22 -3 34 0 27 3 -6 10 -10 15 -6z m67 -17
c-3 -8 -7 -3 -11 10 -4 17 -3 21 5 13 5 -5 8 -16 6 -23z m1868 -37 c-15 -15
-16 -15 -16 2 0 9 6 27 12 39 l13 22 3 -24 c2 -13 -3 -31 -12 -39z m455 31
c-8 -15 -10 -15 -11 -2 0 17 10 32 18 25 2 -3 -1 -13 -7 -23z m-2494 -20 c-3
-10 -5 -4 -5 12 0 17 2 24 5 18 2 -7 2 -21 0 -30z m1896 17 c-6 -24 -23 -37
-23 -18 0 12 18 38 26 38 1 0 0 -9 -3 -20z m97 -12 c0 -5 -4 -8 -10 -8 -5 0
-10 10 -10 23 0 18 2 19 10 7 5 -8 10 -18 10 -22z m-1630 12 c11 -6 24 -35 35
-79 21 -88 14 -115 -10 -39 -10 31 -29 69 -42 84 -35 41 -27 57 17 34z m1871
-7 c-5 -10 -24 -31 -42 -48 -30 -28 -29 -26 6 18 41 50 52 58 36 30z m219 14
c0 -2 -10 -12 -22 -23 l-23 -19 19 23 c18 21 26 27 26 19z m-533 -29 c-3 -8
-6 -5 -6 6 -1 11 2 17 5 13 3 -3 4 -12 1 -19z m-1879 -36 c9 -36 8 -41 -4 -31
-8 6 -14 27 -14 47 0 44 6 39 18 -16z m1047 38 c-28 -12 -37 -12 -30 0 3 6 16
10 28 9 21 0 21 -1 2 -9z m996 -13 c-10 -9 -11 -8 -5 6 3 10 9 15 12 12 3 -3
0 -11 -7 -18z m-1069 -7 c-41 -25 -51 -26 -21 0 13 10 31 19 39 20 8 0 0 -9
-18 -20z m841 -1 c-3 -11 -12 -23 -19 -26 -8 -3 -12 -9 -9 -13 3 -5 2 -11 -3
-14 -17 -11 -9 30 11 52 25 27 27 27 20 1z m-1669 -5 c3 -8 2 -12 -4 -9 -6 3
-10 10 -10 16 0 14 7 11 14 -7z m1937 -17 c-8 -8 -11 -7 -11 4 0 20 13 34 18
19 3 -7 -1 -17 -7 -23z m-1051 -20 c0 -3 -9 -7 -21 -10 -17 -5 -18 -3 -7 10
11 14 10 15 -12 9 -24 -7 -24 -6 -6 8 16 13 21 13 32 1 8 -7 14 -16 14 -18z
m917 1 c-3 -7 -5 -2 -5 12 0 14 2 19 5 13 2 -7 2 -19 0 -25z m68 12 c-9 -27 9
-25 23 3 l10 22 -1 -23 c-1 -21 -20 -40 -66 -67 -11 -6 -13 -4 -7 11 4 10 9
24 10 30 2 13 26 44 33 44 2 0 1 -9 -2 -20z m-2445 -25 c0 -5 -5 -3 -10 5 -5
8 -10 20 -10 25 0 6 5 3 10 -5 5 -8 10 -19 10 -25z m2341 -32 c-9 -15 -10 -14
-7 7 3 14 6 34 7 45 1 14 3 12 6 -7 2 -15 0 -35 -6 -45z m-643 40 c2 -8 -6
-13 -22 -13 -14 0 -26 5 -26 11 0 5 -5 7 -12 3 -7 -4 -8 -3 -4 5 10 15 58 10
64 -6z m1124 -35 c-2 -29 -10 -59 -16 -66 -9 -10 -11 -1 -6 40 5 46 15 78 24
78 2 0 1 -24 -2 -52z m-2283 -26 c6 -18 6 -32 1 -32 -15 0 -40 43 -40 69 0 23
2 24 15 10 8 -8 19 -29 24 -47z m839 38 c-7 -10 -14 -17 -17 -15 -4 4 18 35
25 35 2 0 -1 -9 -8 -20z m206 14 c9 -3 13 -10 10 -15 -3 -5 2 -9 10 -9 9 0 16
-4 16 -10 0 -5 -4 -10 -9 -10 -14 0 -71 34 -71 43 0 9 22 9 44 1z m1275 -35
c-17 -32 -26 -29 -15 6 6 20 13 29 18 22 3 -6 2 -19 -3 -28z m-2779 -7 c0 -13
-3 -12 -15 4 -19 25 -19 40 0 24 8 -7 15 -20 15 -28z m1713 31 c-7 -2 -19 -2
-25 0 -7 3 -2 5 12 5 14 0 19 -2 13 -5z m-293 -18 c9 -10 9 -15 1 -15 -6 0
-11 6 -11 13 0 8 -3 7 -10 -3 -5 -8 -12 -11 -15 -8 -8 8 3 28 14 28 5 0 14 -7
21 -15z m670 -5 c-8 -5 -17 -7 -19 -4 -3 3 1 9 9 14 8 5 17 7 19 4 3 -3 -1 -9
-9 -14z m-502 -26 c-16 -8 -18 -13 -7 -17 12 -5 12 -7 -1 -16 -18 -12 -16 -14
-24 31 l-7 36 31 -11 c29 -11 29 -12 8 -23z m298 21 c-11 -8 -25 -15 -30 -15
-6 0 -2 7 8 15 11 8 25 15 30 15 6 0 2 -7 -8 -15z m-530 -22 c-10 -10 -19 5
-10 18 6 11 8 11 12 0 2 -7 1 -15 -2 -18z m84 -3 c0 -5 -7 -10 -15 -10 -8 0
-15 5 -15 10 0 6 7 10 15 10 8 0 15 -4 15 -10z m400 5 c0 -2 -13 -11 -30 -20
-18 -9 -30 -11 -30 -5 0 6 10 15 23 20 26 10 37 12 37 5z m-540 -20 c0 -8 -4
-15 -10 -15 -5 0 -7 7 -4 15 4 8 8 15 10 15 2 0 4 -7 4 -15z m237 -7 c-3 -8
-6 -5 -6 6 -1 11 2 17 5 13 3 -3 4 -12 1 -19z m-1004 -33 c3 -19 1 -23 -8 -15
-7 6 -15 22 -18 35 -3 19 -1 23 8 15 7 -6 15 -22 18 -35z m1667 30 c-7 -8 -17
-15 -22 -15 -6 0 -5 7 2 15 7 8 17 15 22 15 6 0 5 -7 -2 -15z m-2160 -67 c0
-4 4 -7 8 -5 12 3 70 -57 104 -108 15 -22 33 -40 39 -40 6 0 19 -11 28 -24 13
-21 8 -19 -34 12 -28 19 -59 46 -71 59 -41 46 -124 159 -124 171 0 6 11 -4 25
-23 14 -19 25 -38 25 -42z m1317 50 c-3 -8 -6 -5 -6 6 -1 11 2 17 5 13 3 -3 4
-12 1 -19z m83 12 c0 -5 -5 -10 -11 -10 -5 0 -7 5 -4 10 3 6 8 10 11 10 2 0 4
-4 4 -10z m64 -32 c3 -15 2 -29 -3 -32 -9 -6 -21 26 -21 59 0 25 16 8 24 -27z
m256 32 c0 -5 -5 -10 -11 -10 -5 0 -7 5 -4 10 3 6 8 10 11 10 2 0 4 -4 4 -10z
m120 -5 c-7 -9 -15 -13 -17 -11 -7 7 7 26 19 26 6 0 6 -6 -2 -15z m-1220 -11
c0 -8 -5 -12 -10 -9 -6 4 -8 11 -5 16 9 14 15 11 15 -7z m1066 -10 c-5 -14 -9
-15 -19 -5 -9 9 -9 14 3 21 18 11 24 6 16 -16z m111 -6 c-3 -7 -5 -2 -5 12 0
14 2 19 5 13 2 -7 2 -19 0 -25z m-1100 0 c-3 -8 -6 -5 -6 6 -1 11 2 17 5 13 3
-3 4 -12 1 -19z m463 12 c0 -5 -5 -10 -11 -10 -5 0 -7 5 -4 10 3 6 8 10 11 10
2 0 4 -4 4 -10z m607 -22 c-4 -37 -22 -49 -24 -16 -2 20 12 48 24 48 2 0 2
-14 0 -32z m-1708 -23 c0 -5 -4 -3 -9 5 -5 8 -9 22 -9 30 0 16 17 -16 18 -35z
m480 -10 c0 -5 -6 -1 -14 9 -8 11 -15 27 -15 35 1 17 29 -26 29 -44z m731 41
c0 -8 -4 -18 -10 -21 -5 -3 -10 3 -10 14 0 12 5 21 10 21 6 0 10 -6 10 -14z
m140 -5 c0 -11 -4 -22 -9 -25 -11 -7 -23 22 -15 35 9 16 24 10 24 -10z m150
15 c0 -11 -19 -15 -25 -6 -3 5 1 10 9 10 9 0 16 -2 16 -4z m87 -28 c-3 -7 -5
-2 -5 12 0 14 2 19 5 13 2 -7 2 -19 0 -25z m979 -17 c-18 -17 -25 -20 -20 -8
3 9 10 17 14 17 5 0 12 10 16 23 5 14 9 17 12 8 2 -7 -8 -25 -22 -40z m-1514
17 c-7 -7 -12 -8 -12 -2 0 14 12 26 19 19 2 -3 -1 -11 -7 -17z m-1008 -9 c-3
-5 -10 -7 -15 -3 -5 3 -7 10 -3 15 3 5 10 7 15 3 5 -3 7 -10 3 -15z m1496 -4
c0 -14 -4 -25 -10 -25 -5 0 -10 11 -10 25 0 14 5 25 10 25 6 0 10 -11 10 -25z
m117 -22 c-3 -10 -5 -2 -5 17 0 19 2 27 5 18 2 -10 2 -26 0 -35z m-787 16 c0
-6 -4 -7 -10 -4 -5 3 -10 11 -10 16 0 6 5 7 10 4 6 -3 10 -11 10 -16z m751
-42 c-8 -8 -11 -4 -11 14 0 33 14 47 18 19 2 -12 -1 -27 -7 -33z m849 40 c0
-15 -29 -57 -30 -42 0 6 3 20 6 33 7 24 24 31 24 9z m-2374 -18 c19 -22 19
-22 -3 -10 -13 6 -23 16 -23 21 0 15 5 12 26 -11z m427 -9 c3 -11 2 -18 -3
-15 -4 3 -10 14 -13 25 -3 11 -2 18 3 15 4 -3 10 -14 13 -25z m547 14 c0 -8
-4 -12 -10 -9 -5 3 -10 10 -10 16 0 5 5 9 10 9 6 0 10 -7 10 -16z m836 1 c-11
-8 -22 -12 -25 -9 -6 6 19 24 34 24 6 -1 1 -7 -9 -15z m74 10 c0 -2 -10 -9
-22 -15 -22 -11 -22 -10 -4 4 21 17 26 19 26 11z m-1913 -43 c18 -44 1 -40
-20 4 -12 24 -14 35 -5 32 7 -3 18 -19 25 -36z m522 15 c-3 -24 1 -38 10 -33
5 3 11 -1 15 -9 3 -9 -3 -19 -14 -25 -16 -9 -20 -7 -21 7 -1 10 -3 33 -5 51
-1 18 2 30 7 26 5 -3 9 -11 8 -17z m541 -3 c0 -8 -4 -12 -10 -9 -5 3 -10 13
-10 21 0 8 5 12 10 9 6 -3 10 -13 10 -21z m137 4 c-3 -8 -6 -5 -6 6 -1 11 2
17 5 13 3 -3 4 -12 1 -19z m83 12 c0 -5 -5 -10 -11 -10 -5 0 -7 5 -4 10 3 6 8
10 11 10 2 0 4 -4 4 -10z m-419 -17 c13 -16 12 -17 -3 -4 -10 7 -18 15 -18 17
0 8 8 3 21 -13z m1483 -17 c-3 -15 -8 -25 -11 -23 -2 3 -1 17 3 31 3 15 8 25
11 23 2 -3 1 -17 -3 -31z m-1844 -49 c0 -23 -18 9 -24 43 l-7 35 16 -34 c8
-18 15 -38 15 -44z m912 41 c-9 -9 -12 -7 -12 12 0 19 3 21 12 12 9 -9 9 -15
0 -24z m1028 7 c-7 -8 -16 -15 -21 -15 -5 0 -1 9 8 20 9 11 19 17 21 15 3 -3
-1 -11 -8 -20z m-1103 -7 c-3 -8 -6 -5 -6 6 -1 11 2 17 5 13 3 -3 4 -12 1 -19z
m130 -25 c-3 -10 -5 -2 -5 17 0 19 2 27 5 18 2 -10 2 -26 0 -35z m291 35 c-2
-6 -10 -14 -16 -16 -7 -2 -10 2 -6 12 7 18 28 22 22 4z m543 -39 c-10 -23 -10
-23 -10 7 -1 17 2 34 7 38 11 12 14 -18 3 -45z m-2236 -24 c13 -34 14 -38 1
-25 -8 8 -22 33 -31 55 -14 34 -14 38 -2 25 9 -8 23 -33 32 -55z m1082 43 c-3
-8 -6 -5 -6 6 -1 11 2 17 5 13 3 -3 4 -12 1 -19z m-677 -9 c0 -6 -4 -7 -10 -4
-5 3 -10 11 -10 16 0 6 5 7 10 4 6 -3 10 -11 10 -16z m1231 -12 c-8 -8 -11 -7
-11 4 0 20 13 34 18 19 3 -7 -1 -17 -7 -23z m-71 19 c0 -3 -4 -8 -10 -11 -5
-3 -10 -1 -10 4 0 6 5 11 10 11 6 0 10 -2 10 -4z m-340 -16 c0 -5 -4 -10 -10
-10 -5 0 -10 5 -10 10 0 6 5 10 10 10 6 0 10 -4 10 -10z m145 0 c-3 -5 -13
-10 -21 -10 -8 0 -12 5 -9 10 3 6 13 10 21 10 8 0 12 -4 9 -10z m227 -12 c-7
-7 -12 -8 -12 -2 0 14 12 26 19 19 2 -3 -1 -11 -7 -17z m718 3 c-12 -23 -30
-36 -30 -22 0 10 27 41 36 41 3 0 0 -9 -6 -19z m-944 -47 c-9 -23 -36 -17 -33
7 4 27 31 44 35 23 2 -8 1 -22 -2 -30z m-1242 7 c-2 -3 -12 3 -22 13 -16 17
-16 18 5 5 12 -7 20 -15 17 -18z m543 7 c-3 -8 -6 -5 -6 6 -1 11 2 17 5 13 3
-3 4 -12 1 -19z m963 12 c0 -5 -5 -10 -11 -10 -5 0 -7 5 -4 10 3 6 8 10 11 10
2 0 4 -4 4 -10z m-1560 -20 c6 -11 9 -20 7 -20 -2 0 -12 9 -22 20 -10 11 -13
20 -7 20 6 0 16 -9 22 -20z m1520 10 c0 -5 -5 -10 -11 -10 -5 0 -7 5 -4 10 3
6 8 10 11 10 2 0 4 -4 4 -10z m-835 -26 c9 -15 12 -23 6 -20 -11 7 -35 46 -28
46 3 0 12 -12 22 -26z m1505 11 c-7 -8 -17 -15 -22 -15 -6 0 -5 7 2 15 7 8 17
15 22 15 6 0 5 -7 -2 -15z m-2074 -32 c-7 -7 -26 7 -26 19 0 6 6 6 15 -2 9 -7
13 -15 11 -17z m524 -4 c0 -5 -7 -6 -15 -3 -8 4 -15 13 -15 21 0 13 3 13 15 3
8 -7 15 -16 15 -21z m-550 -19 c22 -40 -21 -13 -45 28 -6 11 -3 12 14 3 11 -6
25 -20 31 -31z m860 30 c0 -5 -5 -10 -11 -10 -5 0 -7 5 -4 10 3 6 8 10 11 10
2 0 4 -4 4 -10z m76 -17 c-10 -10 -19 5 -10 18 6 11 8 11 12 0 2 -7 1 -15 -2
-18z m180 -20 c-11 -11 -17 4 -9 23 7 18 8 18 11 1 2 -10 1 -21 -2 -24z m264
33 c0 -3 -4 -8 -10 -11 -5 -3 -10 -1 -10 4 0 6 5 11 10 11 6 0 10 -2 10 -4z
m-1473 -63 c-7 -7 -46 19 -52 35 -3 8 8 4 26 -8 16 -12 28 -24 26 -27z m1291
-4 c-9 -6 -14 -2 -16 13 -2 11 2 25 10 29 9 6 14 2 16 -13 2 -11 -2 -25 -10
-29z m29 19 c-3 -7 -5 -2 -5 12 0 14 2 19 5 13 2 -7 2 -19 0 -25z m20 10 c-3
-8 -6 -5 -6 6 -1 11 2 17 5 13 3 -3 4 -12 1 -19z m-1296 -5 c13 -16 12 -17 -3
-4 -10 7 -18 15 -18 17 0 8 8 3 21 -13z m99 -4 c0 -6 -4 -7 -10 -4 -5 3 -10
11 -10 16 0 6 5 7 10 4 6 -3 10 -11 10 -16z m122 -38 c16 -25 18 -32 6 -25
-18 10 -68 68 -68 79 0 15 42 -21 62 -54z m658 44 c16 -19 0 -19 -26 0 -16 12
-16 14 -3 15 9 0 22 -7 29 -15z m50 -5 c0 -5 -2 -10 -4 -10 -3 0 -8 5 -11 10
-3 6 -1 10 4 10 6 0 11 -4 11 -10z m70 1 c0 -5 -7 -11 -15 -15 -15 -5 -20 5
-8 17 9 10 23 9 23 -2z m120 -5 c0 -8 -4 -18 -10 -21 -5 -3 -10 3 -10 14 0 12
5 21 10 21 6 0 10 -6 10 -14z m100 -6 c0 -11 -7 -20 -15 -20 -27 0 -18 30 13
39 1 1 2 -8 2 -19z m-966 -11 c14 -7 28 -18 31 -27 11 -28 -6 -26 -38 6 -34
34 -32 39 7 21z m829 -3 c6 -14 -10 -36 -27 -36 -5 0 -1 7 10 15 18 13 18 14
1 15 -10 0 -15 5 -12 10 9 14 22 12 28 -4z m97 4 c0 -5 -5 -10 -11 -10 -5 0
-7 5 -4 10 3 6 8 10 11 10 2 0 4 -4 4 -10z m675 0 c-3 -5 -11 -10 -16 -10 -6
0 -7 5 -4 10 3 6 11 10 16 10 6 0 7 -4 4 -10z m-1864 -17 c13 -16 12 -17 -3
-4 -10 7 -18 15 -18 17 0 8 8 3 21 -13z m95 -21 c-4 -3 -14 2 -24 12 -16 18
-16 18 6 6 13 -6 21 -14 18 -18z m238 8 c31 -11 34 -30 6 -30 -10 0 -24 9 -30
20 -12 23 -11 24 24 10z m-279 -11 c11 -17 -1 -21 -15 -4 -8 9 -8 15 -2 15 6
0 14 -5 17 -11z m965 7 c0 -2 -8 -10 -17 -17 -16 -13 -17 -12 -4 4 13 16 21
21 21 13z m-614 -34 c-4 -3 -14 2 -24 12 -16 18 -16 18 6 6 13 -6 21 -14 18
-18z m-275 -18 c13 -16 12 -16 -18 0 -18 9 -33 21 -33 27 0 13 32 -4 51 -27z
m999 27 c0 -5 -9 -12 -19 -16 -11 -3 -22 -12 -25 -20 -8 -23 -25 -18 -19 6 7
26 63 52 63 30z m-935 -33 c22 -18 36 -27 32 -20 -12 17 9 15 40 -5 14 -10 33
-18 41 -19 8 -2 26 -13 40 -26 14 -13 22 -17 18 -10 -11 19 -1 14 20 -9 19
-22 19 -22 -6 -15 -38 11 -203 78 -216 88 -14 10 -25 48 -15 48 3 0 24 -15 46
-32z m275 22 c12 -8 11 -10 -7 -10 -12 0 -25 5 -28 10 -8 13 15 13 35 0z m705
-10 c-3 -5 -12 -10 -18 -10 -7 0 -6 4 3 10 19 12 23 12 15 0z m-131 -15 c-4
-8 -11 -12 -16 -9 -6 4 -5 10 3 15 19 12 19 11 13 -6z m91 5 c-3 -5 -14 -10
-23 -10 -15 0 -15 2 -2 10 20 13 33 13 25 0z m-750 -10 c8 -13 -5 -13 -25 0
-13 8 -13 10 2 10 9 0 20 -4 23 -10z m578 -5 c-3 -9 -8 -14 -10 -11 -3 3 -2 9
2 15 9 16 15 13 8 -4z m557 5 c-20 -13 -33 -13 -25 0 3 6 14 10 23 10 15 0 15
-2 2 -10z m320 5 c0 -2 -14 -12 -31 -21 -17 -8 -28 -11 -24 -4 4 6 17 15 29
20 27 11 26 11 26 5z m-1395 -15 c3 -5 2 -10 -4 -10 -5 0 -13 5 -16 10 -3 6
-2 10 4 10 5 0 13 -4 16 -10z m60 -10 c3 -5 2 -10 -4 -10 -5 0 -13 5 -16 10
-3 6 -2 10 4 10 5 0 13 -4 16 -10z m46 -7 c13 -16 12 -17 -3 -4 -17 13 -22 21
-14 21 2 0 10 -8 17 -17z m94 -4 c11 -17 -1 -21 -15 -4 -8 9 -8 15 -2 15 6 0
14 -5 17 -11z m788 -4 c-3 -9 -8 -14 -10 -11 -3 3 -2 9 2 15 9 16 15 13 8 -4z
m67 0 c-7 -9 -15 -13 -17 -11 -7 7 7 26 19 26 6 0 6 -6 -2 -15z m135 5 c-3 -5
-11 -10 -16 -10 -6 0 -7 5 -4 10 3 6 11 10 16 10 6 0 7 -4 4 -10z m-262 -15
c-3 -9 -8 -14 -10 -11 -3 3 -2 9 2 15 9 16 15 13 8 -4z m-173 -15 c0 -5 -4
-10 -10 -10 -5 0 -10 5 -10 10 0 6 5 10 10 10 6 0 10 -4 10 -10z m340 5 c0 -2
-10 -9 -22 -15 -22 -11 -22 -10 -4 4 21 17 26 19 26 11z m-1107 -16 c12 -7 35
-23 52 -37 l30 -25 -35 8 c-37 8 -73 33 -65 45 3 5 -1 11 -7 13 -7 3 -9 6 -5
6 5 1 18 -4 30 -10z m128 -16 c54 -61 63 -74 48 -68 -19 7 -94 95 -81 95 4 0
19 -12 33 -27z m924 7 c-3 -5 -12 -10 -18 -10 -7 0 -6 4 3 10 19 12 23 12 15
0z m-816 -37 c2 -2 -3 -3 -12 -3 -9 0 -22 10 -28 23 l-12 22 24 -20 c13 -11
26 -21 28 -22z m76 19 c-3 -3 -11 0 -18 7 -9 10 -8 11 6 5 10 -3 15 -9 12 -12z
m665 -17 c0 -8 -8 -15 -17 -16 -12 -1 -9 -4 7 -8 24 -7 24 -8 -7 -12 -38 -6
-41 2 -11 31 26 24 28 24 28 5z m-854 -16 c19 -22 19 -22 -3 -10 -24 12 -39
31 -25 31 5 0 17 -10 28 -21z m711 15 c-3 -3 -12 -4 -19 -1 -8 3 -5 6 6 6 11
1 17 -2 13 -5z m-187 -27 c8 -3 -9 -6 -39 -6 -45 -1 -52 1 -42 13 12 14 18 13
81 -7z m264 -4 c4 -10 4 -14 0 -10 -4 4 -12 3 -18 -2 -13 -11 -196 -34 -204
-26 -3 3 6 5 19 6 13 0 54 8 92 18 43 11 67 14 67 7 0 -6 5 -3 11 7 13 22 25
22 33 0z"/>
<path d="M1882 3375 c-32 -36 -67 -95 -57 -95 3 0 -2 -11 -11 -25 -9 -14 -14
-28 -10 -32 3 -3 2 -11 -3 -17 -31 -38 -53 -316 -31 -401 6 -25 8 -20 10 30
l2 60 9 -50 c5 -27 6 -56 4 -63 -3 -7 -1 -11 4 -7 5 3 15 -12 22 -32 19 -59
66 -149 94 -179 28 -30 32 -20 11 29 -7 18 -16 58 -20 90 -4 31 -12 57 -17 57
-5 0 -9 19 -9 43 0 29 -3 38 -9 28 -6 -10 -8 0 -5 30 4 34 3 40 -5 29 -9 -12
-11 -1 -11 45 1 33 1 67 0 75 0 8 2 37 5 63 4 34 2 46 -6 42 -6 -4 -3 8 7 26
15 31 15 33 1 20 -21 -17 -21 -9 -1 31 9 16 11 27 5 24 -14 -9 -14 -4 0 31 34
84 62 173 57 179 -3 2 -19 -11 -36 -31z m-71 -458 c-8 -8 -11 -7 -11 4 0 20
13 34 18 19 3 -7 -1 -17 -7 -23z"/>
<path d="M2200 3195 c0 -19 5 -35 10 -35 6 0 10 16 10 35 0 19 -4 35 -10 35
-5 0 -10 -16 -10 -35z"/>
<path d="M2231 3113 c1 -45 3 -60 8 -43 6 20 9 15 14 -30 4 -30 11 -56 17 -58
5 -2 10 -13 11 -25 0 -21 1 -21 9 -2 14 32 11 92 -5 109 -8 8 -15 30 -16 48
-1 31 -1 31 -9 8 -7 -22 -8 -21 -9 12 -1 20 -5 40 -11 43 -6 4 -10 -19 -9 -62z"/>
<path d="M1936 2979 c-14 -17 -26 -40 -26 -51 0 -12 2 -19 3 -17 2 2 18 25 36
52 36 53 27 64 -13 16z"/>
<path d="M2311 2968 c-1 -43 45 -176 56 -164 7 6 -19 129 -29 143 -5 6 -13 24
-18 40 -7 25 -8 23 -9 -19z"/>
<path d="M3522 2983 c-12 -24 -4 -43 14 -36 16 6 20 53 4 53 -5 0 -13 -8 -18
-17z"/>
<path d="M1945 2927 c-20 -32 -30 -83 -16 -91 6 -4 11 -19 12 -34 l1 -27 14
30 c13 29 13 27 9 -30 -5 -58 -5 -59 9 -30 15 30 15 29 16 -33 0 -40 4 -61 10
-57 11 7 14 0 25 -49 4 -19 9 -25 14 -18 8 14 51 -38 51 -62 0 -9 6 -13 15
-10 9 4 16 -3 21 -20 5 -21 9 -24 20 -15 11 9 14 8 14 -7 0 -11 5 -26 10 -34
7 -11 10 -5 10 23 0 22 -7 44 -17 55 -10 9 -23 28 -30 42 l-12 25 -1 -25 c-1
-20 -4 -18 -14 15 -8 22 -19 54 -26 70 l-13 30 -7 -30 c-6 -28 -7 -25 -20 30
-14 59 -14 60 -21 25 -5 -27 -7 -18 -8 40 -2 52 -5 69 -11 55 -7 -16 -9 -12
-9 18 -1 22 -5 36 -11 32 -6 -4 -8 7 -4 27 5 31 5 32 -10 14 -9 -11 -16 -26
-16 -35 0 -8 -3 -12 -6 -9 -3 3 1 29 10 57 16 56 14 63 -9 28z"/>
<path d="M3473 2904 c-18 -59 -17 -87 3 -51 8 15 14 42 12 60 l-3 32 -12 -41z"/>
<path d="M2381 2870 c0 -41 37 -138 39 -100 0 8 10 0 22 -19 33 -52 32 -23 -1
55 -17 38 -31 60 -31 49 -1 -12 -7 -4 -15 20 l-13 40 -1 -45z m36 -72 c-3 -8
-6 -5 -6 6 -1 11 2 17 5 13 3 -3 4 -12 1 -19z"/>
<path d="M3435 2859 c-4 -19 -12 -29 -20 -25 -14 5 -25 -23 -25 -64 1 -23 2
-23 11 -6 6 10 20 27 30 37 11 11 19 33 19 54 0 43 -6 45 -15 4z"/>
<path d="M4060 2853 c0 -15 48 -68 55 -61 8 8 -32 68 -46 68 -5 0 -9 -3 -9 -7z"/>
<path d="M4055 2813 c4 -15 2 -23 -5 -23 -7 0 -9 -7 -6 -16 3 -8 2 -12 -4 -9
-13 8 -13 -1 1 -27 9 -16 8 -19 -2 -13 -9 6 -11 0 -6 -26 6 -32 6 -33 -9 -14
-16 19 -16 19 -10 -13 3 -18 2 -31 -3 -28 -5 3 -11 -4 -15 -17 -9 -33 -7 -87
3 -87 11 0 41 62 41 87 0 15 2 16 10 3 7 -11 10 -5 10 24 0 37 1 39 15 20 13
-17 14 -15 11 33 -2 29 1 50 5 47 20 -12 7 27 -17 53 -23 26 -25 26 -19 6z"/>
<path d="M3363 2781 c-7 -19 -13 -48 -12 -65 l1 -31 14 34 c8 18 14 48 12 65
l-3 31 -12 -34z"/>
<path d="M3750 2773 c0 -23 -4 -52 -9 -65 -4 -13 -5 -43 -2 -68 l7 -45 18 54
c19 56 18 133 -3 154 -8 8 -11 0 -11 -30z"/>
<path d="M2460 2797 c0 -17 30 -63 61 -92 l32 -30 -19 33 c-22 39 -73 101 -74
89z"/>
<path d="M2520 2782 c0 -30 43 -92 88 -131 28 -22 53 -41 56 -41 4 0 -12 27
-34 60 -42 62 -53 73 -44 43 4 -16 4 -16 -8 0 -46 66 -58 79 -58 69z"/>
<path d="M3308 2721 c-12 -11 -18 -33 -18 -60 0 -36 2 -40 14 -28 18 17 38 89
28 98 -4 4 -15 -1 -24 -10z"/>
<path d="M3253 2651 c-7 -19 -13 -48 -12 -65 l1 -31 14 34 c8 18 14 48 12 65
l-3 31 -12 -34z"/>
<path d="M3817 2620 c-15 -29 -27 -60 -27 -71 0 -21 -20 -27 -20 -6 0 6 -12
-10 -25 -38 -14 -27 -25 -47 -25 -43 0 4 -25 -17 -55 -47 -69 -69 -77 -99 -14
-54 16 11 36 22 44 23 14 2 65 69 65 86 0 17 34 50 40 40 10 -16 60 72 60 105
0 57 -15 59 -43 5z"/>
<path d="M3709 2619 c-21 -33 -30 -59 -20 -59 14 0 43 50 39 68 -2 13 -6 11
-19 -9z"/>
<path d="M2420 2613 c0 -32 12 -63 24 -63 6 0 21 -15 34 -33 12 -17 22 -25 22
-17 1 11 3 10 11 -4 8 -13 14 -15 18 -7 5 7 13 -6 21 -31 10 -36 14 -40 20
-23 7 19 7 19 15 -4 5 -16 10 -20 15 -11 5 8 14 3 29 -17 11 -15 25 -33 29
-38 5 -6 14 -19 20 -30 7 -12 12 -14 12 -6 0 8 8 4 20 -10 13 -16 19 -19 20
-10 0 11 4 9 15 -5 14 -19 14 -19 15 0 0 19 1 19 20 -2 12 -12 22 -22 24 -22
10 0 -15 75 -30 89 -14 13 -15 13 -9 1 4 -8 -28 21 -72 65 -87 89 -174 150
-191 133 -7 -7 -12 -3 -17 11 -3 12 -10 19 -14 16 -4 -2 -18 5 -29 16 -20 18
-22 18 -22 2z m183 -130 c4 -7 -12 1 -38 18 -25 17 -45 32 -45 34 0 2 -3 12
-7 22 -7 18 74 -48 90 -74z"/>
<path d="M3200 2588 c-17 -37 -20 -39 -21 -18 -1 25 -1 24 -14 -5 -8 -16 -14
-41 -14 -55 0 -23 1 -23 13 -8 7 10 16 15 19 12 8 -9 30 36 37 79 4 20 5 37 3
37 -2 0 -13 -19 -23 -42z"/>
<path d="M2699 2602 c5 -10 17 -24 25 -32 24 -19 21 12 -2 33 -24 22 -35 21
-23 -1z"/>
<path d="M3960 2555 c0 -16 -4 -24 -10 -20 -16 10 -40 -14 -40 -39 0 -12 -7
-31 -15 -42 -17 -22 -20 -12 -4 19 15 32 -82 -73 -118 -127 -18 -27 -33 -41
-36 -34 -3 8 -10 2 -17 -15 -8 -15 -19 -26 -26 -23 -14 5 -24 -15 -24 -47 1
-19 2 -20 13 -7 7 8 29 28 50 43 25 19 37 36 37 52 0 13 5 27 10 30 7 4 8 -3
4 -22 l-7 -28 35 33 c19 17 39 32 46 32 7 0 12 4 12 9 0 6 11 22 24 36 13 14
34 41 47 60 13 19 27 35 32 35 11 0 9 68 -3 75 -6 4 -10 -5 -10 -20z m-117
-175 c-10 -17 -19 -26 -21 -20 -4 10 25 50 35 50 2 0 -4 -14 -14 -30z"/>
<path d="M1950 2555 c0 -23 24 -67 49 -89 29 -26 26 -13 -10 50 -32 57 -39 64
-39 39z"/>
<path d="M3110 2505 c-13 -15 -28 -115 -16 -104 8 8 37 112 32 116 -2 2 -9 -3
-16 -12z"/>
<path d="M2190 2468 c0 -21 53 -123 58 -110 6 19 -7 82 -18 82 -5 0 -12 9 -15
20 -7 21 -25 28 -25 8z"/>
<path d="M2042 2453 c4 -16 2 -20 -9 -16 -23 9 12 -41 42 -61 35 -23 39 -20
16 13 -12 16 -21 36 -21 44 0 8 -8 21 -17 28 -15 12 -16 12 -11 -8z"/>
<path d="M3068 2447 c-12 -29 -10 -73 3 -60 6 6 9 26 7 44 -2 26 -5 30 -10 16z"/>
<path d="M2261 2410 c0 -21 28 -87 29 -68 0 3 16 -8 36 -25 19 -18 37 -30 39
-27 1 3 13 -4 25 -15 l23 -20 -7 25 c-6 21 -5 23 6 10 24 -27 48 -43 48 -31 0
18 -40 53 -55 47 -7 -2 -21 6 -29 20 -9 13 -20 23 -25 21 -12 -3 -51 43 -52
62 0 11 -2 12 -6 3 -4 -10 -8 -9 -19 5 -12 17 -13 16 -13 -7z"/>
<path d="M3310 2408 c0 -16 -5 -27 -12 -25 -15 3 -38 -41 -38 -73 l0 -25 25
30 c14 17 24 24 25 16 0 -23 40 29 40 53 0 26 -20 60 -20 36 0 -13 -1 -13 -10
0 -8 12 -10 9 -10 -12z"/>
<path d="M3237 2327 c-11 -29 -9 -53 4 -40 6 6 9 21 7 34 -3 21 -4 22 -11 6z"/>
<path d="M2472 2278 c2 -6 15 -18 28 -27 22 -15 23 -15 12 6 -12 22 -46 41
-40 21z"/>
<path d="M3176 2271 c-4 -7 -5 -15 -2 -18 9 -9 19 4 14 18 -4 11 -6 11 -12 0z"/>
<path d="M2544 2245 c21 -16 32 -13 21 4 -3 6 -14 11 -23 11 -15 -1 -15 -2 2
-15z"/>
<path d="M3638 2250 c-12 -28 -15 -70 -6 -70 13 0 20 25 16 57 -3 18 -6 23
-10 13z"/>
<path d="M3385 2230 c-22 -11 -45 -19 -51 -20 -11 0 -45 -34 -60 -60 -6 -11
-1 -10 20 4 28 18 29 18 22 0 -6 -15 -2 -13 20 6 15 14 24 19 19 11 -11 -19
30 -5 75 25 27 19 31 24 15 24 -12 0 -32 -7 -45 -17 -22 -14 -22 -13 4 15 35
37 34 38 -19 12z"/>
<path d="M3271 2217 c-25 -12 -68 -63 -60 -71 2 -2 26 16 54 40 49 44 51 55 6
31z"/>
<path d="M3580 2208 c-11 -12 -20 -18 -20 -13 0 5 -6 0 -14 -11 -8 -10 -20
-19 -28 -19 -7 0 -14 -8 -16 -17 -5 -27 24 -22 74 12 27 19 44 39 44 50 0 26
-14 25 -40 -2z"/>
<path d="M2570 2130 c0 -5 9 -14 20 -20 28 -15 25 -30 -7 -31 -18 -1 -21 -3
-10 -6 9 -2 15 -8 12 -13 -3 -5 13 -15 37 -22 32 -9 43 -9 46 0 2 6 18 14 36
17 45 9 42 32 -6 40 -21 4 -40 11 -44 16 -10 16 -24 10 -17 -8 4 -12 -3 -8
-20 10 -26 27 -47 35 -47 17z"/>
<path d="M3461 2122 c-14 -26 -7 -42 10 -25 6 6 9 19 7 29 -3 17 -5 17 -17 -4z"/>
<path d="M2522 2118 c6 -17 36 -34 44 -25 4 4 -1 14 -12 22 -23 18 -37 19 -32
3z"/>
<path d="M3370 2030 c-11 -7 -4 -10 28 -10 23 0 42 5 42 10 0 13 -50 13 -70 0z"/>
<path d="M3305 2005 c17 -8 48 -14 70 -14 l40 1 -30 13 c-16 8 -48 14 -70 14
l-40 -1 30 -13z"/>
<path d="M2440 1961 c0 -6 5 -13 10 -16 6 -3 10 1 10 9 0 9 -4 16 -10 16 -5 0
-10 -4 -10 -9z"/>
<path d="M2780 3527 c0 -10 111 -79 117 -73 8 8 -16 35 -46 50 -32 17 -71 29
-71 23z"/>
<path d="M2813 3456 c15 -14 25 -26 22 -26 -3 0 -1 -10 6 -21 8 -16 8 -23 0
-28 -7 -5 -1 -17 18 -35 24 -23 29 -25 35 -11 3 9 1 25 -4 36 -6 11 -8 24 -5
29 8 13 -46 67 -75 75 l-25 6 28 -25z"/>
<path d="M2860 3296 c0 -8 5 -18 10 -21 6 -3 10 3 10 14 0 12 -4 21 -10 21 -5
0 -10 -6 -10 -14z"/>
<path d="M4381 3890 c20 -25 67 -85 104 -135 90 -118 92 -120 57 -50 -35 68
-86 132 -152 190 l-45 40 36 -45z"/>
<path d="M4746 3325 c25 -81 66 -268 79 -355 l14 -105 -4 115 c-4 123 -26 218
-70 312 -14 29 -23 44 -19 33z"/>
<path d="M1121 3217 c-17 -56 -38 -136 -46 -177 -17 -81 -31 -445 -15 -375 5
22 9 72 9 110 1 91 33 305 65 435 14 57 24 105 22 107 -1 2 -17 -43 -35 -100z"/>
<path d="M1061 2584 c0 -11 3 -14 6 -6 3 7 2 16 -1 19 -3 4 -6 -2 -5 -13z"/>
<path d="M4152 1488 c-56 -39 -101 -73 -98 -75 9 -9 121 58 171 102 28 24 46
44 40 44 -5 0 -56 -32 -113 -71z"/>
<path d="M1743 1466 c27 -25 78 -60 114 -77 69 -33 95 -34 41 -2 -18 11 -71
43 -118 72 l-85 52 48 -45z"/>
<path d="M3665 1253 c-38 -13 -153 -49 -255 -78 -102 -30 -180 -54 -173 -54
80 -4 513 126 513 153 0 9 -8 7 -85 -21z"/>
</g>
</svg>
